%TF.GenerationSoftware,KiCad,Pcbnew,8.0.5*%
%TF.CreationDate,2025-02-16T14:39:50-08:00*%
%TF.ProjectId,ccm,63636d2e-6b69-4636-9164-5f7063625858,rev?*%
%TF.SameCoordinates,Original*%
%TF.FileFunction,Copper,L2,Bot*%
%TF.FilePolarity,Positive*%
%FSLAX46Y46*%
G04 Gerber Fmt 4.6, Leading zero omitted, Abs format (unit mm)*
G04 Created by KiCad (PCBNEW 8.0.5) date 2025-02-16 14:39:50*
%MOMM*%
%LPD*%
G01*
G04 APERTURE LIST*
G04 Aperture macros list*
%AMRoundRect*
0 Rectangle with rounded corners*
0 $1 Rounding radius*
0 $2 $3 $4 $5 $6 $7 $8 $9 X,Y pos of 4 corners*
0 Add a 4 corners polygon primitive as box body*
4,1,4,$2,$3,$4,$5,$6,$7,$8,$9,$2,$3,0*
0 Add four circle primitives for the rounded corners*
1,1,$1+$1,$2,$3*
1,1,$1+$1,$4,$5*
1,1,$1+$1,$6,$7*
1,1,$1+$1,$8,$9*
0 Add four rect primitives between the rounded corners*
20,1,$1+$1,$2,$3,$4,$5,0*
20,1,$1+$1,$4,$5,$6,$7,0*
20,1,$1+$1,$6,$7,$8,$9,0*
20,1,$1+$1,$8,$9,$2,$3,0*%
G04 Aperture macros list end*
%TA.AperFunction,ComponentPad*%
%ADD10RoundRect,0.250001X1.399999X-1.099999X1.399999X1.099999X-1.399999X1.099999X-1.399999X-1.099999X0*%
%TD*%
%TA.AperFunction,ComponentPad*%
%ADD11O,3.300000X2.700000*%
%TD*%
%TA.AperFunction,ComponentPad*%
%ADD12RoundRect,0.250001X1.099999X1.399999X-1.099999X1.399999X-1.099999X-1.399999X1.099999X-1.399999X0*%
%TD*%
%TA.AperFunction,ComponentPad*%
%ADD13O,2.700000X3.300000*%
%TD*%
%TA.AperFunction,ComponentPad*%
%ADD14R,1.498600X1.498600*%
%TD*%
%TA.AperFunction,ComponentPad*%
%ADD15C,1.498600*%
%TD*%
%TA.AperFunction,ComponentPad*%
%ADD16RoundRect,0.250001X-1.099999X-1.399999X1.099999X-1.399999X1.099999X1.399999X-1.099999X1.399999X0*%
%TD*%
%TA.AperFunction,ComponentPad*%
%ADD17RoundRect,0.250001X-1.399999X1.099999X-1.399999X-1.099999X1.399999X-1.099999X1.399999X1.099999X0*%
%TD*%
%TA.AperFunction,ComponentPad*%
%ADD18R,1.905000X2.000000*%
%TD*%
%TA.AperFunction,ComponentPad*%
%ADD19O,1.905000X2.000000*%
%TD*%
%TA.AperFunction,ViaPad*%
%ADD20C,0.600000*%
%TD*%
%TA.AperFunction,Conductor*%
%ADD21C,0.200000*%
%TD*%
%TA.AperFunction,Conductor*%
%ADD22C,0.300000*%
%TD*%
G04 APERTURE END LIST*
D10*
%TO.P,J8,1,Pin_1*%
%TO.N,brake_2*%
X178400000Y-117750000D03*
D11*
%TO.P,J8,2,Pin_2*%
%TO.N,brake_1*%
X178400000Y-113550000D03*
%TO.P,J8,3,Pin_3*%
%TO.N,acc_ped_2*%
X183900000Y-117750000D03*
%TO.P,J8,4,Pin_4*%
%TO.N,acc_ped_1*%
X183900000Y-113550000D03*
%TD*%
D12*
%TO.P,J10,1,Pin_1*%
%TO.N,speaker+*%
X129450000Y-72600000D03*
D13*
%TO.P,J10,2,Pin_2*%
%TO.N,speaker-*%
X129450000Y-67100000D03*
%TD*%
D14*
%TO.P,U1,1,GND*%
%TO.N,GLV-*%
X143500000Y-66340000D03*
D15*
%TO.P,U1,2,0_RX1_CRX2_CS1*%
%TO.N,CAN_RX_1*%
X143500000Y-68880000D03*
%TO.P,U1,3,1_TX1_CTX2_MISO1*%
%TO.N,CAN_TX_1*%
X143500000Y-71420000D03*
%TO.P,U1,4,2_OUT2*%
%TO.N,Net-(U1-2_OUT2)*%
X143500000Y-73960000D03*
%TO.P,U1,5,3_LRCLK2*%
%TO.N,Net-(U1-3_LRCLK2)*%
X143500000Y-76500000D03*
%TO.P,U1,6,4_BCLK2*%
%TO.N,ready_to_drive_button*%
X143500000Y-79040000D03*
%TO.P,U1,7,5_IN2*%
%TO.N,unconnected-(U1-5_IN2-Pad7)*%
X143500000Y-81580000D03*
%TO.P,U1,8,6_OUT1D*%
%TO.N,unconnected-(U1-6_OUT1D-Pad8)*%
X143500000Y-84120000D03*
%TO.P,U1,9,7_RX2_OUT1A*%
%TO.N,unconnected-(U1-7_RX2_OUT1A-Pad9)*%
X143500000Y-86660000D03*
%TO.P,U1,10,8_TX2_IN1*%
%TO.N,unconnected-(U1-8_TX2_IN1-Pad10)*%
X143500000Y-89200000D03*
%TO.P,U1,11,9_OUT1C*%
%TO.N,Net-(Q1-G)*%
X143500000Y-91740000D03*
%TO.P,U1,12,10_CS_MQSR*%
%TO.N,speaker_pwm*%
X143500000Y-94280000D03*
%TO.P,U1,13,11_MOSI_CTX1*%
%TO.N,unconnected-(U1-11_MOSI_CTX1-Pad13)*%
X143500000Y-96820000D03*
%TO.P,U1,14,12_MISO_MQSL*%
%TO.N,unconnected-(U1-12_MISO_MQSL-Pad14)*%
X143500000Y-99360000D03*
%TO.P,U1,15,3V3*%
%TO.N,+3.3V*%
X143500000Y-101900000D03*
%TO.P,U1,16,24_A10_TX6_SCL2*%
%TO.N,i2c_SCL*%
X143500000Y-104440000D03*
%TO.P,U1,17,25_A11_RX6_SDA2*%
%TO.N,i2c_SDA*%
X143500000Y-106980000D03*
%TO.P,U1,18,26_A12_MOSI1*%
%TO.N,unconnected-(U1-26_A12_MOSI1-Pad18)*%
X143500000Y-109520000D03*
%TO.P,U1,19,27_A13_SCK1*%
%TO.N,unconnected-(U1-27_A13_SCK1-Pad19)*%
X143500000Y-112060000D03*
%TO.P,U1,20,28_RX7*%
%TO.N,unconnected-(U1-28_RX7-Pad20)*%
X143500000Y-114600000D03*
%TO.P,U1,21,29_TX7*%
%TO.N,unconnected-(U1-29_TX7-Pad21)*%
X143500000Y-117140000D03*
%TO.P,U1,22,30_CRX3*%
%TO.N,CAN_RX_2*%
X143500000Y-119680000D03*
%TO.P,U1,23,31_CTX3*%
%TO.N,CAN_TX_2*%
X143500000Y-122220000D03*
%TO.P,U1,24,32_OUT1B*%
%TO.N,unconnected-(U1-32_OUT1B-Pad24)*%
X143500000Y-124760000D03*
%TO.P,U1,25,33_MCLK2*%
%TO.N,unconnected-(U1-33_MCLK2-Pad25)*%
X158740000Y-124760000D03*
%TO.P,U1,26,34_RX8*%
%TO.N,unconnected-(U1-34_RX8-Pad26)*%
X158740000Y-122220000D03*
%TO.P,U1,27,35_TX8*%
%TO.N,unconnected-(U1-35_TX8-Pad27)*%
X158740000Y-119680000D03*
%TO.P,U1,28,36_CS*%
%TO.N,unconnected-(U1-36_CS-Pad28)*%
X158740000Y-117140000D03*
%TO.P,U1,29,37_CS*%
%TO.N,unconnected-(U1-37_CS-Pad29)*%
X158740000Y-114600000D03*
%TO.P,U1,30,38_CS1_IN1*%
%TO.N,unconnected-(U1-38_CS1_IN1-Pad30)*%
X158740000Y-112060000D03*
%TO.P,U1,31,39_MISO1_OUT1A*%
%TO.N,unconnected-(U1-39_MISO1_OUT1A-Pad31)*%
X158740000Y-109520000D03*
%TO.P,U1,32,40_A16*%
%TO.N,unconnected-(U1-40_A16-Pad32)*%
X158740000Y-106980000D03*
%TO.P,U1,33,41_A17*%
%TO.N,unconnected-(U1-41_A17-Pad33)*%
X158740000Y-104440000D03*
%TO.P,U1,34,GND*%
%TO.N,unconnected-(U1-GND-Pad34)*%
X158740000Y-101900000D03*
%TO.P,U1,35,13_SCK_LED*%
%TO.N,unconnected-(U1-13_SCK_LED-Pad35)*%
X158740000Y-99360000D03*
%TO.P,U1,36,14_A0_TX3_SPDIF_OUT*%
%TO.N,unconnected-(U1-14_A0_TX3_SPDIF_OUT-Pad36)*%
X158740000Y-96820000D03*
%TO.P,U1,37,15_A1_RX3_SPDIF_IN*%
%TO.N,unconnected-(R23-Pad2)*%
X158740000Y-94280000D03*
%TO.P,U1,38,16_A2_RX4_SCL1*%
%TO.N,Net-(U1-16_A2_RX4_SCL1)*%
X158740000Y-91740000D03*
%TO.P,U1,39,17_A3_TX4_SDA1*%
%TO.N,Net-(U1-17_A3_TX4_SDA1)*%
X158740000Y-89200000D03*
%TO.P,U1,40,18_A4_SDA*%
%TO.N,Net-(U1-18_A4_SDA)*%
X158740000Y-86660000D03*
%TO.P,U1,41,19_A5_SCL*%
%TO.N,Net-(U1-19_A5_SCL)*%
X158740000Y-84120000D03*
%TO.P,U1,42,20_A6_TX5_LRCLK1*%
%TO.N,Net-(U1-20_A6_TX5_LRCLK1)*%
X158740000Y-81580000D03*
%TO.P,U1,43,21_A7_RX5_BCLK1*%
%TO.N,Net-(U1-21_A7_RX5_BCLK1)*%
X158740000Y-79040000D03*
%TO.P,U1,44,22_A8_CTX1*%
%TO.N,Net-(U1-22_A8_CTX1)*%
X158740000Y-76500000D03*
%TO.P,U1,45,23_A9_CRX1_MCLK1*%
%TO.N,Net-(U1-23_A9_CRX1_MCLK1)*%
X158740000Y-73960000D03*
%TO.P,U1,46,3V3*%
%TO.N,unconnected-(U1-3V3-Pad46)*%
X158740000Y-71420000D03*
%TO.P,U1,47,GND*%
%TO.N,GLV-*%
X158740000Y-68880000D03*
%TO.P,U1,48,VIN*%
%TO.N,+5V*%
X158740000Y-66340000D03*
%TD*%
D10*
%TO.P,J4,1,Pin_1*%
%TO.N,lin_pot_4*%
X178050000Y-99100000D03*
D11*
%TO.P,J4,2,Pin_2*%
%TO.N,lin_pot_3*%
X178050000Y-94900000D03*
%TO.P,J4,3,Pin_3*%
%TO.N,lin_pot_2*%
X183550000Y-99100000D03*
%TO.P,J4,4,Pin_4*%
%TO.N,lin_pot_1*%
X183550000Y-94900000D03*
%TD*%
D16*
%TO.P,J5,1,Pin_1*%
%TO.N,rtm_sound*%
X169750000Y-124500000D03*
D13*
%TO.P,J5,2,Pin_2*%
%TO.N,unconnected-(J5-Pin_2-Pad2)*%
X169750000Y-130000000D03*
%TD*%
D17*
%TO.P,J1,1,Pin_1*%
%TO.N,ready_to_drive_button*%
X119240000Y-121500000D03*
D11*
%TO.P,J1,2,Pin_2*%
%TO.N,brake_light*%
X113740000Y-121500000D03*
%TD*%
D17*
%TO.P,J7,1,Pin_1*%
%TO.N,PWM_in_1*%
X119800000Y-77450000D03*
D11*
%TO.P,J7,2,Pin_2*%
%TO.N,PWM_in_2*%
X114300000Y-77450000D03*
%TD*%
D10*
%TO.P,J6,1,Pin_1*%
%TO.N,Vin*%
X178000000Y-81000000D03*
D11*
%TO.P,J6,2,Pin_2*%
%TO.N,GLV-*%
X183500000Y-81000000D03*
%TD*%
D17*
%TO.P,J9,1,Pin_1*%
%TO.N,CANL_1*%
X119750000Y-91650000D03*
D11*
%TO.P,J9,2,Pin_2*%
%TO.N,CANH_1*%
X114250000Y-91650000D03*
%TD*%
D17*
%TO.P,J3,1,Pin_1*%
%TO.N,CANL_2*%
X119700000Y-106500000D03*
D11*
%TO.P,J3,2,Pin_2*%
%TO.N,CANH_2*%
X114200000Y-106500000D03*
%TD*%
D18*
%TO.P,Q1,1,G*%
%TO.N,Net-(Q1-G)*%
X135040000Y-113255000D03*
D19*
%TO.P,Q1,2,D*%
%TO.N,brake_light*%
X132500000Y-113255000D03*
%TO.P,Q1,3,S*%
%TO.N,GLV-*%
X129960000Y-113255000D03*
%TD*%
D16*
%TO.P,J2,1,Pin_1*%
%TO.N,i2c_SCL*%
X132950000Y-124450000D03*
D13*
%TO.P,J2,2,Pin_2*%
%TO.N,i2c_SDA*%
X132950000Y-129950000D03*
%TD*%
D20*
%TO.N,GLV-*%
X164175000Y-79000000D03*
X131000000Y-91000000D03*
X165300000Y-66732500D03*
X130150000Y-119737500D03*
X130900000Y-106900000D03*
X164200000Y-97850000D03*
X139100000Y-104100000D03*
X164200000Y-100800000D03*
X164187500Y-94350000D03*
X139200000Y-96100000D03*
X137050000Y-68750000D03*
X123500000Y-103000000D03*
X164175000Y-76000000D03*
X136350000Y-103440000D03*
X164175000Y-88150000D03*
X137050000Y-72000000D03*
X164187500Y-91200000D03*
X136400000Y-95440000D03*
X137750000Y-77250000D03*
X164187500Y-85000000D03*
X123500000Y-95000000D03*
X164175000Y-81950000D03*
%TO.N,Net-(U1-3_LRCLK2)*%
X134600000Y-87100000D03*
%TO.N,Net-(Q1-G)*%
X138000000Y-108000000D03*
%TO.N,speaker_pwm*%
X139400000Y-82300000D03*
%TO.N,Net-(U1-2_OUT2)*%
X134600000Y-83700000D03*
%TO.N,speaker+*%
X136775002Y-74250000D03*
%TD*%
D21*
%TO.N,GLV-*%
X164187500Y-82700000D02*
X164187500Y-81962500D01*
X158740000Y-68880000D02*
X164175000Y-74315000D01*
X164187500Y-91200000D02*
X164187500Y-88500000D01*
X164187500Y-88500000D02*
X164187500Y-85000000D01*
X164200000Y-100800000D02*
X164200000Y-97850000D01*
X164187500Y-88162500D02*
X164175000Y-88150000D01*
X164187500Y-81962500D02*
X164175000Y-81950000D01*
X164187500Y-88500000D02*
X164187500Y-88162500D01*
X164187500Y-82700000D02*
X164187500Y-79012500D01*
X164187500Y-79012500D02*
X164175000Y-79000000D01*
X160887500Y-66732500D02*
X165300000Y-66732500D01*
X158740000Y-68880000D02*
X160887500Y-66732500D01*
X164175000Y-74315000D02*
X164175000Y-76000000D01*
X164200000Y-97850000D02*
X164200000Y-94362500D01*
X164187500Y-85000000D02*
X164187500Y-82700000D01*
X164175000Y-79000000D02*
X164175000Y-76000000D01*
X164200000Y-94362500D02*
X164187500Y-94350000D01*
X164187500Y-94350000D02*
X164187500Y-91200000D01*
%TO.N,Net-(U1-3_LRCLK2)*%
X138000000Y-85000000D02*
X137500000Y-85500000D01*
X136200000Y-85500000D02*
X134600000Y-87100000D01*
X143500000Y-76500000D02*
X138000000Y-82000000D01*
X137500000Y-85500000D02*
X136200000Y-85500000D01*
X138000000Y-82000000D02*
X138000000Y-85000000D01*
D22*
%TO.N,i2c_SCL*%
X135550000Y-124450000D02*
X140000000Y-120000000D01*
X140000000Y-108000000D02*
X141000000Y-107000000D01*
X132950000Y-124450000D02*
X135550000Y-124450000D01*
X141000000Y-106940000D02*
X143500000Y-104440000D01*
X141000000Y-107000000D02*
X141000000Y-106940000D01*
X140000000Y-120000000D02*
X140000000Y-108000000D01*
%TO.N,i2c_SDA*%
X141000000Y-121900000D02*
X141000000Y-109480000D01*
X141000000Y-109480000D02*
X143500000Y-106980000D01*
X132950000Y-129950000D02*
X141000000Y-121900000D01*
D21*
%TO.N,Net-(Q1-G)*%
X138000000Y-108000000D02*
X142800000Y-103200000D01*
X142800000Y-103200000D02*
X144483424Y-103200000D01*
X145000000Y-93240000D02*
X143500000Y-91740000D01*
X144483424Y-103200000D02*
X145000000Y-102683424D01*
X145000000Y-102683424D02*
X145000000Y-93240000D01*
D22*
%TO.N,speaker_pwm*%
X139400000Y-82300000D02*
X140000000Y-82900000D01*
X140000000Y-90780000D02*
X143500000Y-94280000D01*
X140000000Y-82900000D02*
X140000000Y-90780000D01*
D21*
%TO.N,Net-(U1-2_OUT2)*%
X143500000Y-73960000D02*
X134600000Y-82860000D01*
X134600000Y-82860000D02*
X134600000Y-83700000D01*
D22*
%TO.N,speaker+*%
X129450000Y-72600000D02*
X135125002Y-72600000D01*
X135125002Y-72600000D02*
X136775002Y-74250000D01*
%TD*%
%TA.AperFunction,Conductor*%
%TO.N,GLV-*%
G36*
X183924717Y-62500287D02*
G01*
X183927896Y-62500500D01*
X183934108Y-62500500D01*
X183997299Y-62500500D01*
X184002707Y-62500617D01*
X184386771Y-62517386D01*
X184397506Y-62518326D01*
X184775971Y-62568152D01*
X184786597Y-62570025D01*
X185159284Y-62652648D01*
X185169710Y-62655442D01*
X185533765Y-62770227D01*
X185543911Y-62773920D01*
X185896578Y-62920000D01*
X185906369Y-62924566D01*
X186244942Y-63100816D01*
X186254310Y-63106224D01*
X186576244Y-63311318D01*
X186585105Y-63317523D01*
X186887930Y-63549889D01*
X186896217Y-63556843D01*
X187177635Y-63814715D01*
X187185284Y-63822364D01*
X187443156Y-64103782D01*
X187450110Y-64112069D01*
X187682476Y-64414894D01*
X187688681Y-64423755D01*
X187893775Y-64745689D01*
X187899183Y-64755057D01*
X188075430Y-65093623D01*
X188080002Y-65103427D01*
X188226075Y-65456078D01*
X188229775Y-65466244D01*
X188344554Y-65830278D01*
X188347354Y-65840727D01*
X188429971Y-66213389D01*
X188431849Y-66224042D01*
X188481671Y-66602473D01*
X188482614Y-66613249D01*
X188499382Y-66997297D01*
X188499500Y-67002706D01*
X188499500Y-131997293D01*
X188499382Y-132002702D01*
X188482614Y-132386750D01*
X188481671Y-132397526D01*
X188431849Y-132775957D01*
X188429971Y-132786610D01*
X188347354Y-133159272D01*
X188344554Y-133169721D01*
X188229775Y-133533755D01*
X188226075Y-133543921D01*
X188080002Y-133896572D01*
X188075430Y-133906376D01*
X187899183Y-134244942D01*
X187893775Y-134254310D01*
X187688681Y-134576244D01*
X187682476Y-134585105D01*
X187450110Y-134887930D01*
X187443156Y-134896217D01*
X187185284Y-135177635D01*
X187177635Y-135185284D01*
X186896217Y-135443156D01*
X186887930Y-135450110D01*
X186585105Y-135682476D01*
X186576244Y-135688681D01*
X186254310Y-135893775D01*
X186244942Y-135899183D01*
X185906376Y-136075430D01*
X185896572Y-136080002D01*
X185543921Y-136226075D01*
X185533755Y-136229775D01*
X185169721Y-136344554D01*
X185159272Y-136347354D01*
X184786610Y-136429971D01*
X184775957Y-136431849D01*
X184397527Y-136481671D01*
X184386751Y-136482614D01*
X184002797Y-136499377D01*
X183997211Y-136499495D01*
X114074601Y-136399604D01*
X114073010Y-136399500D01*
X114065892Y-136399500D01*
X114002707Y-136399500D01*
X113997298Y-136399382D01*
X113613249Y-136382614D01*
X113602473Y-136381671D01*
X113224042Y-136331849D01*
X113213389Y-136329971D01*
X112840727Y-136247354D01*
X112830278Y-136244554D01*
X112466244Y-136129775D01*
X112456078Y-136126075D01*
X112103427Y-135980002D01*
X112093623Y-135975430D01*
X111755057Y-135799183D01*
X111745689Y-135793775D01*
X111423755Y-135588681D01*
X111414894Y-135582476D01*
X111112069Y-135350110D01*
X111103782Y-135343156D01*
X110822364Y-135085284D01*
X110814715Y-135077635D01*
X110556843Y-134796217D01*
X110549889Y-134787930D01*
X110317523Y-134485105D01*
X110311318Y-134476244D01*
X110106224Y-134154310D01*
X110100816Y-134144942D01*
X109973924Y-133901185D01*
X109924566Y-133806369D01*
X109919997Y-133796572D01*
X109903213Y-133756052D01*
X109773920Y-133443911D01*
X109770224Y-133433755D01*
X109655442Y-133069710D01*
X109652648Y-133059284D01*
X109570025Y-132686597D01*
X109568152Y-132675971D01*
X109518326Y-132297506D01*
X109517386Y-132286770D01*
X109500618Y-131902724D01*
X109500500Y-131897315D01*
X109500500Y-131827024D01*
X109500386Y-131825306D01*
X109500314Y-131778711D01*
X112149500Y-131778711D01*
X112149500Y-132021288D01*
X112181161Y-132261785D01*
X112243947Y-132496104D01*
X112336773Y-132720205D01*
X112336776Y-132720212D01*
X112458064Y-132930289D01*
X112458066Y-132930292D01*
X112458067Y-132930293D01*
X112605733Y-133122736D01*
X112605739Y-133122743D01*
X112777256Y-133294260D01*
X112777262Y-133294265D01*
X112969711Y-133441936D01*
X113179788Y-133563224D01*
X113403900Y-133656054D01*
X113638211Y-133718838D01*
X113818586Y-133742584D01*
X113878711Y-133750500D01*
X113878712Y-133750500D01*
X114121289Y-133750500D01*
X114169388Y-133744167D01*
X114361789Y-133718838D01*
X114596100Y-133656054D01*
X114820212Y-133563224D01*
X115030289Y-133441936D01*
X115222738Y-133294265D01*
X115394265Y-133122738D01*
X115541936Y-132930289D01*
X115663224Y-132720212D01*
X115756054Y-132496100D01*
X115818838Y-132261789D01*
X115850500Y-132021288D01*
X115850500Y-131778712D01*
X115818838Y-131538211D01*
X115756054Y-131303900D01*
X115663224Y-131079788D01*
X115541936Y-130869711D01*
X115409157Y-130696670D01*
X115394266Y-130677263D01*
X115394260Y-130677256D01*
X115222743Y-130505739D01*
X115222736Y-130505733D01*
X115030293Y-130358067D01*
X115030292Y-130358066D01*
X115030289Y-130358064D01*
X114820212Y-130236776D01*
X114820205Y-130236773D01*
X114596104Y-130143947D01*
X114361785Y-130081161D01*
X114121289Y-130049500D01*
X114121288Y-130049500D01*
X113878712Y-130049500D01*
X113878711Y-130049500D01*
X113638214Y-130081161D01*
X113403895Y-130143947D01*
X113179794Y-130236773D01*
X113179785Y-130236777D01*
X112969706Y-130358067D01*
X112777263Y-130505733D01*
X112777256Y-130505739D01*
X112605739Y-130677256D01*
X112605733Y-130677263D01*
X112458067Y-130869706D01*
X112336777Y-131079785D01*
X112336773Y-131079794D01*
X112243947Y-131303895D01*
X112181161Y-131538214D01*
X112149500Y-131778711D01*
X109500314Y-131778711D01*
X109499585Y-131303895D01*
X109496623Y-129375258D01*
X126499500Y-129375258D01*
X126499500Y-129604741D01*
X126524446Y-129794215D01*
X126529452Y-129832238D01*
X126542850Y-129882240D01*
X126588842Y-130053887D01*
X126676650Y-130265876D01*
X126676657Y-130265890D01*
X126791392Y-130464617D01*
X126931081Y-130646661D01*
X126931089Y-130646670D01*
X127093330Y-130808911D01*
X127093338Y-130808918D01*
X127275382Y-130948607D01*
X127275385Y-130948608D01*
X127275388Y-130948611D01*
X127474112Y-131063344D01*
X127474117Y-131063346D01*
X127474123Y-131063349D01*
X127565480Y-131101190D01*
X127686113Y-131151158D01*
X127907762Y-131210548D01*
X128135266Y-131240500D01*
X128135273Y-131240500D01*
X128364727Y-131240500D01*
X128364734Y-131240500D01*
X128592238Y-131210548D01*
X128813887Y-131151158D01*
X129025888Y-131063344D01*
X129224612Y-130948611D01*
X129406661Y-130808919D01*
X129406665Y-130808914D01*
X129406670Y-130808911D01*
X129568911Y-130646670D01*
X129568914Y-130646665D01*
X129568919Y-130646661D01*
X129708611Y-130464612D01*
X129823344Y-130265888D01*
X129911158Y-130053887D01*
X129970548Y-129832238D01*
X130000500Y-129604734D01*
X130000500Y-129375266D01*
X129970548Y-129147762D01*
X129911158Y-128926113D01*
X129861190Y-128805480D01*
X129823349Y-128714123D01*
X129823346Y-128714117D01*
X129823344Y-128714112D01*
X129708611Y-128515388D01*
X129708608Y-128515385D01*
X129708607Y-128515382D01*
X129568918Y-128333338D01*
X129568911Y-128333330D01*
X129406670Y-128171089D01*
X129406661Y-128171081D01*
X129224617Y-128031392D01*
X129221589Y-128029644D01*
X129025888Y-127916656D01*
X129025876Y-127916650D01*
X128813887Y-127828842D01*
X128778846Y-127819453D01*
X128592238Y-127769452D01*
X128554215Y-127764446D01*
X128364741Y-127739500D01*
X128364734Y-127739500D01*
X128135266Y-127739500D01*
X128135258Y-127739500D01*
X127918715Y-127768009D01*
X127907762Y-127769452D01*
X127832941Y-127789500D01*
X127686112Y-127828842D01*
X127474123Y-127916650D01*
X127474109Y-127916657D01*
X127275382Y-128031392D01*
X127093338Y-128171081D01*
X126931081Y-128333338D01*
X126791392Y-128515382D01*
X126676657Y-128714109D01*
X126676650Y-128714123D01*
X126588842Y-128926112D01*
X126529453Y-129147759D01*
X126529451Y-129147770D01*
X126499500Y-129375258D01*
X109496623Y-129375258D01*
X109491569Y-126085258D01*
X112449500Y-126085258D01*
X112449500Y-126314741D01*
X112472932Y-126492713D01*
X112479452Y-126542238D01*
X112538842Y-126763887D01*
X112626650Y-126975876D01*
X112626657Y-126975890D01*
X112741392Y-127174617D01*
X112881081Y-127356661D01*
X112881089Y-127356670D01*
X113043330Y-127518911D01*
X113043338Y-127518918D01*
X113225382Y-127658607D01*
X113225385Y-127658608D01*
X113225388Y-127658611D01*
X113424112Y-127773344D01*
X113424117Y-127773346D01*
X113424123Y-127773349D01*
X113487258Y-127799500D01*
X113636113Y-127861158D01*
X113857762Y-127920548D01*
X114085266Y-127950500D01*
X114085273Y-127950500D01*
X114314727Y-127950500D01*
X114314734Y-127950500D01*
X114542238Y-127920548D01*
X114763887Y-127861158D01*
X114975888Y-127773344D01*
X115174612Y-127658611D01*
X115356661Y-127518919D01*
X115356665Y-127518914D01*
X115356670Y-127518911D01*
X115518911Y-127356670D01*
X115518914Y-127356665D01*
X115518919Y-127356661D01*
X115658611Y-127174612D01*
X115773344Y-126975888D01*
X115861158Y-126763887D01*
X115920548Y-126542238D01*
X115950500Y-126314734D01*
X115950500Y-126085266D01*
X115920548Y-125857762D01*
X115861158Y-125636113D01*
X115773344Y-125424112D01*
X115658611Y-125225388D01*
X115658608Y-125225385D01*
X115658607Y-125225382D01*
X115518918Y-125043338D01*
X115518911Y-125043330D01*
X115356670Y-124881089D01*
X115356661Y-124881081D01*
X115174617Y-124741392D01*
X114975890Y-124626657D01*
X114975876Y-124626650D01*
X114763887Y-124538842D01*
X114542238Y-124479452D01*
X114504215Y-124474446D01*
X114314741Y-124449500D01*
X114314734Y-124449500D01*
X114085266Y-124449500D01*
X114085258Y-124449500D01*
X113868715Y-124478009D01*
X113857762Y-124479452D01*
X113764076Y-124504554D01*
X113636112Y-124538842D01*
X113424123Y-124626650D01*
X113424109Y-124626657D01*
X113225382Y-124741392D01*
X113043338Y-124881081D01*
X112881081Y-125043338D01*
X112741392Y-125225382D01*
X112626657Y-125424109D01*
X112626650Y-125424123D01*
X112538842Y-125636112D01*
X112538842Y-125636113D01*
X112482472Y-125846493D01*
X112479453Y-125857759D01*
X112479451Y-125857770D01*
X112449500Y-126085258D01*
X109491569Y-126085258D01*
X109484339Y-121378711D01*
X111589500Y-121378711D01*
X111589500Y-121621288D01*
X111621161Y-121861785D01*
X111683947Y-122096104D01*
X111774480Y-122314669D01*
X111776776Y-122320212D01*
X111898064Y-122530289D01*
X111898066Y-122530292D01*
X111898067Y-122530293D01*
X112045733Y-122722736D01*
X112045739Y-122722743D01*
X112217256Y-122894260D01*
X112217263Y-122894266D01*
X112330321Y-122981018D01*
X112409711Y-123041936D01*
X112619788Y-123163224D01*
X112843900Y-123256054D01*
X113078211Y-123318838D01*
X113238940Y-123339998D01*
X113318711Y-123350500D01*
X113318712Y-123350500D01*
X114161289Y-123350500D01*
X114241052Y-123339999D01*
X114401789Y-123318838D01*
X114636100Y-123256054D01*
X114860212Y-123163224D01*
X115070289Y-123041936D01*
X115262738Y-122894265D01*
X115434265Y-122722738D01*
X115581936Y-122530289D01*
X115703224Y-122320212D01*
X115796054Y-122096100D01*
X115858838Y-121861789D01*
X115890500Y-121621288D01*
X115890500Y-121378712D01*
X115858838Y-121138211D01*
X115796054Y-120903900D01*
X115703224Y-120679788D01*
X115581936Y-120469711D01*
X115490073Y-120349992D01*
X115490067Y-120349984D01*
X117089500Y-120349984D01*
X117089500Y-122650015D01*
X117100000Y-122752795D01*
X117100001Y-122752797D01*
X117113071Y-122792240D01*
X117155186Y-122919335D01*
X117155187Y-122919337D01*
X117247286Y-123068651D01*
X117247289Y-123068655D01*
X117371344Y-123192710D01*
X117371348Y-123192713D01*
X117520662Y-123284812D01*
X117520664Y-123284813D01*
X117520666Y-123284814D01*
X117687203Y-123339999D01*
X117789992Y-123350500D01*
X117789997Y-123350500D01*
X120690003Y-123350500D01*
X120690008Y-123350500D01*
X120792797Y-123339999D01*
X120959334Y-123284814D01*
X121108655Y-123192711D01*
X121232711Y-123068655D01*
X121275068Y-122999984D01*
X131099500Y-122999984D01*
X131099500Y-125900015D01*
X131110000Y-126002795D01*
X131110001Y-126002797D01*
X131137326Y-126085258D01*
X131165186Y-126169335D01*
X131165187Y-126169337D01*
X131257286Y-126318651D01*
X131257289Y-126318655D01*
X131381344Y-126442710D01*
X131381348Y-126442713D01*
X131530662Y-126534812D01*
X131530664Y-126534813D01*
X131530666Y-126534814D01*
X131697203Y-126589999D01*
X131799992Y-126600500D01*
X131799997Y-126600500D01*
X134100003Y-126600500D01*
X134100008Y-126600500D01*
X134202797Y-126589999D01*
X134369334Y-126534814D01*
X134518655Y-126442711D01*
X134642711Y-126318655D01*
X134734814Y-126169334D01*
X134789999Y-126002797D01*
X134800500Y-125900008D01*
X134800500Y-125224500D01*
X134820185Y-125157461D01*
X134872989Y-125111706D01*
X134924500Y-125100500D01*
X135614071Y-125100500D01*
X135698615Y-125083682D01*
X135739744Y-125075501D01*
X135858127Y-125026465D01*
X135964669Y-124955277D01*
X140137819Y-120782127D01*
X140199142Y-120748642D01*
X140268834Y-120753626D01*
X140324767Y-120795498D01*
X140349184Y-120860962D01*
X140349500Y-120869808D01*
X140349500Y-121579191D01*
X140329815Y-121646230D01*
X140313181Y-121666872D01*
X133978909Y-128001143D01*
X133917586Y-128034628D01*
X133847894Y-128029644D01*
X133829231Y-128020850D01*
X133770212Y-127986776D01*
X133770205Y-127986773D01*
X133546104Y-127893947D01*
X133311785Y-127831161D01*
X133071289Y-127799500D01*
X133071288Y-127799500D01*
X132828712Y-127799500D01*
X132828711Y-127799500D01*
X132588214Y-127831161D01*
X132353895Y-127893947D01*
X132129794Y-127986773D01*
X132129785Y-127986777D01*
X131919706Y-128108067D01*
X131727263Y-128255733D01*
X131727256Y-128255739D01*
X131555739Y-128427256D01*
X131555733Y-128427263D01*
X131408067Y-128619706D01*
X131286777Y-128829785D01*
X131286773Y-128829794D01*
X131193947Y-129053895D01*
X131131161Y-129288214D01*
X131099500Y-129528711D01*
X131099500Y-130371288D01*
X131131161Y-130611785D01*
X131193947Y-130846104D01*
X131236407Y-130948611D01*
X131286776Y-131070212D01*
X131408064Y-131280289D01*
X131408066Y-131280292D01*
X131408067Y-131280293D01*
X131555733Y-131472736D01*
X131555739Y-131472743D01*
X131727256Y-131644260D01*
X131727262Y-131644265D01*
X131919711Y-131791936D01*
X132129788Y-131913224D01*
X132250499Y-131963224D01*
X132345807Y-132002702D01*
X132353900Y-132006054D01*
X132588211Y-132068838D01*
X132768586Y-132092584D01*
X132828711Y-132100500D01*
X132828712Y-132100500D01*
X133071289Y-132100500D01*
X133119388Y-132094167D01*
X133311789Y-132068838D01*
X133546100Y-132006054D01*
X133770212Y-131913224D01*
X133980289Y-131791936D01*
X134172738Y-131644265D01*
X134344265Y-131472738D01*
X134491936Y-131280289D01*
X134613224Y-131070212D01*
X134706054Y-130846100D01*
X134768838Y-130611789D01*
X134800500Y-130371288D01*
X134800500Y-129528712D01*
X134780298Y-129375258D01*
X135899500Y-129375258D01*
X135899500Y-129604741D01*
X135924446Y-129794215D01*
X135929452Y-129832238D01*
X135942850Y-129882240D01*
X135988842Y-130053887D01*
X136076650Y-130265876D01*
X136076657Y-130265890D01*
X136191392Y-130464617D01*
X136331081Y-130646661D01*
X136331089Y-130646670D01*
X136493330Y-130808911D01*
X136493338Y-130808918D01*
X136675382Y-130948607D01*
X136675385Y-130948608D01*
X136675388Y-130948611D01*
X136874112Y-131063344D01*
X136874117Y-131063346D01*
X136874123Y-131063349D01*
X136965480Y-131101190D01*
X137086113Y-131151158D01*
X137307762Y-131210548D01*
X137535266Y-131240500D01*
X137535273Y-131240500D01*
X137764727Y-131240500D01*
X137764734Y-131240500D01*
X137992238Y-131210548D01*
X138213887Y-131151158D01*
X138425888Y-131063344D01*
X138624612Y-130948611D01*
X138806661Y-130808919D01*
X138806665Y-130808914D01*
X138806670Y-130808911D01*
X138968911Y-130646670D01*
X138968914Y-130646665D01*
X138968919Y-130646661D01*
X139108611Y-130464612D01*
X139223344Y-130265888D01*
X139311158Y-130053887D01*
X139370548Y-129832238D01*
X139400500Y-129604734D01*
X139400500Y-129425258D01*
X163299500Y-129425258D01*
X163299500Y-129654741D01*
X163324446Y-129844215D01*
X163329452Y-129882238D01*
X163329453Y-129882240D01*
X163388842Y-130103887D01*
X163476650Y-130315876D01*
X163476656Y-130315888D01*
X163562524Y-130464617D01*
X163591392Y-130514617D01*
X163731081Y-130696661D01*
X163731089Y-130696670D01*
X163893330Y-130858911D01*
X163893338Y-130858918D01*
X163893339Y-130858919D01*
X163941794Y-130896100D01*
X164075382Y-130998607D01*
X164075385Y-130998608D01*
X164075388Y-130998611D01*
X164274112Y-131113344D01*
X164274117Y-131113346D01*
X164274123Y-131113349D01*
X164365400Y-131151157D01*
X164486113Y-131201158D01*
X164707762Y-131260548D01*
X164935266Y-131290500D01*
X164935273Y-131290500D01*
X165164727Y-131290500D01*
X165164734Y-131290500D01*
X165392238Y-131260548D01*
X165613887Y-131201158D01*
X165825888Y-131113344D01*
X166024612Y-130998611D01*
X166206661Y-130858919D01*
X166206665Y-130858914D01*
X166206670Y-130858911D01*
X166368911Y-130696670D01*
X166368914Y-130696665D01*
X166368919Y-130696661D01*
X166508611Y-130514612D01*
X166623344Y-130315888D01*
X166711158Y-130103887D01*
X166770548Y-129882238D01*
X166800500Y-129654734D01*
X166800500Y-129578711D01*
X167899500Y-129578711D01*
X167899500Y-130421288D01*
X167931161Y-130661785D01*
X167993947Y-130896104D01*
X168070032Y-131079788D01*
X168086776Y-131120212D01*
X168208064Y-131330289D01*
X168208066Y-131330292D01*
X168208067Y-131330293D01*
X168355733Y-131522736D01*
X168355739Y-131522743D01*
X168527256Y-131694260D01*
X168527262Y-131694265D01*
X168719711Y-131841936D01*
X168929788Y-131963224D01*
X169153900Y-132056054D01*
X169388211Y-132118838D01*
X169568586Y-132142584D01*
X169628711Y-132150500D01*
X169628712Y-132150500D01*
X169871289Y-132150500D01*
X169919388Y-132144167D01*
X170111789Y-132118838D01*
X170346100Y-132056054D01*
X170570212Y-131963224D01*
X170716593Y-131878711D01*
X182149500Y-131878711D01*
X182149500Y-132121288D01*
X182181161Y-132361785D01*
X182243947Y-132596104D01*
X182336773Y-132820205D01*
X182336776Y-132820212D01*
X182458064Y-133030289D01*
X182458066Y-133030292D01*
X182458067Y-133030293D01*
X182605733Y-133222736D01*
X182605739Y-133222743D01*
X182777256Y-133394260D01*
X182777262Y-133394265D01*
X182969711Y-133541936D01*
X183179788Y-133663224D01*
X183403900Y-133756054D01*
X183638211Y-133818838D01*
X183818586Y-133842584D01*
X183878711Y-133850500D01*
X183878712Y-133850500D01*
X184121289Y-133850500D01*
X184169388Y-133844167D01*
X184361789Y-133818838D01*
X184596100Y-133756054D01*
X184820212Y-133663224D01*
X185030289Y-133541936D01*
X185222738Y-133394265D01*
X185394265Y-133222738D01*
X185541936Y-133030289D01*
X185663224Y-132820212D01*
X185756054Y-132596100D01*
X185818838Y-132361789D01*
X185850500Y-132121288D01*
X185850500Y-131878712D01*
X185818838Y-131638211D01*
X185756054Y-131403900D01*
X185663224Y-131179788D01*
X185541936Y-130969711D01*
X185481018Y-130890321D01*
X185394266Y-130777263D01*
X185394260Y-130777256D01*
X185222743Y-130605739D01*
X185222736Y-130605733D01*
X185030293Y-130458067D01*
X185030292Y-130458066D01*
X185030289Y-130458064D01*
X184820212Y-130336776D01*
X184769755Y-130315876D01*
X184596104Y-130243947D01*
X184361785Y-130181161D01*
X184121289Y-130149500D01*
X184121288Y-130149500D01*
X183878712Y-130149500D01*
X183878711Y-130149500D01*
X183638214Y-130181161D01*
X183403895Y-130243947D01*
X183179794Y-130336773D01*
X183179785Y-130336777D01*
X182969706Y-130458067D01*
X182777263Y-130605733D01*
X182777256Y-130605739D01*
X182605739Y-130777256D01*
X182605733Y-130777263D01*
X182458067Y-130969706D01*
X182336777Y-131179785D01*
X182336773Y-131179794D01*
X182243947Y-131403895D01*
X182181161Y-131638214D01*
X182149500Y-131878711D01*
X170716593Y-131878711D01*
X170780289Y-131841936D01*
X170972738Y-131694265D01*
X171144265Y-131522738D01*
X171291936Y-131330289D01*
X171413224Y-131120212D01*
X171506054Y-130896100D01*
X171568838Y-130661789D01*
X171600500Y-130421288D01*
X171600500Y-129578712D01*
X171593917Y-129528712D01*
X171592584Y-129518586D01*
X171580298Y-129425258D01*
X172699500Y-129425258D01*
X172699500Y-129654741D01*
X172724446Y-129844215D01*
X172729452Y-129882238D01*
X172729453Y-129882240D01*
X172788842Y-130103887D01*
X172876650Y-130315876D01*
X172876656Y-130315888D01*
X172962524Y-130464617D01*
X172991392Y-130514617D01*
X173131081Y-130696661D01*
X173131089Y-130696670D01*
X173293330Y-130858911D01*
X173293338Y-130858918D01*
X173293339Y-130858919D01*
X173341794Y-130896100D01*
X173475382Y-130998607D01*
X173475385Y-130998608D01*
X173475388Y-130998611D01*
X173674112Y-131113344D01*
X173674117Y-131113346D01*
X173674123Y-131113349D01*
X173765400Y-131151157D01*
X173886113Y-131201158D01*
X174107762Y-131260548D01*
X174335266Y-131290500D01*
X174335273Y-131290500D01*
X174564727Y-131290500D01*
X174564734Y-131290500D01*
X174792238Y-131260548D01*
X175013887Y-131201158D01*
X175225888Y-131113344D01*
X175424612Y-130998611D01*
X175606661Y-130858919D01*
X175606665Y-130858914D01*
X175606670Y-130858911D01*
X175768911Y-130696670D01*
X175768914Y-130696665D01*
X175768919Y-130696661D01*
X175908611Y-130514612D01*
X176023344Y-130315888D01*
X176111158Y-130103887D01*
X176170548Y-129882238D01*
X176200500Y-129654734D01*
X176200500Y-129425266D01*
X176170548Y-129197762D01*
X176111158Y-128976113D01*
X176061190Y-128855480D01*
X176023349Y-128764123D01*
X176023346Y-128764117D01*
X176023344Y-128764112D01*
X175908611Y-128565388D01*
X175908608Y-128565385D01*
X175908607Y-128565382D01*
X175802623Y-128427263D01*
X175768919Y-128383339D01*
X175768918Y-128383338D01*
X175768911Y-128383330D01*
X175606670Y-128221089D01*
X175606661Y-128221081D01*
X175424617Y-128081392D01*
X175347341Y-128036777D01*
X175319753Y-128020849D01*
X175225890Y-127966657D01*
X175225876Y-127966650D01*
X175013887Y-127878842D01*
X174792238Y-127819452D01*
X174754215Y-127814446D01*
X174564741Y-127789500D01*
X174564734Y-127789500D01*
X174335266Y-127789500D01*
X174335258Y-127789500D01*
X174118715Y-127818009D01*
X174107762Y-127819452D01*
X174014076Y-127844554D01*
X173886112Y-127878842D01*
X173674123Y-127966650D01*
X173674109Y-127966657D01*
X173475382Y-128081392D01*
X173293338Y-128221081D01*
X173131081Y-128383338D01*
X172991392Y-128565382D01*
X172876657Y-128764109D01*
X172876650Y-128764123D01*
X172788842Y-128976112D01*
X172729453Y-129197759D01*
X172729451Y-129197770D01*
X172699500Y-129425258D01*
X171580298Y-129425258D01*
X171568838Y-129338211D01*
X171506054Y-129103900D01*
X171504651Y-129100514D01*
X171453123Y-128976113D01*
X171413224Y-128879788D01*
X171291936Y-128669711D01*
X171173520Y-128515388D01*
X171144266Y-128477263D01*
X171144260Y-128477256D01*
X170972743Y-128305739D01*
X170972736Y-128305733D01*
X170780293Y-128158067D01*
X170780292Y-128158066D01*
X170780289Y-128158064D01*
X170570212Y-128036776D01*
X170570205Y-128036773D01*
X170346104Y-127943947D01*
X170111785Y-127881161D01*
X169871289Y-127849500D01*
X169871288Y-127849500D01*
X169628712Y-127849500D01*
X169628711Y-127849500D01*
X169388214Y-127881161D01*
X169153895Y-127943947D01*
X168929794Y-128036773D01*
X168929785Y-128036777D01*
X168719706Y-128158067D01*
X168527263Y-128305733D01*
X168527256Y-128305739D01*
X168355739Y-128477256D01*
X168355733Y-128477263D01*
X168208067Y-128669706D01*
X168086777Y-128879785D01*
X168086773Y-128879794D01*
X167993947Y-129103895D01*
X167931161Y-129338214D01*
X167899500Y-129578711D01*
X166800500Y-129578711D01*
X166800500Y-129425266D01*
X166770548Y-129197762D01*
X166711158Y-128976113D01*
X166661190Y-128855480D01*
X166623349Y-128764123D01*
X166623346Y-128764117D01*
X166623344Y-128764112D01*
X166508611Y-128565388D01*
X166508608Y-128565385D01*
X166508607Y-128565382D01*
X166402623Y-128427263D01*
X166368919Y-128383339D01*
X166368918Y-128383338D01*
X166368911Y-128383330D01*
X166206670Y-128221089D01*
X166206661Y-128221081D01*
X166024617Y-128081392D01*
X165947341Y-128036777D01*
X165919753Y-128020849D01*
X165825890Y-127966657D01*
X165825876Y-127966650D01*
X165613887Y-127878842D01*
X165392238Y-127819452D01*
X165354215Y-127814446D01*
X165164741Y-127789500D01*
X165164734Y-127789500D01*
X164935266Y-127789500D01*
X164935258Y-127789500D01*
X164718715Y-127818009D01*
X164707762Y-127819452D01*
X164614076Y-127844554D01*
X164486112Y-127878842D01*
X164274123Y-127966650D01*
X164274109Y-127966657D01*
X164075382Y-128081392D01*
X163893338Y-128221081D01*
X163731081Y-128383338D01*
X163591392Y-128565382D01*
X163476657Y-128764109D01*
X163476650Y-128764123D01*
X163388842Y-128976112D01*
X163329453Y-129197759D01*
X163329451Y-129197770D01*
X163299500Y-129425258D01*
X139400500Y-129425258D01*
X139400500Y-129375266D01*
X139370548Y-129147762D01*
X139311158Y-128926113D01*
X139261190Y-128805480D01*
X139223349Y-128714123D01*
X139223346Y-128714117D01*
X139223344Y-128714112D01*
X139108611Y-128515388D01*
X139108608Y-128515385D01*
X139108607Y-128515382D01*
X138968918Y-128333338D01*
X138968911Y-128333330D01*
X138806670Y-128171089D01*
X138806661Y-128171081D01*
X138624617Y-128031392D01*
X138621589Y-128029644D01*
X138425888Y-127916656D01*
X138425876Y-127916650D01*
X138213887Y-127828842D01*
X138178846Y-127819453D01*
X137992238Y-127769452D01*
X137954215Y-127764446D01*
X137764741Y-127739500D01*
X137764734Y-127739500D01*
X137535266Y-127739500D01*
X137535258Y-127739500D01*
X137318715Y-127768009D01*
X137307762Y-127769452D01*
X137232941Y-127789500D01*
X137086112Y-127828842D01*
X136874123Y-127916650D01*
X136874109Y-127916657D01*
X136675382Y-128031392D01*
X136493338Y-128171081D01*
X136331081Y-128333338D01*
X136191392Y-128515382D01*
X136076657Y-128714109D01*
X136076650Y-128714123D01*
X135988842Y-128926112D01*
X135929453Y-129147759D01*
X135929451Y-129147770D01*
X135899500Y-129375258D01*
X134780298Y-129375258D01*
X134768838Y-129288211D01*
X134737260Y-129170362D01*
X134738923Y-129100514D01*
X134769352Y-129050591D01*
X141505276Y-122314669D01*
X141576465Y-122208127D01*
X141625501Y-122089744D01*
X141650500Y-121964069D01*
X141650500Y-109800807D01*
X141670185Y-109733768D01*
X141686815Y-109713130D01*
X142039565Y-109360379D01*
X142100888Y-109326895D01*
X142170580Y-109331879D01*
X142226513Y-109373751D01*
X142250930Y-109439215D01*
X142250774Y-109458868D01*
X142245426Y-109519997D01*
X142245426Y-109520000D01*
X142264485Y-109737849D01*
X142264487Y-109737859D01*
X142321083Y-109949082D01*
X142321085Y-109949086D01*
X142321086Y-109949090D01*
X142347932Y-110006661D01*
X142413506Y-110147286D01*
X142413507Y-110147287D01*
X142538941Y-110326425D01*
X142693575Y-110481059D01*
X142864153Y-110600499D01*
X142872713Y-110606493D01*
X143025241Y-110677618D01*
X143077680Y-110723790D01*
X143096832Y-110790984D01*
X143076616Y-110857865D01*
X143025241Y-110902382D01*
X142872713Y-110973506D01*
X142753201Y-111057190D01*
X142693575Y-111098941D01*
X142693573Y-111098942D01*
X142693570Y-111098945D01*
X142538945Y-111253570D01*
X142413506Y-111432713D01*
X142321087Y-111630908D01*
X142321083Y-111630917D01*
X142264487Y-111842140D01*
X142264485Y-111842150D01*
X142245426Y-112059999D01*
X142245426Y-112060000D01*
X142264485Y-112277849D01*
X142264487Y-112277859D01*
X142321083Y-112489082D01*
X142321085Y-112489086D01*
X142321086Y-112489090D01*
X142349855Y-112550785D01*
X142413506Y-112687286D01*
X142413507Y-112687287D01*
X142538941Y-112866425D01*
X142693575Y-113021059D01*
X142872713Y-113146493D01*
X142962177Y-113188211D01*
X143025241Y-113217618D01*
X143077680Y-113263790D01*
X143096832Y-113330984D01*
X143076616Y-113397865D01*
X143025241Y-113442382D01*
X142872713Y-113513506D01*
X142759602Y-113592708D01*
X142693575Y-113638941D01*
X142693573Y-113638942D01*
X142693570Y-113638945D01*
X142538945Y-113793570D01*
X142538942Y-113793573D01*
X142538941Y-113793575D01*
X142497190Y-113853201D01*
X142413506Y-113972713D01*
X142321087Y-114170908D01*
X142321083Y-114170917D01*
X142264487Y-114382140D01*
X142264485Y-114382150D01*
X142245426Y-114599999D01*
X142245426Y-114600000D01*
X142264485Y-114817849D01*
X142264487Y-114817859D01*
X142321083Y-115029082D01*
X142321085Y-115029086D01*
X142321086Y-115029090D01*
X142344571Y-115079453D01*
X142413506Y-115227286D01*
X142413507Y-115227287D01*
X142538941Y-115406425D01*
X142693575Y-115561059D01*
X142872712Y-115686492D01*
X142872713Y-115686493D01*
X143025241Y-115757618D01*
X143077680Y-115803790D01*
X143096832Y-115870984D01*
X143076616Y-115937865D01*
X143025241Y-115982382D01*
X142872713Y-116053506D01*
X142753201Y-116137190D01*
X142693575Y-116178941D01*
X142693573Y-116178942D01*
X142693570Y-116178945D01*
X142538945Y-116333570D01*
X142538942Y-116333573D01*
X142538941Y-116333575D01*
X142523422Y-116355739D01*
X142413506Y-116512713D01*
X142321087Y-116710908D01*
X142321083Y-116710917D01*
X142264487Y-116922140D01*
X142264485Y-116922150D01*
X142245426Y-117139999D01*
X142245426Y-117140000D01*
X142264485Y-117357849D01*
X142264487Y-117357859D01*
X142321083Y-117569082D01*
X142321085Y-117569086D01*
X142321086Y-117569090D01*
X142324256Y-117575888D01*
X142413506Y-117767286D01*
X142438593Y-117803114D01*
X142538941Y-117946425D01*
X142693575Y-118101059D01*
X142872712Y-118226492D01*
X142872713Y-118226493D01*
X143025241Y-118297618D01*
X143077680Y-118343790D01*
X143096832Y-118410984D01*
X143076616Y-118477865D01*
X143025241Y-118522382D01*
X142872713Y-118593506D01*
X142753201Y-118677190D01*
X142693575Y-118718941D01*
X142693573Y-118718942D01*
X142693570Y-118718945D01*
X142538945Y-118873570D01*
X142538942Y-118873573D01*
X142538941Y-118873575D01*
X142497190Y-118933201D01*
X142413506Y-119052713D01*
X142321087Y-119250908D01*
X142321083Y-119250917D01*
X142264487Y-119462140D01*
X142264485Y-119462150D01*
X142245426Y-119679999D01*
X142245426Y-119680000D01*
X142264485Y-119897849D01*
X142264487Y-119897859D01*
X142321083Y-120109082D01*
X142321085Y-120109086D01*
X142321086Y-120109090D01*
X142367296Y-120208188D01*
X142413506Y-120307286D01*
X142413507Y-120307287D01*
X142538941Y-120486425D01*
X142693575Y-120641059D01*
X142872713Y-120766493D01*
X142920640Y-120788842D01*
X143025241Y-120837618D01*
X143077680Y-120883790D01*
X143096832Y-120950984D01*
X143076616Y-121017865D01*
X143025241Y-121062382D01*
X142872713Y-121133506D01*
X142753201Y-121217190D01*
X142693575Y-121258941D01*
X142693573Y-121258942D01*
X142693570Y-121258945D01*
X142538945Y-121413570D01*
X142413506Y-121592713D01*
X142321087Y-121790908D01*
X142321083Y-121790917D01*
X142264487Y-122002140D01*
X142264485Y-122002150D01*
X142245426Y-122219999D01*
X142245426Y-122220000D01*
X142264485Y-122437849D01*
X142264487Y-122437859D01*
X142321083Y-122649082D01*
X142321085Y-122649086D01*
X142321086Y-122649090D01*
X142355428Y-122722736D01*
X142413506Y-122847286D01*
X142413507Y-122847287D01*
X142538941Y-123026425D01*
X142693575Y-123181059D01*
X142872712Y-123306492D01*
X142872713Y-123306493D01*
X143025241Y-123377618D01*
X143077680Y-123423790D01*
X143096832Y-123490984D01*
X143076616Y-123557865D01*
X143025241Y-123602381D01*
X143016045Y-123606670D01*
X142872713Y-123673506D01*
X142753201Y-123757190D01*
X142693575Y-123798941D01*
X142693573Y-123798942D01*
X142693570Y-123798945D01*
X142538945Y-123953570D01*
X142413506Y-124132713D01*
X142321087Y-124330908D01*
X142321083Y-124330917D01*
X142264487Y-124542140D01*
X142264485Y-124542150D01*
X142245426Y-124759999D01*
X142245426Y-124760000D01*
X142264485Y-124977849D01*
X142264487Y-124977859D01*
X142321083Y-125189082D01*
X142321085Y-125189086D01*
X142321086Y-125189090D01*
X142338012Y-125225388D01*
X142413506Y-125387286D01*
X142413507Y-125387287D01*
X142538941Y-125566425D01*
X142693575Y-125721059D01*
X142872713Y-125846493D01*
X143070910Y-125938914D01*
X143282146Y-125995514D01*
X143456429Y-126010762D01*
X143499999Y-126014574D01*
X143500000Y-126014574D01*
X143500001Y-126014574D01*
X143536309Y-126011397D01*
X143717854Y-125995514D01*
X143929090Y-125938914D01*
X144127287Y-125846493D01*
X144306425Y-125721059D01*
X144461059Y-125566425D01*
X144586493Y-125387287D01*
X144678914Y-125189090D01*
X144735514Y-124977854D01*
X144754574Y-124760000D01*
X144735514Y-124542146D01*
X144678914Y-124330910D01*
X144586493Y-124132713D01*
X144461059Y-123953575D01*
X144306425Y-123798941D01*
X144127287Y-123673507D01*
X143974756Y-123602380D01*
X143922319Y-123556210D01*
X143903167Y-123489016D01*
X143923383Y-123422135D01*
X143974756Y-123377619D01*
X144127287Y-123306493D01*
X144306425Y-123181059D01*
X144461059Y-123026425D01*
X144586493Y-122847287D01*
X144678914Y-122649090D01*
X144735514Y-122437854D01*
X144754574Y-122220000D01*
X144735514Y-122002146D01*
X144678914Y-121790910D01*
X144586493Y-121592713D01*
X144461059Y-121413575D01*
X144306425Y-121258941D01*
X144127287Y-121133507D01*
X143974756Y-121062380D01*
X143922319Y-121016210D01*
X143903167Y-120949016D01*
X143923383Y-120882135D01*
X143974756Y-120837619D01*
X144127287Y-120766493D01*
X144306425Y-120641059D01*
X144461059Y-120486425D01*
X144586493Y-120307287D01*
X144678914Y-120109090D01*
X144735514Y-119897854D01*
X144754574Y-119680000D01*
X144735514Y-119462146D01*
X144678914Y-119250910D01*
X144586493Y-119052713D01*
X144461059Y-118873575D01*
X144306425Y-118718941D01*
X144127287Y-118593507D01*
X143974756Y-118522380D01*
X143922319Y-118476210D01*
X143903167Y-118409016D01*
X143923383Y-118342135D01*
X143974756Y-118297619D01*
X144127287Y-118226493D01*
X144306425Y-118101059D01*
X144461059Y-117946425D01*
X144586493Y-117767287D01*
X144678914Y-117569090D01*
X144735514Y-117357854D01*
X144754574Y-117140000D01*
X144735514Y-116922146D01*
X144678914Y-116710910D01*
X144586493Y-116512713D01*
X144461059Y-116333575D01*
X144306425Y-116178941D01*
X144127287Y-116053507D01*
X143974756Y-115982380D01*
X143922319Y-115936210D01*
X143903167Y-115869016D01*
X143923383Y-115802135D01*
X143974756Y-115757619D01*
X144127287Y-115686493D01*
X144306425Y-115561059D01*
X144461059Y-115406425D01*
X144586493Y-115227287D01*
X144678914Y-115029090D01*
X144735514Y-114817854D01*
X144754574Y-114600000D01*
X144752849Y-114580289D01*
X144750426Y-114552584D01*
X144735514Y-114382146D01*
X144678914Y-114170910D01*
X144586493Y-113972713D01*
X144461059Y-113793575D01*
X144306425Y-113638941D01*
X144127287Y-113513507D01*
X143974756Y-113442380D01*
X143922319Y-113396210D01*
X143903167Y-113329016D01*
X143923383Y-113262135D01*
X143974756Y-113217619D01*
X144127287Y-113146493D01*
X144306425Y-113021059D01*
X144461059Y-112866425D01*
X144586493Y-112687287D01*
X144678914Y-112489090D01*
X144735514Y-112277854D01*
X144754574Y-112060000D01*
X144735514Y-111842146D01*
X144678914Y-111630910D01*
X144586493Y-111432713D01*
X144461059Y-111253575D01*
X144306425Y-111098941D01*
X144127287Y-110973507D01*
X143974756Y-110902380D01*
X143922319Y-110856210D01*
X143903167Y-110789016D01*
X143923383Y-110722135D01*
X143974756Y-110677619D01*
X144127287Y-110606493D01*
X144306425Y-110481059D01*
X144461059Y-110326425D01*
X144586493Y-110147287D01*
X144678914Y-109949090D01*
X144735514Y-109737854D01*
X144754574Y-109520000D01*
X144735514Y-109302146D01*
X144678914Y-109090910D01*
X144586493Y-108892713D01*
X144461059Y-108713575D01*
X144306425Y-108558941D01*
X144127287Y-108433507D01*
X143974756Y-108362380D01*
X143922319Y-108316210D01*
X143903167Y-108249016D01*
X143923383Y-108182135D01*
X143974756Y-108137619D01*
X144127287Y-108066493D01*
X144306425Y-107941059D01*
X144461059Y-107786425D01*
X144586493Y-107607287D01*
X144678914Y-107409090D01*
X144735514Y-107197854D01*
X144754574Y-106980000D01*
X144735514Y-106762146D01*
X144678914Y-106550910D01*
X144586493Y-106352713D01*
X144461059Y-106173575D01*
X144306425Y-106018941D01*
X144127287Y-105893507D01*
X143974756Y-105822380D01*
X143922319Y-105776210D01*
X143903167Y-105709016D01*
X143923383Y-105642135D01*
X143974756Y-105597619D01*
X144127287Y-105526493D01*
X144306425Y-105401059D01*
X144461059Y-105246425D01*
X144586493Y-105067287D01*
X144678914Y-104869090D01*
X144735514Y-104657854D01*
X144754574Y-104440000D01*
X144735514Y-104222146D01*
X144678914Y-104010910D01*
X144641216Y-103930068D01*
X144630725Y-103860991D01*
X144659245Y-103797207D01*
X144708625Y-103764915D01*
X144707702Y-103762687D01*
X144715206Y-103759578D01*
X144715206Y-103759577D01*
X144715209Y-103759577D01*
X144765328Y-103730639D01*
X144852140Y-103680520D01*
X144963944Y-103568716D01*
X144963945Y-103568714D01*
X145480520Y-103052140D01*
X145559577Y-102915209D01*
X145600501Y-102762481D01*
X145600501Y-102604366D01*
X145600501Y-102596771D01*
X145600500Y-102596753D01*
X145600500Y-93160945D01*
X145600500Y-93160943D01*
X145559577Y-93008216D01*
X145522381Y-92943790D01*
X145480524Y-92871290D01*
X145480521Y-92871286D01*
X145480520Y-92871284D01*
X145368716Y-92759480D01*
X145368715Y-92759479D01*
X145364385Y-92755149D01*
X145364374Y-92755139D01*
X144750544Y-92141309D01*
X144717059Y-92079986D01*
X144718451Y-92021533D01*
X144735512Y-91957861D01*
X144735511Y-91957861D01*
X144735514Y-91957854D01*
X144754574Y-91740000D01*
X144735514Y-91522146D01*
X144678914Y-91310910D01*
X144586493Y-91112713D01*
X144461059Y-90933575D01*
X144306425Y-90778941D01*
X144127287Y-90653507D01*
X143974756Y-90582380D01*
X143922319Y-90536210D01*
X143903167Y-90469016D01*
X143923383Y-90402135D01*
X143974756Y-90357619D01*
X144127287Y-90286493D01*
X144306425Y-90161059D01*
X144461059Y-90006425D01*
X144586493Y-89827287D01*
X144678914Y-89629090D01*
X144735514Y-89417854D01*
X144754574Y-89200000D01*
X144735514Y-88982146D01*
X144678914Y-88770910D01*
X144586493Y-88572713D01*
X144461059Y-88393575D01*
X144306425Y-88238941D01*
X144127287Y-88113507D01*
X143974756Y-88042380D01*
X143922319Y-87996210D01*
X143903167Y-87929016D01*
X143923383Y-87862135D01*
X143974756Y-87817619D01*
X144127287Y-87746493D01*
X144306425Y-87621059D01*
X144461059Y-87466425D01*
X144586493Y-87287287D01*
X144678914Y-87089090D01*
X144735514Y-86877854D01*
X144754574Y-86660000D01*
X144735514Y-86442146D01*
X144678914Y-86230910D01*
X144586493Y-86032713D01*
X144461059Y-85853575D01*
X144306425Y-85698941D01*
X144127287Y-85573507D01*
X143974756Y-85502380D01*
X143922319Y-85456210D01*
X143903167Y-85389016D01*
X143923383Y-85322135D01*
X143974756Y-85277619D01*
X144127287Y-85206493D01*
X144306425Y-85081059D01*
X144461059Y-84926425D01*
X144586493Y-84747287D01*
X144678914Y-84549090D01*
X144735514Y-84337854D01*
X144754574Y-84120000D01*
X144735514Y-83902146D01*
X144687604Y-83723342D01*
X144678916Y-83690917D01*
X144678915Y-83690916D01*
X144678914Y-83690910D01*
X144586493Y-83492713D01*
X144461059Y-83313575D01*
X144306425Y-83158941D01*
X144127287Y-83033507D01*
X143974756Y-82962380D01*
X143922319Y-82916210D01*
X143903167Y-82849016D01*
X143923383Y-82782135D01*
X143974756Y-82737619D01*
X144127287Y-82666493D01*
X144306425Y-82541059D01*
X144461059Y-82386425D01*
X144586493Y-82207287D01*
X144678914Y-82009090D01*
X144735514Y-81797854D01*
X144754574Y-81580000D01*
X144735514Y-81362146D01*
X144678914Y-81150910D01*
X144586493Y-80952713D01*
X144461059Y-80773575D01*
X144306425Y-80618941D01*
X144127287Y-80493507D01*
X143974756Y-80422380D01*
X143922319Y-80376210D01*
X143903167Y-80309016D01*
X143923383Y-80242135D01*
X143974756Y-80197619D01*
X144127287Y-80126493D01*
X144306425Y-80001059D01*
X144461059Y-79846425D01*
X144586493Y-79667287D01*
X144678914Y-79469090D01*
X144735514Y-79257854D01*
X144754574Y-79040000D01*
X144735514Y-78822146D01*
X144678914Y-78610910D01*
X144586493Y-78412713D01*
X144461059Y-78233575D01*
X144306425Y-78078941D01*
X144127287Y-77953507D01*
X143974756Y-77882380D01*
X143922319Y-77836210D01*
X143903167Y-77769016D01*
X143923383Y-77702135D01*
X143974756Y-77657619D01*
X144127287Y-77586493D01*
X144306425Y-77461059D01*
X144461059Y-77306425D01*
X144586493Y-77127287D01*
X144678914Y-76929090D01*
X144735514Y-76717854D01*
X144754574Y-76500000D01*
X144735514Y-76282146D01*
X144678914Y-76070910D01*
X144586493Y-75872713D01*
X144461059Y-75693575D01*
X144306425Y-75538941D01*
X144127287Y-75413507D01*
X143974756Y-75342380D01*
X143922319Y-75296210D01*
X143903167Y-75229016D01*
X143923383Y-75162135D01*
X143974756Y-75117619D01*
X144127287Y-75046493D01*
X144306425Y-74921059D01*
X144461059Y-74766425D01*
X144586493Y-74587287D01*
X144678914Y-74389090D01*
X144735514Y-74177854D01*
X144754574Y-73960000D01*
X144735514Y-73742146D01*
X144678914Y-73530910D01*
X144586493Y-73332713D01*
X144461059Y-73153575D01*
X144306425Y-72998941D01*
X144127287Y-72873507D01*
X143974756Y-72802380D01*
X143922319Y-72756210D01*
X143903167Y-72689016D01*
X143923383Y-72622135D01*
X143974756Y-72577619D01*
X144127287Y-72506493D01*
X144306425Y-72381059D01*
X144461059Y-72226425D01*
X144586493Y-72047287D01*
X144678914Y-71849090D01*
X144735514Y-71637854D01*
X144754574Y-71420000D01*
X144735514Y-71202146D01*
X144692539Y-71041760D01*
X144678916Y-70990917D01*
X144678915Y-70990916D01*
X144678914Y-70990910D01*
X144586493Y-70792713D01*
X144461059Y-70613575D01*
X144306425Y-70458941D01*
X144127287Y-70333507D01*
X143974756Y-70262380D01*
X143922319Y-70216210D01*
X143903167Y-70149016D01*
X143923383Y-70082135D01*
X143974756Y-70037619D01*
X144127287Y-69966493D01*
X144306425Y-69841059D01*
X144461059Y-69686425D01*
X144586493Y-69507287D01*
X144678914Y-69309090D01*
X144735514Y-69097854D01*
X144754574Y-68880000D01*
X144754479Y-68878919D01*
X144740284Y-68716670D01*
X144735514Y-68662146D01*
X144682214Y-68463226D01*
X144678916Y-68450917D01*
X144678915Y-68450916D01*
X144678914Y-68450910D01*
X144586493Y-68252713D01*
X144461059Y-68073575D01*
X144306425Y-67918941D01*
X144157802Y-67814874D01*
X144114178Y-67760297D01*
X144106986Y-67690799D01*
X144138508Y-67628444D01*
X144198738Y-67593031D01*
X144228927Y-67589300D01*
X144297128Y-67589300D01*
X144297144Y-67589299D01*
X144356672Y-67582898D01*
X144356679Y-67582896D01*
X144491386Y-67532654D01*
X144491393Y-67532650D01*
X144606487Y-67446490D01*
X144606490Y-67446487D01*
X144692650Y-67331393D01*
X144692654Y-67331386D01*
X144742896Y-67196679D01*
X144742898Y-67196672D01*
X144749299Y-67137144D01*
X144749300Y-67137127D01*
X144749300Y-66590000D01*
X143927586Y-66590000D01*
X143961546Y-66531179D01*
X143995300Y-66405207D01*
X143995300Y-66339999D01*
X157485426Y-66339999D01*
X157485426Y-66340000D01*
X157504485Y-66557849D01*
X157504487Y-66557859D01*
X157561083Y-66769082D01*
X157561085Y-66769086D01*
X157561086Y-66769090D01*
X157575792Y-66800627D01*
X157653506Y-66967286D01*
X157673691Y-66996113D01*
X157778941Y-67146425D01*
X157933575Y-67301059D01*
X158112712Y-67426492D01*
X158112713Y-67426493D01*
X158265833Y-67497894D01*
X158318272Y-67544066D01*
X158337424Y-67611260D01*
X158317208Y-67678141D01*
X158265833Y-67722658D01*
X158112960Y-67793944D01*
X158050931Y-67837376D01*
X158050930Y-67837377D01*
X158614428Y-68400874D01*
X158548821Y-68418454D01*
X158435879Y-68483661D01*
X158343661Y-68575879D01*
X158278454Y-68688821D01*
X158260874Y-68754427D01*
X157697377Y-68190930D01*
X157697376Y-68190931D01*
X157653944Y-68252960D01*
X157561559Y-68451080D01*
X157561555Y-68451089D01*
X157504981Y-68662228D01*
X157504979Y-68662238D01*
X157485928Y-68879998D01*
X157485928Y-68880001D01*
X157504979Y-69097761D01*
X157504981Y-69097771D01*
X157561555Y-69308910D01*
X157561559Y-69308919D01*
X157653941Y-69507034D01*
X157653942Y-69507036D01*
X157697377Y-69569067D01*
X157697378Y-69569068D01*
X158260874Y-69005571D01*
X158278454Y-69071179D01*
X158343661Y-69184121D01*
X158435879Y-69276339D01*
X158548821Y-69341546D01*
X158614427Y-69359125D01*
X158050930Y-69922621D01*
X158112965Y-69966058D01*
X158112967Y-69966059D01*
X158265832Y-70037341D01*
X158318272Y-70083513D01*
X158337424Y-70150706D01*
X158317209Y-70217588D01*
X158265833Y-70262105D01*
X158112713Y-70333506D01*
X157993201Y-70417190D01*
X157933575Y-70458941D01*
X157933573Y-70458942D01*
X157933570Y-70458945D01*
X157778945Y-70613570D01*
X157653506Y-70792713D01*
X157561087Y-70990908D01*
X157561083Y-70990917D01*
X157504487Y-71202140D01*
X157504485Y-71202150D01*
X157485426Y-71419999D01*
X157485426Y-71420000D01*
X157504485Y-71637849D01*
X157504487Y-71637859D01*
X157561083Y-71849082D01*
X157561085Y-71849086D01*
X157561086Y-71849090D01*
X157574106Y-71877011D01*
X157653506Y-72047286D01*
X157653507Y-72047287D01*
X157778941Y-72226425D01*
X157933575Y-72381059D01*
X158112712Y-72506492D01*
X158112713Y-72506493D01*
X158265241Y-72577618D01*
X158317680Y-72623790D01*
X158336832Y-72690984D01*
X158316616Y-72757865D01*
X158265241Y-72802382D01*
X158112713Y-72873506D01*
X157993201Y-72957190D01*
X157933575Y-72998941D01*
X157933573Y-72998942D01*
X157933570Y-72998945D01*
X157778945Y-73153570D01*
X157653506Y-73332713D01*
X157561087Y-73530908D01*
X157561083Y-73530917D01*
X157504487Y-73742140D01*
X157504485Y-73742150D01*
X157485426Y-73959999D01*
X157485426Y-73960000D01*
X157504485Y-74177849D01*
X157504487Y-74177859D01*
X157561083Y-74389082D01*
X157561085Y-74389086D01*
X157561086Y-74389090D01*
X157598186Y-74468651D01*
X157653506Y-74587286D01*
X157653507Y-74587287D01*
X157778941Y-74766425D01*
X157933575Y-74921059D01*
X158096825Y-75035368D01*
X158112713Y-75046493D01*
X158265241Y-75117618D01*
X158317680Y-75163790D01*
X158336832Y-75230984D01*
X158316616Y-75297865D01*
X158265241Y-75342382D01*
X158112713Y-75413506D01*
X157993201Y-75497190D01*
X157933575Y-75538941D01*
X157933573Y-75538942D01*
X157933570Y-75538945D01*
X157778945Y-75693570D01*
X157778942Y-75693573D01*
X157778941Y-75693575D01*
X157778681Y-75693947D01*
X157653506Y-75872713D01*
X157561087Y-76070908D01*
X157561083Y-76070917D01*
X157504487Y-76282140D01*
X157504485Y-76282150D01*
X157485426Y-76499999D01*
X157485426Y-76500000D01*
X157504485Y-76717849D01*
X157504487Y-76717859D01*
X157561083Y-76929082D01*
X157561085Y-76929086D01*
X157561086Y-76929090D01*
X157607296Y-77028188D01*
X157653506Y-77127286D01*
X157653507Y-77127287D01*
X157778941Y-77306425D01*
X157933575Y-77461059D01*
X158112713Y-77586493D01*
X158182248Y-77618918D01*
X158265241Y-77657618D01*
X158317680Y-77703790D01*
X158336832Y-77770984D01*
X158316616Y-77837865D01*
X158265241Y-77882382D01*
X158112713Y-77953506D01*
X157993201Y-78037190D01*
X157933575Y-78078941D01*
X157933573Y-78078942D01*
X157933570Y-78078945D01*
X157778945Y-78233570D01*
X157778942Y-78233573D01*
X157778941Y-78233575D01*
X157753286Y-78270214D01*
X157653506Y-78412713D01*
X157566921Y-78598396D01*
X157566173Y-78600002D01*
X157561087Y-78610908D01*
X157561083Y-78610917D01*
X157504487Y-78822140D01*
X157504485Y-78822150D01*
X157485426Y-79039999D01*
X157485426Y-79040000D01*
X157504485Y-79257849D01*
X157504487Y-79257859D01*
X157561083Y-79469082D01*
X157561085Y-79469086D01*
X157561086Y-79469090D01*
X157607296Y-79568188D01*
X157653506Y-79667286D01*
X157653507Y-79667287D01*
X157778941Y-79846425D01*
X157933575Y-80001059D01*
X158112712Y-80126492D01*
X158112713Y-80126493D01*
X158265241Y-80197618D01*
X158317680Y-80243790D01*
X158336832Y-80310984D01*
X158316616Y-80377865D01*
X158265241Y-80422382D01*
X158112713Y-80493506D01*
X158026640Y-80553776D01*
X157933575Y-80618941D01*
X157933573Y-80618942D01*
X157933570Y-80618945D01*
X157778945Y-80773570D01*
X157778942Y-80773573D01*
X157778941Y-80773575D01*
X157738675Y-80831081D01*
X157653506Y-80952713D01*
X157561087Y-81150908D01*
X157561083Y-81150917D01*
X157504487Y-81362140D01*
X157504485Y-81362150D01*
X157485426Y-81579999D01*
X157485426Y-81580000D01*
X157504485Y-81797849D01*
X157504487Y-81797859D01*
X157561083Y-82009082D01*
X157561085Y-82009086D01*
X157561086Y-82009090D01*
X157573292Y-82035266D01*
X157653506Y-82207286D01*
X157678593Y-82243114D01*
X157778941Y-82386425D01*
X157933575Y-82541059D01*
X158112713Y-82666493D01*
X158168935Y-82692710D01*
X158265241Y-82737618D01*
X158317680Y-82783790D01*
X158336832Y-82850984D01*
X158316616Y-82917865D01*
X158265241Y-82962382D01*
X158112713Y-83033506D01*
X158037485Y-83086182D01*
X157933575Y-83158941D01*
X157933573Y-83158942D01*
X157933570Y-83158945D01*
X157778945Y-83313570D01*
X157653506Y-83492713D01*
X157561087Y-83690908D01*
X157561083Y-83690917D01*
X157504487Y-83902140D01*
X157504485Y-83902150D01*
X157485426Y-84119999D01*
X157485426Y-84120000D01*
X157504485Y-84337849D01*
X157504487Y-84337859D01*
X157561083Y-84549082D01*
X157561085Y-84549086D01*
X157561086Y-84549090D01*
X157607296Y-84648188D01*
X157653506Y-84747286D01*
X157667268Y-84766940D01*
X157778941Y-84926425D01*
X157933575Y-85081059D01*
X158112713Y-85206493D01*
X158166962Y-85231790D01*
X158265241Y-85277618D01*
X158317680Y-85323790D01*
X158336832Y-85390984D01*
X158316616Y-85457865D01*
X158265241Y-85502382D01*
X158112713Y-85573506D01*
X157993201Y-85657190D01*
X157933575Y-85698941D01*
X157933573Y-85698942D01*
X157933570Y-85698945D01*
X157778945Y-85853570D01*
X157778942Y-85853573D01*
X157778941Y-85853575D01*
X157737190Y-85913201D01*
X157653506Y-86032713D01*
X157561087Y-86230908D01*
X157561083Y-86230917D01*
X157504487Y-86442140D01*
X157504485Y-86442150D01*
X157485426Y-86659999D01*
X157485426Y-86660000D01*
X157504485Y-86877849D01*
X157504487Y-86877859D01*
X157561083Y-87089082D01*
X157561085Y-87089086D01*
X157561086Y-87089090D01*
X157593504Y-87158611D01*
X157653506Y-87287286D01*
X157656975Y-87292240D01*
X157778941Y-87466425D01*
X157933575Y-87621059D01*
X158088896Y-87729816D01*
X158112713Y-87746493D01*
X158265241Y-87817618D01*
X158317680Y-87863790D01*
X158336832Y-87930984D01*
X158316616Y-87997865D01*
X158265241Y-88042382D01*
X158112713Y-88113506D01*
X157993201Y-88197190D01*
X157933575Y-88238941D01*
X157933573Y-88238942D01*
X157933570Y-88238945D01*
X157778945Y-88393570D01*
X157778942Y-88393573D01*
X157778941Y-88393575D01*
X157768413Y-88408611D01*
X157653506Y-88572713D01*
X157561087Y-88770908D01*
X157561083Y-88770917D01*
X157504487Y-88982140D01*
X157504485Y-88982150D01*
X157485426Y-89199999D01*
X157485426Y-89200000D01*
X157504485Y-89417849D01*
X157504487Y-89417859D01*
X157561083Y-89629082D01*
X157561085Y-89629086D01*
X157561086Y-89629090D01*
X157564361Y-89636113D01*
X157653506Y-89827286D01*
X157656220Y-89831162D01*
X157778941Y-90006425D01*
X157933575Y-90161059D01*
X158068792Y-90255739D01*
X158112713Y-90286493D01*
X158265241Y-90357618D01*
X158317680Y-90403790D01*
X158336832Y-90470984D01*
X158316616Y-90537865D01*
X158265241Y-90582382D01*
X158112713Y-90653506D01*
X157993201Y-90737190D01*
X157933575Y-90778941D01*
X157933573Y-90778942D01*
X157933570Y-90778945D01*
X157778945Y-90933570D01*
X157778942Y-90933573D01*
X157778941Y-90933575D01*
X157749313Y-90975888D01*
X157653506Y-91112713D01*
X157561087Y-91310908D01*
X157561083Y-91310917D01*
X157504487Y-91522140D01*
X157504485Y-91522150D01*
X157485426Y-91739999D01*
X157485426Y-91740000D01*
X157504485Y-91957849D01*
X157504487Y-91957859D01*
X157561083Y-92169082D01*
X157561085Y-92169086D01*
X157561086Y-92169090D01*
X157596998Y-92246104D01*
X157653506Y-92367286D01*
X157653507Y-92367287D01*
X157778941Y-92546425D01*
X157933575Y-92701059D01*
X158112713Y-92826493D01*
X158211885Y-92872738D01*
X158265241Y-92897618D01*
X158317680Y-92943790D01*
X158336832Y-93010984D01*
X158316616Y-93077865D01*
X158265241Y-93122382D01*
X158112713Y-93193506D01*
X157993201Y-93277190D01*
X157933575Y-93318941D01*
X157933573Y-93318942D01*
X157933570Y-93318945D01*
X157778945Y-93473570D01*
X157778942Y-93473573D01*
X157778941Y-93473575D01*
X157737190Y-93533201D01*
X157653506Y-93652713D01*
X157561087Y-93850908D01*
X157561083Y-93850917D01*
X157504487Y-94062140D01*
X157504485Y-94062150D01*
X157485426Y-94279999D01*
X157485426Y-94280000D01*
X157504485Y-94497849D01*
X157504487Y-94497859D01*
X157561083Y-94709082D01*
X157561085Y-94709086D01*
X157561086Y-94709090D01*
X157607296Y-94808188D01*
X157653506Y-94907286D01*
X157653507Y-94907287D01*
X157778941Y-95086425D01*
X157933575Y-95241059D01*
X158112713Y-95366493D01*
X158131775Y-95375382D01*
X158265241Y-95437618D01*
X158317680Y-95483790D01*
X158336832Y-95550984D01*
X158316616Y-95617865D01*
X158265241Y-95662382D01*
X158112713Y-95733506D01*
X158005399Y-95808649D01*
X157933575Y-95858941D01*
X157933573Y-95858942D01*
X157933570Y-95858945D01*
X157778945Y-96013570D01*
X157653506Y-96192713D01*
X157561087Y-96390908D01*
X157561083Y-96390917D01*
X157504487Y-96602140D01*
X157504485Y-96602150D01*
X157485426Y-96819999D01*
X157485426Y-96820000D01*
X157504485Y-97037849D01*
X157504487Y-97037859D01*
X157561083Y-97249082D01*
X157561085Y-97249086D01*
X157561086Y-97249090D01*
X157591907Y-97315186D01*
X157653506Y-97447286D01*
X157653507Y-97447287D01*
X157778941Y-97626425D01*
X157933575Y-97781059D01*
X158112713Y-97906493D01*
X158206007Y-97949997D01*
X158265241Y-97977618D01*
X158317680Y-98023790D01*
X158336832Y-98090984D01*
X158316616Y-98157865D01*
X158265241Y-98202382D01*
X158112713Y-98273506D01*
X158005399Y-98348649D01*
X157933575Y-98398941D01*
X157933573Y-98398942D01*
X157933570Y-98398945D01*
X157778945Y-98553570D01*
X157653506Y-98732713D01*
X157561087Y-98930908D01*
X157561083Y-98930917D01*
X157504487Y-99142140D01*
X157504485Y-99142150D01*
X157485426Y-99359999D01*
X157485426Y-99360000D01*
X157504485Y-99577849D01*
X157504487Y-99577859D01*
X157561083Y-99789082D01*
X157561085Y-99789086D01*
X157561086Y-99789090D01*
X157607296Y-99888188D01*
X157653506Y-99987286D01*
X157653507Y-99987287D01*
X157778941Y-100166425D01*
X157933575Y-100321059D01*
X158112713Y-100446493D01*
X158215149Y-100494260D01*
X158265241Y-100517618D01*
X158317680Y-100563790D01*
X158336832Y-100630984D01*
X158316616Y-100697865D01*
X158265241Y-100742382D01*
X158112713Y-100813506D01*
X158010876Y-100884814D01*
X157933575Y-100938941D01*
X157933573Y-100938942D01*
X157933570Y-100938945D01*
X157778945Y-101093570D01*
X157653506Y-101272713D01*
X157561087Y-101470908D01*
X157561083Y-101470917D01*
X157504487Y-101682140D01*
X157504485Y-101682150D01*
X157485426Y-101899999D01*
X157485426Y-101900000D01*
X157504485Y-102117849D01*
X157504487Y-102117859D01*
X157561083Y-102329082D01*
X157561085Y-102329086D01*
X157561086Y-102329090D01*
X157566823Y-102341392D01*
X157653506Y-102527286D01*
X157653507Y-102527287D01*
X157778941Y-102706425D01*
X157933575Y-102861059D01*
X158112713Y-102986493D01*
X158253497Y-103052142D01*
X158265241Y-103057618D01*
X158317680Y-103103790D01*
X158336832Y-103170984D01*
X158316616Y-103237865D01*
X158265241Y-103282382D01*
X158112713Y-103353506D01*
X157993201Y-103437190D01*
X157933575Y-103478941D01*
X157933573Y-103478942D01*
X157933570Y-103478945D01*
X157778945Y-103633570D01*
X157778942Y-103633573D01*
X157778941Y-103633575D01*
X157746070Y-103680520D01*
X157653506Y-103812713D01*
X157561087Y-104010908D01*
X157561083Y-104010917D01*
X157504487Y-104222140D01*
X157504485Y-104222150D01*
X157485426Y-104439999D01*
X157485426Y-104440000D01*
X157504485Y-104657849D01*
X157504487Y-104657859D01*
X157561083Y-104869082D01*
X157561085Y-104869086D01*
X157561086Y-104869090D01*
X157601921Y-104956661D01*
X157653506Y-105067286D01*
X157653507Y-105067287D01*
X157778941Y-105246425D01*
X157933575Y-105401059D01*
X158104220Y-105520546D01*
X158112713Y-105526493D01*
X158265241Y-105597618D01*
X158317680Y-105643790D01*
X158336832Y-105710984D01*
X158316616Y-105777865D01*
X158265241Y-105822382D01*
X158112713Y-105893506D01*
X157993201Y-105977190D01*
X157933575Y-106018941D01*
X157933573Y-106018942D01*
X157933570Y-106018945D01*
X157778945Y-106173570D01*
X157653506Y-106352713D01*
X157561087Y-106550908D01*
X157561083Y-106550917D01*
X157504487Y-106762140D01*
X157504485Y-106762150D01*
X157485426Y-106979999D01*
X157485426Y-106980000D01*
X157504485Y-107197849D01*
X157504487Y-107197859D01*
X157561083Y-107409082D01*
X157561085Y-107409086D01*
X157561086Y-107409090D01*
X157563687Y-107414667D01*
X157653506Y-107607286D01*
X157653507Y-107607287D01*
X157778941Y-107786425D01*
X157933575Y-107941059D01*
X158077642Y-108041936D01*
X158112713Y-108066493D01*
X158265241Y-108137618D01*
X158317680Y-108183790D01*
X158336832Y-108250984D01*
X158316616Y-108317865D01*
X158265241Y-108362382D01*
X158112713Y-108433506D01*
X157993201Y-108517190D01*
X157933575Y-108558941D01*
X157933573Y-108558942D01*
X157933570Y-108558945D01*
X157778945Y-108713570D01*
X157778942Y-108713573D01*
X157778941Y-108713575D01*
X157763753Y-108735266D01*
X157653506Y-108892713D01*
X157561087Y-109090908D01*
X157561083Y-109090917D01*
X157504487Y-109302140D01*
X157504485Y-109302150D01*
X157485426Y-109519999D01*
X157485426Y-109520000D01*
X157504485Y-109737849D01*
X157504487Y-109737859D01*
X157561083Y-109949082D01*
X157561085Y-109949086D01*
X157561086Y-109949090D01*
X157587932Y-110006661D01*
X157653506Y-110147286D01*
X157653507Y-110147287D01*
X157778941Y-110326425D01*
X157933575Y-110481059D01*
X158104153Y-110600499D01*
X158112713Y-110606493D01*
X158265241Y-110677618D01*
X158317680Y-110723790D01*
X158336832Y-110790984D01*
X158316616Y-110857865D01*
X158265241Y-110902382D01*
X158112713Y-110973506D01*
X157993201Y-111057190D01*
X157933575Y-111098941D01*
X157933573Y-111098942D01*
X157933570Y-111098945D01*
X157778945Y-111253570D01*
X157653506Y-111432713D01*
X157561087Y-111630908D01*
X157561083Y-111630917D01*
X157504487Y-111842140D01*
X157504485Y-111842150D01*
X157485426Y-112059999D01*
X157485426Y-112060000D01*
X157504485Y-112277849D01*
X157504487Y-112277859D01*
X157561083Y-112489082D01*
X157561085Y-112489086D01*
X157561086Y-112489090D01*
X157589855Y-112550785D01*
X157653506Y-112687286D01*
X157653507Y-112687287D01*
X157778941Y-112866425D01*
X157933575Y-113021059D01*
X158112713Y-113146493D01*
X158202177Y-113188211D01*
X158265241Y-113217618D01*
X158317680Y-113263790D01*
X158336832Y-113330984D01*
X158316616Y-113397865D01*
X158265241Y-113442382D01*
X158112713Y-113513506D01*
X157999602Y-113592708D01*
X157933575Y-113638941D01*
X157933573Y-113638942D01*
X157933570Y-113638945D01*
X157778945Y-113793570D01*
X157778942Y-113793573D01*
X157778941Y-113793575D01*
X157737190Y-113853201D01*
X157653506Y-113972713D01*
X157561087Y-114170908D01*
X157561083Y-114170917D01*
X157504487Y-114382140D01*
X157504485Y-114382150D01*
X157485426Y-114599999D01*
X157485426Y-114600000D01*
X157504485Y-114817849D01*
X157504487Y-114817859D01*
X157561083Y-115029082D01*
X157561085Y-115029086D01*
X157561086Y-115029090D01*
X157584571Y-115079453D01*
X157653506Y-115227286D01*
X157653507Y-115227287D01*
X157778941Y-115406425D01*
X157933575Y-115561059D01*
X158112712Y-115686492D01*
X158112713Y-115686493D01*
X158265241Y-115757618D01*
X158317680Y-115803790D01*
X158336832Y-115870984D01*
X158316616Y-115937865D01*
X158265241Y-115982382D01*
X158112713Y-116053506D01*
X157993201Y-116137190D01*
X157933575Y-116178941D01*
X157933573Y-116178942D01*
X157933570Y-116178945D01*
X157778945Y-116333570D01*
X157778942Y-116333573D01*
X157778941Y-116333575D01*
X157763422Y-116355739D01*
X157653506Y-116512713D01*
X157561087Y-116710908D01*
X157561083Y-116710917D01*
X157504487Y-116922140D01*
X157504485Y-116922150D01*
X157485426Y-117139999D01*
X157485426Y-117140000D01*
X157504485Y-117357849D01*
X157504487Y-117357859D01*
X157561083Y-117569082D01*
X157561085Y-117569086D01*
X157561086Y-117569090D01*
X157564256Y-117575888D01*
X157653506Y-117767286D01*
X157678593Y-117803114D01*
X157778941Y-117946425D01*
X157933575Y-118101059D01*
X158112712Y-118226492D01*
X158112713Y-118226493D01*
X158265241Y-118297618D01*
X158317680Y-118343790D01*
X158336832Y-118410984D01*
X158316616Y-118477865D01*
X158265241Y-118522382D01*
X158112713Y-118593506D01*
X157993201Y-118677190D01*
X157933575Y-118718941D01*
X157933573Y-118718942D01*
X157933570Y-118718945D01*
X157778945Y-118873570D01*
X157778942Y-118873573D01*
X157778941Y-118873575D01*
X157737190Y-118933201D01*
X157653506Y-119052713D01*
X157561087Y-119250908D01*
X157561083Y-119250917D01*
X157504487Y-119462140D01*
X157504485Y-119462150D01*
X157485426Y-119679999D01*
X157485426Y-119680000D01*
X157504485Y-119897849D01*
X157504487Y-119897859D01*
X157561083Y-120109082D01*
X157561085Y-120109086D01*
X157561086Y-120109090D01*
X157607296Y-120208188D01*
X157653506Y-120307286D01*
X157653507Y-120307287D01*
X157778941Y-120486425D01*
X157933575Y-120641059D01*
X158112713Y-120766493D01*
X158160640Y-120788842D01*
X158265241Y-120837618D01*
X158317680Y-120883790D01*
X158336832Y-120950984D01*
X158316616Y-121017865D01*
X158265241Y-121062382D01*
X158112713Y-121133506D01*
X157993201Y-121217190D01*
X157933575Y-121258941D01*
X157933573Y-121258942D01*
X157933570Y-121258945D01*
X157778945Y-121413570D01*
X157653506Y-121592713D01*
X157561087Y-121790908D01*
X157561083Y-121790917D01*
X157504487Y-122002140D01*
X157504485Y-122002150D01*
X157485426Y-122219999D01*
X157485426Y-122220000D01*
X157504485Y-122437849D01*
X157504487Y-122437859D01*
X157561083Y-122649082D01*
X157561085Y-122649086D01*
X157561086Y-122649090D01*
X157595428Y-122722736D01*
X157653506Y-122847286D01*
X157653507Y-122847287D01*
X157778941Y-123026425D01*
X157933575Y-123181059D01*
X158112712Y-123306492D01*
X158112713Y-123306493D01*
X158265241Y-123377618D01*
X158317680Y-123423790D01*
X158336832Y-123490984D01*
X158316616Y-123557865D01*
X158265241Y-123602381D01*
X158256045Y-123606670D01*
X158112713Y-123673506D01*
X157993201Y-123757190D01*
X157933575Y-123798941D01*
X157933573Y-123798942D01*
X157933570Y-123798945D01*
X157778945Y-123953570D01*
X157653506Y-124132713D01*
X157561087Y-124330908D01*
X157561083Y-124330917D01*
X157504487Y-124542140D01*
X157504485Y-124542150D01*
X157485426Y-124759999D01*
X157485426Y-124760000D01*
X157504485Y-124977849D01*
X157504487Y-124977859D01*
X157561083Y-125189082D01*
X157561085Y-125189086D01*
X157561086Y-125189090D01*
X157578012Y-125225388D01*
X157653506Y-125387286D01*
X157653507Y-125387287D01*
X157778941Y-125566425D01*
X157933575Y-125721059D01*
X158112713Y-125846493D01*
X158310910Y-125938914D01*
X158522146Y-125995514D01*
X158696429Y-126010762D01*
X158739999Y-126014574D01*
X158740000Y-126014574D01*
X158740001Y-126014574D01*
X158776309Y-126011397D01*
X158957854Y-125995514D01*
X159169090Y-125938914D01*
X159367287Y-125846493D01*
X159546425Y-125721059D01*
X159701059Y-125566425D01*
X159826493Y-125387287D01*
X159918914Y-125189090D01*
X159975514Y-124977854D01*
X159994574Y-124760000D01*
X159975514Y-124542146D01*
X159918914Y-124330910D01*
X159826493Y-124132713D01*
X159701059Y-123953575D01*
X159546425Y-123798941D01*
X159367287Y-123673507D01*
X159214756Y-123602380D01*
X159162319Y-123556210D01*
X159143167Y-123489016D01*
X159163383Y-123422135D01*
X159214756Y-123377619D01*
X159367287Y-123306493D01*
X159546425Y-123181059D01*
X159677500Y-123049984D01*
X167899500Y-123049984D01*
X167899500Y-125950015D01*
X167910000Y-126052795D01*
X167910001Y-126052796D01*
X167965186Y-126219335D01*
X167965187Y-126219337D01*
X168057286Y-126368651D01*
X168057289Y-126368655D01*
X168181344Y-126492710D01*
X168181348Y-126492713D01*
X168330662Y-126584812D01*
X168330664Y-126584813D01*
X168330666Y-126584814D01*
X168497203Y-126639999D01*
X168599992Y-126650500D01*
X168599997Y-126650500D01*
X170900003Y-126650500D01*
X170900008Y-126650500D01*
X171002797Y-126639999D01*
X171169334Y-126584814D01*
X171318655Y-126492711D01*
X171442711Y-126368655D01*
X171534814Y-126219334D01*
X171589999Y-126052797D01*
X171600500Y-125950008D01*
X171600500Y-123049992D01*
X171589999Y-122947203D01*
X171534814Y-122780666D01*
X171517623Y-122752796D01*
X171442713Y-122631348D01*
X171442710Y-122631344D01*
X171318655Y-122507289D01*
X171318651Y-122507286D01*
X171169337Y-122415187D01*
X171169335Y-122415186D01*
X171086065Y-122387593D01*
X171002797Y-122360001D01*
X171002795Y-122360000D01*
X170900015Y-122349500D01*
X170900008Y-122349500D01*
X168599992Y-122349500D01*
X168599984Y-122349500D01*
X168497204Y-122360000D01*
X168497203Y-122360001D01*
X168330664Y-122415186D01*
X168330662Y-122415187D01*
X168181348Y-122507286D01*
X168181344Y-122507289D01*
X168057289Y-122631344D01*
X168057286Y-122631348D01*
X167965187Y-122780662D01*
X167965186Y-122780664D01*
X167910001Y-122947203D01*
X167910000Y-122947204D01*
X167899500Y-123049984D01*
X159677500Y-123049984D01*
X159701059Y-123026425D01*
X159826493Y-122847287D01*
X159918914Y-122649090D01*
X159975514Y-122437854D01*
X159984490Y-122335258D01*
X181689500Y-122335258D01*
X181689500Y-122564741D01*
X181711345Y-122730662D01*
X181719452Y-122792238D01*
X181746790Y-122894265D01*
X181778842Y-123013887D01*
X181866650Y-123225876D01*
X181866656Y-123225888D01*
X181980914Y-123423790D01*
X181981392Y-123424617D01*
X182121081Y-123606661D01*
X182121089Y-123606670D01*
X182283330Y-123768911D01*
X182283338Y-123768918D01*
X182465382Y-123908607D01*
X182465385Y-123908608D01*
X182465388Y-123908611D01*
X182664112Y-124023344D01*
X182664117Y-124023346D01*
X182664123Y-124023349D01*
X182755480Y-124061190D01*
X182876113Y-124111158D01*
X183097762Y-124170548D01*
X183325266Y-124200500D01*
X183325273Y-124200500D01*
X183554727Y-124200500D01*
X183554734Y-124200500D01*
X183782238Y-124170548D01*
X184003887Y-124111158D01*
X184215888Y-124023344D01*
X184414612Y-123908611D01*
X184596661Y-123768919D01*
X184596665Y-123768914D01*
X184596670Y-123768911D01*
X184758911Y-123606670D01*
X184758914Y-123606665D01*
X184758919Y-123606661D01*
X184898611Y-123424612D01*
X185013344Y-123225888D01*
X185101158Y-123013887D01*
X185160548Y-122792238D01*
X185190500Y-122564734D01*
X185190500Y-122335266D01*
X185160548Y-122107762D01*
X185101158Y-121886113D01*
X185013344Y-121674112D01*
X184898611Y-121475388D01*
X184898608Y-121475385D01*
X184898607Y-121475382D01*
X184758918Y-121293338D01*
X184758911Y-121293330D01*
X184596670Y-121131089D01*
X184596661Y-121131081D01*
X184414617Y-120991392D01*
X184402655Y-120984486D01*
X184263076Y-120903900D01*
X184215890Y-120876657D01*
X184215876Y-120876650D01*
X184003887Y-120788842D01*
X183920478Y-120766493D01*
X183782238Y-120729452D01*
X183744215Y-120724446D01*
X183554741Y-120699500D01*
X183554734Y-120699500D01*
X183325266Y-120699500D01*
X183325258Y-120699500D01*
X183108715Y-120728009D01*
X183097762Y-120729452D01*
X183026143Y-120748642D01*
X182876112Y-120788842D01*
X182664123Y-120876650D01*
X182664109Y-120876657D01*
X182465382Y-120991392D01*
X182283338Y-121131081D01*
X182121081Y-121293338D01*
X181981392Y-121475382D01*
X181866657Y-121674109D01*
X181866650Y-121674123D01*
X181788917Y-121861789D01*
X181778842Y-121886113D01*
X181724282Y-122089738D01*
X181719453Y-122107759D01*
X181719451Y-122107770D01*
X181689500Y-122335258D01*
X159984490Y-122335258D01*
X159994574Y-122220000D01*
X159975514Y-122002146D01*
X159918914Y-121790910D01*
X159826493Y-121592713D01*
X159701059Y-121413575D01*
X159546425Y-121258941D01*
X159367287Y-121133507D01*
X159214756Y-121062380D01*
X159162319Y-121016210D01*
X159143167Y-120949016D01*
X159163383Y-120882135D01*
X159214756Y-120837619D01*
X159367287Y-120766493D01*
X159546425Y-120641059D01*
X159701059Y-120486425D01*
X159826493Y-120307287D01*
X159918914Y-120109090D01*
X159975514Y-119897854D01*
X159994574Y-119680000D01*
X159975514Y-119462146D01*
X159918914Y-119250910D01*
X159826493Y-119052713D01*
X159701059Y-118873575D01*
X159546425Y-118718941D01*
X159367287Y-118593507D01*
X159214756Y-118522380D01*
X159162319Y-118476210D01*
X159143167Y-118409016D01*
X159163383Y-118342135D01*
X159214756Y-118297619D01*
X159367287Y-118226493D01*
X159546425Y-118101059D01*
X159701059Y-117946425D01*
X159826493Y-117767287D01*
X159918914Y-117569090D01*
X159975514Y-117357854D01*
X159994574Y-117140000D01*
X159975514Y-116922146D01*
X159918914Y-116710910D01*
X159867188Y-116599984D01*
X176249500Y-116599984D01*
X176249500Y-118900015D01*
X176260000Y-119002795D01*
X176260001Y-119002796D01*
X176315186Y-119169335D01*
X176315187Y-119169337D01*
X176407286Y-119318651D01*
X176407289Y-119318655D01*
X176531344Y-119442710D01*
X176531348Y-119442713D01*
X176680662Y-119534812D01*
X176680664Y-119534813D01*
X176680666Y-119534814D01*
X176847203Y-119589999D01*
X176949992Y-119600500D01*
X176949997Y-119600500D01*
X179850003Y-119600500D01*
X179850008Y-119600500D01*
X179952797Y-119589999D01*
X180119334Y-119534814D01*
X180268655Y-119442711D01*
X180392711Y-119318655D01*
X180484814Y-119169334D01*
X180539999Y-119002797D01*
X180550500Y-118900008D01*
X180550500Y-117628711D01*
X181749500Y-117628711D01*
X181749500Y-117871288D01*
X181779748Y-118101054D01*
X181781162Y-118111789D01*
X181811897Y-118226492D01*
X181843947Y-118346104D01*
X181928611Y-118550500D01*
X181936776Y-118570212D01*
X182058064Y-118780289D01*
X182058066Y-118780292D01*
X182058067Y-118780293D01*
X182205733Y-118972736D01*
X182205739Y-118972743D01*
X182377256Y-119144260D01*
X182377263Y-119144266D01*
X182490321Y-119231018D01*
X182569711Y-119291936D01*
X182779788Y-119413224D01*
X183003900Y-119506054D01*
X183238211Y-119568838D01*
X183398940Y-119589998D01*
X183478711Y-119600500D01*
X183478712Y-119600500D01*
X184321289Y-119600500D01*
X184401052Y-119589999D01*
X184561789Y-119568838D01*
X184796100Y-119506054D01*
X185020212Y-119413224D01*
X185230289Y-119291936D01*
X185422738Y-119144265D01*
X185594265Y-118972738D01*
X185741936Y-118780289D01*
X185863224Y-118570212D01*
X185956054Y-118346100D01*
X186018838Y-118111789D01*
X186050500Y-117871288D01*
X186050500Y-117628712D01*
X186018838Y-117388211D01*
X185956054Y-117153900D01*
X185863224Y-116929788D01*
X185741936Y-116719711D01*
X185650073Y-116599992D01*
X185594266Y-116527263D01*
X185594260Y-116527256D01*
X185422743Y-116355739D01*
X185422736Y-116355733D01*
X185230293Y-116208067D01*
X185230292Y-116208066D01*
X185230289Y-116208064D01*
X185020212Y-116086776D01*
X185020205Y-116086773D01*
X184796104Y-115993947D01*
X184561785Y-115931161D01*
X184321289Y-115899500D01*
X184321288Y-115899500D01*
X183478712Y-115899500D01*
X183478711Y-115899500D01*
X183238214Y-115931161D01*
X183003895Y-115993947D01*
X182779794Y-116086773D01*
X182779785Y-116086777D01*
X182569706Y-116208067D01*
X182377263Y-116355733D01*
X182377256Y-116355739D01*
X182205739Y-116527256D01*
X182205733Y-116527263D01*
X182058067Y-116719706D01*
X181936777Y-116929785D01*
X181936773Y-116929794D01*
X181843947Y-117153895D01*
X181781161Y-117388214D01*
X181749500Y-117628711D01*
X180550500Y-117628711D01*
X180550500Y-116599992D01*
X180539999Y-116497203D01*
X180484814Y-116330666D01*
X180409193Y-116208067D01*
X180392713Y-116181348D01*
X180392710Y-116181344D01*
X180268655Y-116057289D01*
X180268651Y-116057286D01*
X180119337Y-115965187D01*
X180119335Y-115965186D01*
X180031890Y-115936210D01*
X179952797Y-115910001D01*
X179952795Y-115910000D01*
X179850015Y-115899500D01*
X179850008Y-115899500D01*
X176949992Y-115899500D01*
X176949984Y-115899500D01*
X176847204Y-115910000D01*
X176847203Y-115910001D01*
X176680664Y-115965186D01*
X176680662Y-115965187D01*
X176531348Y-116057286D01*
X176531344Y-116057289D01*
X176407289Y-116181344D01*
X176407286Y-116181348D01*
X176315187Y-116330662D01*
X176315186Y-116330664D01*
X176260001Y-116497203D01*
X176260000Y-116497204D01*
X176249500Y-116599984D01*
X159867188Y-116599984D01*
X159826493Y-116512713D01*
X159701059Y-116333575D01*
X159546425Y-116178941D01*
X159367287Y-116053507D01*
X159214756Y-115982380D01*
X159162319Y-115936210D01*
X159143167Y-115869016D01*
X159163383Y-115802135D01*
X159214756Y-115757619D01*
X159367287Y-115686493D01*
X159546425Y-115561059D01*
X159701059Y-115406425D01*
X159826493Y-115227287D01*
X159918914Y-115029090D01*
X159975514Y-114817854D01*
X159994574Y-114600000D01*
X159992849Y-114580289D01*
X159990426Y-114552584D01*
X159975514Y-114382146D01*
X159918914Y-114170910D01*
X159826493Y-113972713D01*
X159701059Y-113793575D01*
X159546425Y-113638941D01*
X159367287Y-113513507D01*
X159214756Y-113442380D01*
X159199233Y-113428712D01*
X176249500Y-113428712D01*
X176249500Y-113671288D01*
X176281162Y-113911789D01*
X176297487Y-113972713D01*
X176343947Y-114146104D01*
X176436773Y-114370205D01*
X176436777Y-114370214D01*
X176443663Y-114382140D01*
X176558064Y-114580289D01*
X176558066Y-114580292D01*
X176558067Y-114580293D01*
X176705733Y-114772736D01*
X176705739Y-114772743D01*
X176877256Y-114944260D01*
X176877262Y-114944265D01*
X177069711Y-115091936D01*
X177279788Y-115213224D01*
X177503900Y-115306054D01*
X177738211Y-115368838D01*
X177918586Y-115392584D01*
X177978711Y-115400500D01*
X177978712Y-115400500D01*
X178821289Y-115400500D01*
X178869388Y-115394167D01*
X179061789Y-115368838D01*
X179296100Y-115306054D01*
X179520212Y-115213224D01*
X179730289Y-115091936D01*
X179922738Y-114944265D01*
X180094265Y-114772738D01*
X180241936Y-114580289D01*
X180363224Y-114370212D01*
X180456054Y-114146100D01*
X180518838Y-113911789D01*
X180550500Y-113671288D01*
X180550500Y-113428712D01*
X181749500Y-113428712D01*
X181749500Y-113671288D01*
X181781162Y-113911789D01*
X181797487Y-113972713D01*
X181843947Y-114146104D01*
X181936773Y-114370205D01*
X181936777Y-114370214D01*
X181943663Y-114382140D01*
X182058064Y-114580289D01*
X182058066Y-114580292D01*
X182058067Y-114580293D01*
X182205733Y-114772736D01*
X182205739Y-114772743D01*
X182377256Y-114944260D01*
X182377262Y-114944265D01*
X182569711Y-115091936D01*
X182779788Y-115213224D01*
X183003900Y-115306054D01*
X183238211Y-115368838D01*
X183418586Y-115392584D01*
X183478711Y-115400500D01*
X183478712Y-115400500D01*
X184321289Y-115400500D01*
X184369388Y-115394167D01*
X184561789Y-115368838D01*
X184796100Y-115306054D01*
X185020212Y-115213224D01*
X185230289Y-115091936D01*
X185422738Y-114944265D01*
X185594265Y-114772738D01*
X185741936Y-114580289D01*
X185863224Y-114370212D01*
X185956054Y-114146100D01*
X186018838Y-113911789D01*
X186050500Y-113671288D01*
X186050500Y-113428712D01*
X186018838Y-113188211D01*
X185956054Y-112953900D01*
X185863224Y-112729788D01*
X185741936Y-112519711D01*
X185643350Y-112391231D01*
X185594266Y-112327263D01*
X185594260Y-112327256D01*
X185422743Y-112155739D01*
X185422736Y-112155733D01*
X185230293Y-112008067D01*
X185230292Y-112008066D01*
X185230289Y-112008064D01*
X185020212Y-111886776D01*
X184958990Y-111861417D01*
X184796104Y-111793947D01*
X184561785Y-111731161D01*
X184321289Y-111699500D01*
X184321288Y-111699500D01*
X183478712Y-111699500D01*
X183478711Y-111699500D01*
X183238214Y-111731161D01*
X183003895Y-111793947D01*
X182779794Y-111886773D01*
X182779785Y-111886777D01*
X182569706Y-112008067D01*
X182377263Y-112155733D01*
X182377256Y-112155739D01*
X182205739Y-112327256D01*
X182205733Y-112327263D01*
X182058067Y-112519706D01*
X182058064Y-112519710D01*
X182058064Y-112519711D01*
X182044679Y-112542894D01*
X181936777Y-112729785D01*
X181936773Y-112729794D01*
X181843947Y-112953895D01*
X181781161Y-113188214D01*
X181757955Y-113364486D01*
X181749500Y-113428712D01*
X180550500Y-113428712D01*
X180518838Y-113188211D01*
X180456054Y-112953900D01*
X180363224Y-112729788D01*
X180241936Y-112519711D01*
X180143350Y-112391231D01*
X180094266Y-112327263D01*
X180094260Y-112327256D01*
X179922743Y-112155739D01*
X179922736Y-112155733D01*
X179730293Y-112008067D01*
X179730292Y-112008066D01*
X179730289Y-112008064D01*
X179520212Y-111886776D01*
X179458990Y-111861417D01*
X179296104Y-111793947D01*
X179061785Y-111731161D01*
X178821289Y-111699500D01*
X178821288Y-111699500D01*
X177978712Y-111699500D01*
X177978711Y-111699500D01*
X177738214Y-111731161D01*
X177503895Y-111793947D01*
X177279794Y-111886773D01*
X177279785Y-111886777D01*
X177069706Y-112008067D01*
X176877263Y-112155733D01*
X176877256Y-112155739D01*
X176705739Y-112327256D01*
X176705733Y-112327263D01*
X176558067Y-112519706D01*
X176558064Y-112519710D01*
X176558064Y-112519711D01*
X176544679Y-112542894D01*
X176436777Y-112729785D01*
X176436773Y-112729794D01*
X176343947Y-112953895D01*
X176281161Y-113188214D01*
X176257955Y-113364486D01*
X176249500Y-113428712D01*
X159199233Y-113428712D01*
X159162319Y-113396210D01*
X159143167Y-113329016D01*
X159163383Y-113262135D01*
X159214756Y-113217619D01*
X159367287Y-113146493D01*
X159546425Y-113021059D01*
X159701059Y-112866425D01*
X159826493Y-112687287D01*
X159918914Y-112489090D01*
X159975514Y-112277854D01*
X159994574Y-112060000D01*
X159975514Y-111842146D01*
X159918914Y-111630910D01*
X159826493Y-111432713D01*
X159701059Y-111253575D01*
X159546425Y-111098941D01*
X159367287Y-110973507D01*
X159214756Y-110902380D01*
X159162319Y-110856210D01*
X159143167Y-110789016D01*
X159163383Y-110722135D01*
X159214756Y-110677619D01*
X159367287Y-110606493D01*
X159546425Y-110481059D01*
X159701059Y-110326425D01*
X159826493Y-110147287D01*
X159918914Y-109949090D01*
X159975514Y-109737854D01*
X159994574Y-109520000D01*
X159975514Y-109302146D01*
X159918914Y-109090910D01*
X159826493Y-108892713D01*
X159716242Y-108735258D01*
X181689500Y-108735258D01*
X181689500Y-108964741D01*
X181714446Y-109154215D01*
X181719452Y-109192238D01*
X181755533Y-109326895D01*
X181778842Y-109413887D01*
X181866650Y-109625876D01*
X181866657Y-109625890D01*
X181981392Y-109824617D01*
X182121081Y-110006661D01*
X182121089Y-110006670D01*
X182283330Y-110168911D01*
X182283338Y-110168918D01*
X182465382Y-110308607D01*
X182465385Y-110308608D01*
X182465388Y-110308611D01*
X182664112Y-110423344D01*
X182664117Y-110423346D01*
X182664123Y-110423349D01*
X182755480Y-110461190D01*
X182876113Y-110511158D01*
X183097762Y-110570548D01*
X183325266Y-110600500D01*
X183325273Y-110600500D01*
X183554727Y-110600500D01*
X183554734Y-110600500D01*
X183782238Y-110570548D01*
X184003887Y-110511158D01*
X184215888Y-110423344D01*
X184414612Y-110308611D01*
X184596661Y-110168919D01*
X184596665Y-110168914D01*
X184596670Y-110168911D01*
X184758911Y-110006670D01*
X184758914Y-110006665D01*
X184758919Y-110006661D01*
X184898611Y-109824612D01*
X185013344Y-109625888D01*
X185101158Y-109413887D01*
X185160548Y-109192238D01*
X185190500Y-108964734D01*
X185190500Y-108735266D01*
X185160548Y-108507762D01*
X185101158Y-108286113D01*
X185039649Y-108137618D01*
X185013349Y-108074123D01*
X185013346Y-108074117D01*
X185013344Y-108074112D01*
X184898611Y-107875388D01*
X184898608Y-107875385D01*
X184898607Y-107875382D01*
X184758918Y-107693338D01*
X184758911Y-107693330D01*
X184596670Y-107531089D01*
X184596661Y-107531081D01*
X184414617Y-107391392D01*
X184215890Y-107276657D01*
X184215876Y-107276650D01*
X184003887Y-107188842D01*
X183782238Y-107129452D01*
X183744215Y-107124446D01*
X183554741Y-107099500D01*
X183554734Y-107099500D01*
X183325266Y-107099500D01*
X183325258Y-107099500D01*
X183108715Y-107128009D01*
X183097762Y-107129452D01*
X183004076Y-107154554D01*
X182876112Y-107188842D01*
X182664123Y-107276650D01*
X182664109Y-107276657D01*
X182465382Y-107391392D01*
X182283338Y-107531081D01*
X182121081Y-107693338D01*
X181981392Y-107875382D01*
X181866657Y-108074109D01*
X181866650Y-108074123D01*
X181778842Y-108286112D01*
X181719453Y-108507759D01*
X181719451Y-108507770D01*
X181689500Y-108735258D01*
X159716242Y-108735258D01*
X159701059Y-108713575D01*
X159546425Y-108558941D01*
X159367287Y-108433507D01*
X159214756Y-108362380D01*
X159162319Y-108316210D01*
X159143167Y-108249016D01*
X159163383Y-108182135D01*
X159214756Y-108137619D01*
X159367287Y-108066493D01*
X159546425Y-107941059D01*
X159701059Y-107786425D01*
X159826493Y-107607287D01*
X159918914Y-107409090D01*
X159975514Y-107197854D01*
X159994574Y-106980000D01*
X159975514Y-106762146D01*
X159918914Y-106550910D01*
X159826493Y-106352713D01*
X159701059Y-106173575D01*
X159546425Y-106018941D01*
X159367287Y-105893507D01*
X159214756Y-105822380D01*
X159162319Y-105776210D01*
X159143167Y-105709016D01*
X159163383Y-105642135D01*
X159214756Y-105597619D01*
X159367287Y-105526493D01*
X159546425Y-105401059D01*
X159701059Y-105246425D01*
X159826493Y-105067287D01*
X159918914Y-104869090D01*
X159975514Y-104657854D01*
X159994574Y-104440000D01*
X159975514Y-104222146D01*
X159918914Y-104010910D01*
X159826493Y-103812713D01*
X159737248Y-103685258D01*
X181339500Y-103685258D01*
X181339500Y-103914741D01*
X181352162Y-104010910D01*
X181369452Y-104142238D01*
X181390863Y-104222146D01*
X181428842Y-104363887D01*
X181516650Y-104575876D01*
X181516657Y-104575890D01*
X181577435Y-104681161D01*
X181597079Y-104715186D01*
X181631392Y-104774617D01*
X181771081Y-104956661D01*
X181771089Y-104956670D01*
X181933330Y-105118911D01*
X181933338Y-105118918D01*
X182115382Y-105258607D01*
X182115385Y-105258608D01*
X182115388Y-105258611D01*
X182314112Y-105373344D01*
X182314117Y-105373346D01*
X182314123Y-105373349D01*
X182405480Y-105411190D01*
X182526113Y-105461158D01*
X182747762Y-105520548D01*
X182975266Y-105550500D01*
X182975273Y-105550500D01*
X183204727Y-105550500D01*
X183204734Y-105550500D01*
X183432238Y-105520548D01*
X183653887Y-105461158D01*
X183865888Y-105373344D01*
X184064612Y-105258611D01*
X184246661Y-105118919D01*
X184246665Y-105118914D01*
X184246670Y-105118911D01*
X184408911Y-104956670D01*
X184408914Y-104956665D01*
X184408919Y-104956661D01*
X184548611Y-104774612D01*
X184663344Y-104575888D01*
X184751158Y-104363887D01*
X184810548Y-104142238D01*
X184840500Y-103914734D01*
X184840500Y-103685266D01*
X184810548Y-103457762D01*
X184751158Y-103236113D01*
X184677223Y-103057618D01*
X184663349Y-103024123D01*
X184663346Y-103024117D01*
X184663344Y-103024112D01*
X184548611Y-102825388D01*
X184548608Y-102825385D01*
X184548607Y-102825382D01*
X184408918Y-102643338D01*
X184408911Y-102643330D01*
X184246670Y-102481089D01*
X184246661Y-102481081D01*
X184064617Y-102341392D01*
X184043295Y-102329082D01*
X183865888Y-102226656D01*
X183865876Y-102226650D01*
X183653887Y-102138842D01*
X183575576Y-102117859D01*
X183432238Y-102079452D01*
X183394215Y-102074446D01*
X183204741Y-102049500D01*
X183204734Y-102049500D01*
X182975266Y-102049500D01*
X182975258Y-102049500D01*
X182758715Y-102078009D01*
X182747762Y-102079452D01*
X182654076Y-102104554D01*
X182526112Y-102138842D01*
X182314123Y-102226650D01*
X182314109Y-102226657D01*
X182115382Y-102341392D01*
X181933338Y-102481081D01*
X181771081Y-102643338D01*
X181631392Y-102825382D01*
X181516657Y-103024109D01*
X181516650Y-103024123D01*
X181428842Y-103236112D01*
X181369453Y-103457759D01*
X181369451Y-103457770D01*
X181339500Y-103685258D01*
X159737248Y-103685258D01*
X159701059Y-103633575D01*
X159546425Y-103478941D01*
X159367287Y-103353507D01*
X159214756Y-103282380D01*
X159162319Y-103236210D01*
X159143167Y-103169016D01*
X159163383Y-103102135D01*
X159214756Y-103057619D01*
X159367287Y-102986493D01*
X159546425Y-102861059D01*
X159701059Y-102706425D01*
X159826493Y-102527287D01*
X159918914Y-102329090D01*
X159975514Y-102117854D01*
X159994574Y-101900000D01*
X159975514Y-101682146D01*
X159918914Y-101470910D01*
X159826493Y-101272713D01*
X159701059Y-101093575D01*
X159546425Y-100938941D01*
X159367287Y-100813507D01*
X159214756Y-100742380D01*
X159162319Y-100696210D01*
X159143167Y-100629016D01*
X159163383Y-100562135D01*
X159214756Y-100517619D01*
X159367287Y-100446493D01*
X159546425Y-100321059D01*
X159701059Y-100166425D01*
X159826493Y-99987287D01*
X159918914Y-99789090D01*
X159975514Y-99577854D01*
X159994574Y-99360000D01*
X159975514Y-99142146D01*
X159918914Y-98930910D01*
X159826493Y-98732713D01*
X159701059Y-98553575D01*
X159546425Y-98398941D01*
X159367287Y-98273507D01*
X159214756Y-98202380D01*
X159162319Y-98156210D01*
X159143167Y-98089016D01*
X159163383Y-98022135D01*
X159214756Y-97977619D01*
X159274020Y-97949984D01*
X175899500Y-97949984D01*
X175899500Y-100250015D01*
X175910000Y-100352795D01*
X175910001Y-100352797D01*
X175923162Y-100392514D01*
X175965186Y-100519335D01*
X175965187Y-100519337D01*
X176057286Y-100668651D01*
X176057289Y-100668655D01*
X176181344Y-100792710D01*
X176181348Y-100792713D01*
X176330662Y-100884812D01*
X176330664Y-100884813D01*
X176330666Y-100884814D01*
X176497203Y-100939999D01*
X176599992Y-100950500D01*
X176599997Y-100950500D01*
X179500003Y-100950500D01*
X179500008Y-100950500D01*
X179602797Y-100939999D01*
X179769334Y-100884814D01*
X179918655Y-100792711D01*
X180042711Y-100668655D01*
X180134814Y-100519334D01*
X180189999Y-100352797D01*
X180200500Y-100250008D01*
X180200500Y-98978711D01*
X181399500Y-98978711D01*
X181399500Y-99221288D01*
X181431161Y-99461785D01*
X181493947Y-99696104D01*
X181532464Y-99789091D01*
X181586776Y-99920212D01*
X181708064Y-100130289D01*
X181708066Y-100130292D01*
X181708067Y-100130293D01*
X181855733Y-100322736D01*
X181855739Y-100322743D01*
X182027256Y-100494260D01*
X182027263Y-100494266D01*
X182085450Y-100538914D01*
X182219711Y-100641936D01*
X182429788Y-100763224D01*
X182653900Y-100856054D01*
X182888211Y-100918838D01*
X183040942Y-100938945D01*
X183128711Y-100950500D01*
X183128712Y-100950500D01*
X183971289Y-100950500D01*
X184051052Y-100939999D01*
X184211789Y-100918838D01*
X184446100Y-100856054D01*
X184670212Y-100763224D01*
X184880289Y-100641936D01*
X185072738Y-100494265D01*
X185244265Y-100322738D01*
X185391936Y-100130289D01*
X185513224Y-99920212D01*
X185606054Y-99696100D01*
X185668838Y-99461789D01*
X185700500Y-99221288D01*
X185700500Y-98978712D01*
X185668838Y-98738211D01*
X185606054Y-98503900D01*
X185601131Y-98492016D01*
X185562580Y-98398945D01*
X185513224Y-98279788D01*
X185391936Y-98069711D01*
X185300073Y-97949992D01*
X185244266Y-97877263D01*
X185244260Y-97877256D01*
X185072743Y-97705739D01*
X185072736Y-97705733D01*
X184880293Y-97558067D01*
X184880292Y-97558066D01*
X184880289Y-97558064D01*
X184670212Y-97436776D01*
X184670205Y-97436773D01*
X184446104Y-97343947D01*
X184211785Y-97281161D01*
X183971289Y-97249500D01*
X183971288Y-97249500D01*
X183128712Y-97249500D01*
X183128711Y-97249500D01*
X182888214Y-97281161D01*
X182653895Y-97343947D01*
X182429794Y-97436773D01*
X182429785Y-97436777D01*
X182219706Y-97558067D01*
X182027263Y-97705733D01*
X182027256Y-97705739D01*
X181855739Y-97877256D01*
X181855733Y-97877263D01*
X181708067Y-98069706D01*
X181586777Y-98279785D01*
X181586773Y-98279794D01*
X181493947Y-98503895D01*
X181431161Y-98738214D01*
X181399500Y-98978711D01*
X180200500Y-98978711D01*
X180200500Y-97949992D01*
X180189999Y-97847203D01*
X180134814Y-97680666D01*
X180127568Y-97668919D01*
X180042713Y-97531348D01*
X180042710Y-97531344D01*
X179918655Y-97407289D01*
X179918651Y-97407286D01*
X179769337Y-97315187D01*
X179769335Y-97315186D01*
X179686065Y-97287593D01*
X179602797Y-97260001D01*
X179602795Y-97260000D01*
X179500015Y-97249500D01*
X179500008Y-97249500D01*
X176599992Y-97249500D01*
X176599984Y-97249500D01*
X176497204Y-97260000D01*
X176497203Y-97260001D01*
X176330664Y-97315186D01*
X176330662Y-97315187D01*
X176181348Y-97407286D01*
X176181344Y-97407289D01*
X176057289Y-97531344D01*
X176057286Y-97531348D01*
X175965187Y-97680662D01*
X175965186Y-97680664D01*
X175910001Y-97847203D01*
X175910000Y-97847204D01*
X175899500Y-97949984D01*
X159274020Y-97949984D01*
X159367287Y-97906493D01*
X159546425Y-97781059D01*
X159701059Y-97626425D01*
X159826493Y-97447287D01*
X159918914Y-97249090D01*
X159975514Y-97037854D01*
X159994574Y-96820000D01*
X159975514Y-96602146D01*
X159918914Y-96390910D01*
X159826493Y-96192713D01*
X159701059Y-96013575D01*
X159546425Y-95858941D01*
X159367287Y-95733507D01*
X159214756Y-95662380D01*
X159162319Y-95616210D01*
X159143167Y-95549016D01*
X159163383Y-95482135D01*
X159214756Y-95437619D01*
X159367287Y-95366493D01*
X159546425Y-95241059D01*
X159701059Y-95086425D01*
X159826493Y-94907287D01*
X159886449Y-94778711D01*
X175899500Y-94778711D01*
X175899500Y-95021288D01*
X175931161Y-95261785D01*
X175993947Y-95496104D01*
X176054001Y-95641086D01*
X176086776Y-95720212D01*
X176208064Y-95930289D01*
X176208066Y-95930292D01*
X176208067Y-95930293D01*
X176355733Y-96122736D01*
X176355739Y-96122743D01*
X176527256Y-96294260D01*
X176527262Y-96294265D01*
X176719711Y-96441936D01*
X176929788Y-96563224D01*
X177153900Y-96656054D01*
X177388211Y-96718838D01*
X177568586Y-96742584D01*
X177628711Y-96750500D01*
X177628712Y-96750500D01*
X178471289Y-96750500D01*
X178519388Y-96744167D01*
X178711789Y-96718838D01*
X178946100Y-96656054D01*
X179170212Y-96563224D01*
X179380289Y-96441936D01*
X179572738Y-96294265D01*
X179744265Y-96122738D01*
X179891936Y-95930289D01*
X180013224Y-95720212D01*
X180106054Y-95496100D01*
X180168838Y-95261789D01*
X180200500Y-95021288D01*
X180200500Y-94778712D01*
X180200500Y-94778711D01*
X181399500Y-94778711D01*
X181399500Y-95021288D01*
X181431161Y-95261785D01*
X181493947Y-95496104D01*
X181554001Y-95641086D01*
X181586776Y-95720212D01*
X181708064Y-95930289D01*
X181708066Y-95930292D01*
X181708067Y-95930293D01*
X181855733Y-96122736D01*
X181855739Y-96122743D01*
X182027256Y-96294260D01*
X182027262Y-96294265D01*
X182219711Y-96441936D01*
X182429788Y-96563224D01*
X182653900Y-96656054D01*
X182888211Y-96718838D01*
X183068586Y-96742584D01*
X183128711Y-96750500D01*
X183128712Y-96750500D01*
X183971289Y-96750500D01*
X184019388Y-96744167D01*
X184211789Y-96718838D01*
X184446100Y-96656054D01*
X184670212Y-96563224D01*
X184880289Y-96441936D01*
X185072738Y-96294265D01*
X185244265Y-96122738D01*
X185391936Y-95930289D01*
X185513224Y-95720212D01*
X185606054Y-95496100D01*
X185668838Y-95261789D01*
X185700500Y-95021288D01*
X185700500Y-94778712D01*
X185700229Y-94776657D01*
X185680850Y-94629451D01*
X185668838Y-94538211D01*
X185606054Y-94303900D01*
X185513224Y-94079788D01*
X185391936Y-93869711D01*
X185244265Y-93677262D01*
X185244260Y-93677256D01*
X185072743Y-93505739D01*
X185072736Y-93505733D01*
X184880293Y-93358067D01*
X184880292Y-93358066D01*
X184880289Y-93358064D01*
X184670212Y-93236776D01*
X184626464Y-93218655D01*
X184446104Y-93143947D01*
X184211785Y-93081161D01*
X183971289Y-93049500D01*
X183971288Y-93049500D01*
X183128712Y-93049500D01*
X183128711Y-93049500D01*
X182888214Y-93081161D01*
X182653895Y-93143947D01*
X182429794Y-93236773D01*
X182429785Y-93236777D01*
X182219706Y-93358067D01*
X182027263Y-93505733D01*
X182027256Y-93505739D01*
X181855739Y-93677256D01*
X181855733Y-93677263D01*
X181708067Y-93869706D01*
X181586777Y-94079785D01*
X181586773Y-94079794D01*
X181493947Y-94303895D01*
X181431161Y-94538214D01*
X181399500Y-94778711D01*
X180200500Y-94778711D01*
X180200229Y-94776657D01*
X180180850Y-94629451D01*
X180168838Y-94538211D01*
X180106054Y-94303900D01*
X180013224Y-94079788D01*
X179891936Y-93869711D01*
X179744265Y-93677262D01*
X179744260Y-93677256D01*
X179572743Y-93505739D01*
X179572736Y-93505733D01*
X179380293Y-93358067D01*
X179380292Y-93358066D01*
X179380289Y-93358064D01*
X179170212Y-93236776D01*
X179126464Y-93218655D01*
X178946104Y-93143947D01*
X178711785Y-93081161D01*
X178471289Y-93049500D01*
X178471288Y-93049500D01*
X177628712Y-93049500D01*
X177628711Y-93049500D01*
X177388214Y-93081161D01*
X177153895Y-93143947D01*
X176929794Y-93236773D01*
X176929785Y-93236777D01*
X176719706Y-93358067D01*
X176527263Y-93505733D01*
X176527256Y-93505739D01*
X176355739Y-93677256D01*
X176355733Y-93677263D01*
X176208067Y-93869706D01*
X176086777Y-94079785D01*
X176086773Y-94079794D01*
X175993947Y-94303895D01*
X175931161Y-94538214D01*
X175899500Y-94778711D01*
X159886449Y-94778711D01*
X159918914Y-94709090D01*
X159975514Y-94497854D01*
X159994574Y-94280000D01*
X159975514Y-94062146D01*
X159918914Y-93850910D01*
X159826493Y-93652713D01*
X159701059Y-93473575D01*
X159546425Y-93318941D01*
X159367287Y-93193507D01*
X159214756Y-93122380D01*
X159162319Y-93076210D01*
X159143167Y-93009016D01*
X159163383Y-92942135D01*
X159214756Y-92897619D01*
X159367287Y-92826493D01*
X159546425Y-92701059D01*
X159701059Y-92546425D01*
X159826493Y-92367287D01*
X159918914Y-92169090D01*
X159975514Y-91957854D01*
X159994574Y-91740000D01*
X159975514Y-91522146D01*
X159918914Y-91310910D01*
X159826493Y-91112713D01*
X159701059Y-90933575D01*
X159546425Y-90778941D01*
X159367287Y-90653507D01*
X159214756Y-90582380D01*
X159162319Y-90536210D01*
X159143167Y-90469016D01*
X159163383Y-90402135D01*
X159214756Y-90357619D01*
X159367287Y-90286493D01*
X159546425Y-90161059D01*
X159622226Y-90085258D01*
X181339500Y-90085258D01*
X181339500Y-90314741D01*
X181359812Y-90469016D01*
X181369452Y-90542238D01*
X181390211Y-90619711D01*
X181428842Y-90763887D01*
X181516650Y-90975876D01*
X181516657Y-90975890D01*
X181631392Y-91174617D01*
X181771081Y-91356661D01*
X181771089Y-91356670D01*
X181933330Y-91518911D01*
X181933338Y-91518918D01*
X181933339Y-91518919D01*
X181983962Y-91557764D01*
X182115382Y-91658607D01*
X182115385Y-91658608D01*
X182115388Y-91658611D01*
X182314112Y-91773344D01*
X182314117Y-91773346D01*
X182314123Y-91773349D01*
X182405480Y-91811190D01*
X182526113Y-91861158D01*
X182747762Y-91920548D01*
X182975266Y-91950500D01*
X182975273Y-91950500D01*
X183204727Y-91950500D01*
X183204734Y-91950500D01*
X183432238Y-91920548D01*
X183653887Y-91861158D01*
X183865888Y-91773344D01*
X184064612Y-91658611D01*
X184246661Y-91518919D01*
X184246665Y-91518914D01*
X184246670Y-91518911D01*
X184408911Y-91356670D01*
X184408914Y-91356665D01*
X184408919Y-91356661D01*
X184548611Y-91174612D01*
X184663344Y-90975888D01*
X184751158Y-90763887D01*
X184810548Y-90542238D01*
X184840500Y-90314734D01*
X184840500Y-90085266D01*
X184810548Y-89857762D01*
X184751158Y-89636113D01*
X184663344Y-89424112D01*
X184548611Y-89225388D01*
X184548608Y-89225385D01*
X184548607Y-89225382D01*
X184408918Y-89043338D01*
X184408911Y-89043330D01*
X184246670Y-88881089D01*
X184246661Y-88881081D01*
X184064617Y-88741392D01*
X183865890Y-88626657D01*
X183865876Y-88626650D01*
X183653887Y-88538842D01*
X183432238Y-88479452D01*
X183394215Y-88474446D01*
X183204741Y-88449500D01*
X183204734Y-88449500D01*
X182975266Y-88449500D01*
X182975258Y-88449500D01*
X182758715Y-88478009D01*
X182747762Y-88479452D01*
X182654076Y-88504554D01*
X182526112Y-88538842D01*
X182314123Y-88626650D01*
X182314109Y-88626657D01*
X182115382Y-88741392D01*
X181933338Y-88881081D01*
X181771081Y-89043338D01*
X181631392Y-89225382D01*
X181516657Y-89424109D01*
X181516650Y-89424123D01*
X181428842Y-89636112D01*
X181428842Y-89636113D01*
X181376580Y-89831162D01*
X181369453Y-89857759D01*
X181369451Y-89857770D01*
X181339500Y-90085258D01*
X159622226Y-90085258D01*
X159701059Y-90006425D01*
X159826493Y-89827287D01*
X159918914Y-89629090D01*
X159975514Y-89417854D01*
X159994574Y-89200000D01*
X159975514Y-88982146D01*
X159918914Y-88770910D01*
X159826493Y-88572713D01*
X159701059Y-88393575D01*
X159546425Y-88238941D01*
X159367287Y-88113507D01*
X159214756Y-88042380D01*
X159162319Y-87996210D01*
X159143167Y-87929016D01*
X159163383Y-87862135D01*
X159214756Y-87817619D01*
X159367287Y-87746493D01*
X159546425Y-87621059D01*
X159701059Y-87466425D01*
X159826493Y-87287287D01*
X159918914Y-87089090D01*
X159975514Y-86877854D01*
X159994574Y-86660000D01*
X159975514Y-86442146D01*
X159918914Y-86230910D01*
X159826493Y-86032713D01*
X159701059Y-85853575D01*
X159546425Y-85698941D01*
X159384069Y-85585258D01*
X181289500Y-85585258D01*
X181289500Y-85814741D01*
X181311327Y-85980522D01*
X181319452Y-86042238D01*
X181354787Y-86174112D01*
X181378842Y-86263887D01*
X181466650Y-86475876D01*
X181466657Y-86475890D01*
X181581392Y-86674617D01*
X181721081Y-86856661D01*
X181721089Y-86856670D01*
X181883330Y-87018911D01*
X181883338Y-87018918D01*
X182065382Y-87158607D01*
X182065385Y-87158608D01*
X182065388Y-87158611D01*
X182264112Y-87273344D01*
X182264117Y-87273346D01*
X182264123Y-87273349D01*
X182355480Y-87311190D01*
X182476113Y-87361158D01*
X182697762Y-87420548D01*
X182925266Y-87450500D01*
X182925273Y-87450500D01*
X183154727Y-87450500D01*
X183154734Y-87450500D01*
X183382238Y-87420548D01*
X183603887Y-87361158D01*
X183815888Y-87273344D01*
X184014612Y-87158611D01*
X184196661Y-87018919D01*
X184196665Y-87018914D01*
X184196670Y-87018911D01*
X184358911Y-86856670D01*
X184358914Y-86856665D01*
X184358919Y-86856661D01*
X184498611Y-86674612D01*
X184613344Y-86475888D01*
X184701158Y-86263887D01*
X184760548Y-86042238D01*
X184790500Y-85814734D01*
X184790500Y-85585266D01*
X184760548Y-85357762D01*
X184701158Y-85136113D01*
X184620102Y-84940426D01*
X184613349Y-84924123D01*
X184613346Y-84924117D01*
X184613344Y-84924112D01*
X184498611Y-84725388D01*
X184498608Y-84725385D01*
X184498607Y-84725382D01*
X184397764Y-84593962D01*
X184358919Y-84543339D01*
X184358918Y-84543338D01*
X184358911Y-84543330D01*
X184196670Y-84381089D01*
X184196661Y-84381081D01*
X184014617Y-84241392D01*
X183815890Y-84126657D01*
X183815876Y-84126650D01*
X183603887Y-84038842D01*
X183382238Y-83979452D01*
X183344215Y-83974446D01*
X183154741Y-83949500D01*
X183154734Y-83949500D01*
X182925266Y-83949500D01*
X182925258Y-83949500D01*
X182708715Y-83978009D01*
X182697762Y-83979452D01*
X182604076Y-84004554D01*
X182476112Y-84038842D01*
X182264123Y-84126650D01*
X182264109Y-84126657D01*
X182065382Y-84241392D01*
X181883338Y-84381081D01*
X181721081Y-84543338D01*
X181581392Y-84725382D01*
X181466657Y-84924109D01*
X181466650Y-84924123D01*
X181402476Y-85079055D01*
X181378842Y-85136113D01*
X181320055Y-85355514D01*
X181319453Y-85357759D01*
X181319451Y-85357770D01*
X181289500Y-85585258D01*
X159384069Y-85585258D01*
X159367287Y-85573507D01*
X159214756Y-85502380D01*
X159162319Y-85456210D01*
X159143167Y-85389016D01*
X159163383Y-85322135D01*
X159214756Y-85277619D01*
X159367287Y-85206493D01*
X159546425Y-85081059D01*
X159701059Y-84926425D01*
X159826493Y-84747287D01*
X159918914Y-84549090D01*
X159975514Y-84337854D01*
X159994574Y-84120000D01*
X159975514Y-83902146D01*
X159927604Y-83723342D01*
X159918916Y-83690917D01*
X159918915Y-83690916D01*
X159918914Y-83690910D01*
X159826493Y-83492713D01*
X159701059Y-83313575D01*
X159546425Y-83158941D01*
X159367287Y-83033507D01*
X159214756Y-82962380D01*
X159162319Y-82916210D01*
X159143167Y-82849016D01*
X159163383Y-82782135D01*
X159214756Y-82737619D01*
X159367287Y-82666493D01*
X159546425Y-82541059D01*
X159701059Y-82386425D01*
X159826493Y-82207287D01*
X159918914Y-82009090D01*
X159975514Y-81797854D01*
X159994574Y-81580000D01*
X159975514Y-81362146D01*
X159918914Y-81150910D01*
X159826493Y-80952713D01*
X159701059Y-80773575D01*
X159546425Y-80618941D01*
X159367287Y-80493507D01*
X159214756Y-80422380D01*
X159162319Y-80376210D01*
X159143167Y-80309016D01*
X159163383Y-80242135D01*
X159214756Y-80197619D01*
X159367287Y-80126493D01*
X159546425Y-80001059D01*
X159697500Y-79849984D01*
X175849500Y-79849984D01*
X175849500Y-82150015D01*
X175860000Y-82252795D01*
X175860001Y-82252797D01*
X175863957Y-82264734D01*
X175915186Y-82419335D01*
X175915187Y-82419337D01*
X176007286Y-82568651D01*
X176007288Y-82568654D01*
X176131344Y-82692710D01*
X176131348Y-82692713D01*
X176280662Y-82784812D01*
X176280664Y-82784813D01*
X176280666Y-82784814D01*
X176447203Y-82839999D01*
X176549992Y-82850500D01*
X176549997Y-82850500D01*
X179450003Y-82850500D01*
X179450008Y-82850500D01*
X179552797Y-82839999D01*
X179719334Y-82784814D01*
X179868655Y-82692711D01*
X179992711Y-82568655D01*
X180084814Y-82419334D01*
X180139999Y-82252797D01*
X180150500Y-82150008D01*
X180150500Y-80750000D01*
X181366950Y-80750000D01*
X182845879Y-80750000D01*
X182826901Y-80795818D01*
X182800000Y-80931056D01*
X182800000Y-81068944D01*
X182826901Y-81204182D01*
X182845879Y-81250000D01*
X181366950Y-81250000D01*
X181381653Y-81361687D01*
X181444421Y-81595939D01*
X181537220Y-81819978D01*
X181537227Y-81819993D01*
X181658480Y-82030009D01*
X181806110Y-82222405D01*
X181806116Y-82222412D01*
X181977587Y-82393883D01*
X181977594Y-82393889D01*
X182169990Y-82541519D01*
X182380006Y-82662772D01*
X182380021Y-82662779D01*
X182604060Y-82755578D01*
X182838312Y-82818346D01*
X183078735Y-82849998D01*
X183078752Y-82850000D01*
X183250000Y-82850000D01*
X183250000Y-81654120D01*
X183295818Y-81673099D01*
X183431056Y-81700000D01*
X183568944Y-81700000D01*
X183704182Y-81673099D01*
X183750000Y-81654120D01*
X183750000Y-82850000D01*
X183921248Y-82850000D01*
X183921264Y-82849998D01*
X184161687Y-82818346D01*
X184395939Y-82755578D01*
X184619978Y-82662779D01*
X184619993Y-82662772D01*
X184830009Y-82541519D01*
X185022405Y-82393889D01*
X185022412Y-82393883D01*
X185193883Y-82222412D01*
X185193889Y-82222405D01*
X185341519Y-82030009D01*
X185462772Y-81819993D01*
X185462779Y-81819978D01*
X185555578Y-81595939D01*
X185618346Y-81361687D01*
X185633050Y-81250000D01*
X184154121Y-81250000D01*
X184173099Y-81204182D01*
X184200000Y-81068944D01*
X184200000Y-80931056D01*
X184173099Y-80795818D01*
X184154121Y-80750000D01*
X185633049Y-80750000D01*
X185618346Y-80638312D01*
X185555578Y-80404060D01*
X185462779Y-80180021D01*
X185462772Y-80180006D01*
X185341519Y-79969990D01*
X185193889Y-79777594D01*
X185193883Y-79777587D01*
X185022412Y-79606116D01*
X185022405Y-79606110D01*
X184830009Y-79458480D01*
X184619993Y-79337227D01*
X184619978Y-79337220D01*
X184395939Y-79244421D01*
X184161687Y-79181653D01*
X183921264Y-79150001D01*
X183921248Y-79150000D01*
X183750000Y-79150000D01*
X183750000Y-80345879D01*
X183704182Y-80326901D01*
X183568944Y-80300000D01*
X183431056Y-80300000D01*
X183295818Y-80326901D01*
X183250000Y-80345879D01*
X183250000Y-79150000D01*
X183078752Y-79150000D01*
X183078735Y-79150001D01*
X182838312Y-79181653D01*
X182604060Y-79244421D01*
X182380021Y-79337220D01*
X182380006Y-79337227D01*
X182169990Y-79458480D01*
X181977594Y-79606110D01*
X181977587Y-79606116D01*
X181806116Y-79777587D01*
X181806110Y-79777594D01*
X181658480Y-79969990D01*
X181537227Y-80180006D01*
X181537220Y-80180021D01*
X181444421Y-80404060D01*
X181381653Y-80638312D01*
X181366950Y-80750000D01*
X180150500Y-80750000D01*
X180150500Y-79849992D01*
X180139999Y-79747203D01*
X180084814Y-79580666D01*
X179992711Y-79431345D01*
X179868655Y-79307289D01*
X179868651Y-79307286D01*
X179719337Y-79215187D01*
X179719335Y-79215186D01*
X179618138Y-79181653D01*
X179552797Y-79160001D01*
X179552795Y-79160000D01*
X179450015Y-79149500D01*
X179450008Y-79149500D01*
X176549992Y-79149500D01*
X176549984Y-79149500D01*
X176447204Y-79160000D01*
X176447203Y-79160001D01*
X176280664Y-79215186D01*
X176280662Y-79215187D01*
X176131348Y-79307286D01*
X176131344Y-79307289D01*
X176007289Y-79431344D01*
X176007286Y-79431348D01*
X175915187Y-79580662D01*
X175915186Y-79580664D01*
X175860001Y-79747203D01*
X175860000Y-79747204D01*
X175849500Y-79849984D01*
X159697500Y-79849984D01*
X159701059Y-79846425D01*
X159826493Y-79667287D01*
X159918914Y-79469090D01*
X159975514Y-79257854D01*
X159994574Y-79040000D01*
X159975514Y-78822146D01*
X159918914Y-78610910D01*
X159826493Y-78412713D01*
X159701059Y-78233575D01*
X159546425Y-78078941D01*
X159367287Y-77953507D01*
X159214756Y-77882380D01*
X159162319Y-77836210D01*
X159143167Y-77769016D01*
X159163383Y-77702135D01*
X159214756Y-77657619D01*
X159367287Y-77586493D01*
X159546425Y-77461059D01*
X159701059Y-77306425D01*
X159826493Y-77127287D01*
X159918914Y-76929090D01*
X159975514Y-76717854D01*
X159994574Y-76500000D01*
X159975514Y-76282146D01*
X159949553Y-76185258D01*
X181289500Y-76185258D01*
X181289500Y-76414741D01*
X181314446Y-76604215D01*
X181319452Y-76642238D01*
X181375305Y-76850686D01*
X181378842Y-76863887D01*
X181466650Y-77075876D01*
X181466657Y-77075890D01*
X181581392Y-77274617D01*
X181721081Y-77456661D01*
X181721089Y-77456670D01*
X181883330Y-77618911D01*
X181883338Y-77618918D01*
X182065382Y-77758607D01*
X182065385Y-77758608D01*
X182065388Y-77758611D01*
X182264112Y-77873344D01*
X182264117Y-77873346D01*
X182264123Y-77873349D01*
X182355480Y-77911190D01*
X182476113Y-77961158D01*
X182697762Y-78020548D01*
X182925266Y-78050500D01*
X182925273Y-78050500D01*
X183154727Y-78050500D01*
X183154734Y-78050500D01*
X183382238Y-78020548D01*
X183603887Y-77961158D01*
X183815888Y-77873344D01*
X184014612Y-77758611D01*
X184196661Y-77618919D01*
X184196665Y-77618914D01*
X184196670Y-77618911D01*
X184358911Y-77456670D01*
X184358914Y-77456665D01*
X184358919Y-77456661D01*
X184498611Y-77274612D01*
X184613344Y-77075888D01*
X184701158Y-76863887D01*
X184760548Y-76642238D01*
X184790500Y-76414734D01*
X184790500Y-76185266D01*
X184760548Y-75957762D01*
X184701158Y-75736113D01*
X184619488Y-75538945D01*
X184613349Y-75524123D01*
X184613346Y-75524117D01*
X184613344Y-75524112D01*
X184498611Y-75325388D01*
X184498608Y-75325385D01*
X184498607Y-75325382D01*
X184358918Y-75143338D01*
X184358911Y-75143330D01*
X184196670Y-74981089D01*
X184196661Y-74981081D01*
X184014617Y-74841392D01*
X183815890Y-74726657D01*
X183815876Y-74726650D01*
X183603887Y-74638842D01*
X183382238Y-74579452D01*
X183344215Y-74574446D01*
X183154741Y-74549500D01*
X183154734Y-74549500D01*
X182925266Y-74549500D01*
X182925258Y-74549500D01*
X182708715Y-74578009D01*
X182697762Y-74579452D01*
X182648271Y-74592713D01*
X182476112Y-74638842D01*
X182264123Y-74726650D01*
X182264109Y-74726657D01*
X182065382Y-74841392D01*
X181883338Y-74981081D01*
X181721081Y-75143338D01*
X181581392Y-75325382D01*
X181466657Y-75524109D01*
X181466650Y-75524123D01*
X181378842Y-75736112D01*
X181319453Y-75957759D01*
X181319451Y-75957770D01*
X181289500Y-76185258D01*
X159949553Y-76185258D01*
X159918914Y-76070910D01*
X159826493Y-75872713D01*
X159701059Y-75693575D01*
X159546425Y-75538941D01*
X159367287Y-75413507D01*
X159214756Y-75342380D01*
X159162319Y-75296210D01*
X159143167Y-75229016D01*
X159163383Y-75162135D01*
X159214756Y-75117619D01*
X159367287Y-75046493D01*
X159546425Y-74921059D01*
X159701059Y-74766425D01*
X159826493Y-74587287D01*
X159918914Y-74389090D01*
X159975514Y-74177854D01*
X159994574Y-73960000D01*
X159975514Y-73742146D01*
X159918914Y-73530910D01*
X159826493Y-73332713D01*
X159701059Y-73153575D01*
X159546425Y-72998941D01*
X159367287Y-72873507D01*
X159214756Y-72802380D01*
X159162319Y-72756210D01*
X159143167Y-72689016D01*
X159163383Y-72622135D01*
X159214756Y-72577619D01*
X159367287Y-72506493D01*
X159546425Y-72381059D01*
X159701059Y-72226425D01*
X159826493Y-72047287D01*
X159918914Y-71849090D01*
X159975514Y-71637854D01*
X159994574Y-71420000D01*
X159975514Y-71202146D01*
X159932539Y-71041760D01*
X159918916Y-70990917D01*
X159918915Y-70990916D01*
X159918914Y-70990910D01*
X159826493Y-70792713D01*
X159701059Y-70613575D01*
X159546425Y-70458941D01*
X159367287Y-70333507D01*
X159367288Y-70333507D01*
X159367286Y-70333506D01*
X159214166Y-70262105D01*
X159161727Y-70215932D01*
X159142575Y-70148739D01*
X159162791Y-70081858D01*
X159214167Y-70037340D01*
X159367040Y-69966055D01*
X159429068Y-69922622D01*
X159429068Y-69922621D01*
X158865572Y-69359125D01*
X158931179Y-69341546D01*
X159044121Y-69276339D01*
X159136339Y-69184121D01*
X159201546Y-69071179D01*
X159219125Y-69005572D01*
X159782621Y-69569068D01*
X159782622Y-69569068D01*
X159826056Y-69507039D01*
X159826058Y-69507035D01*
X159918440Y-69308919D01*
X159918444Y-69308910D01*
X159975018Y-69097771D01*
X159975020Y-69097761D01*
X159994072Y-68880001D01*
X159994072Y-68879998D01*
X159975020Y-68662238D01*
X159975018Y-68662228D01*
X159918444Y-68451089D01*
X159918440Y-68451080D01*
X159826057Y-68252964D01*
X159782621Y-68190930D01*
X159219124Y-68754426D01*
X159201546Y-68688821D01*
X159136339Y-68575879D01*
X159044121Y-68483661D01*
X158931179Y-68418454D01*
X158865572Y-68400874D01*
X159429068Y-67837378D01*
X159429067Y-67837377D01*
X159367036Y-67793942D01*
X159367034Y-67793941D01*
X159214166Y-67722658D01*
X159161727Y-67676486D01*
X159142575Y-67609292D01*
X159162791Y-67542411D01*
X159214164Y-67497895D01*
X159367287Y-67426493D01*
X159546425Y-67301059D01*
X159701059Y-67146425D01*
X159826493Y-66967287D01*
X159867797Y-66878711D01*
X182149500Y-66878711D01*
X182149500Y-67121288D01*
X182181161Y-67361785D01*
X182243947Y-67596104D01*
X182325895Y-67793944D01*
X182336776Y-67820212D01*
X182458064Y-68030289D01*
X182458066Y-68030292D01*
X182458067Y-68030293D01*
X182605733Y-68222736D01*
X182605739Y-68222743D01*
X182777256Y-68394260D01*
X182777262Y-68394265D01*
X182969711Y-68541936D01*
X183179788Y-68663224D01*
X183403900Y-68756054D01*
X183638211Y-68818838D01*
X183818586Y-68842584D01*
X183878711Y-68850500D01*
X183878712Y-68850500D01*
X184121289Y-68850500D01*
X184169388Y-68844167D01*
X184361789Y-68818838D01*
X184596100Y-68756054D01*
X184820212Y-68663224D01*
X185030289Y-68541936D01*
X185222738Y-68394265D01*
X185394265Y-68222738D01*
X185541936Y-68030289D01*
X185663224Y-67820212D01*
X185756054Y-67596100D01*
X185818838Y-67361789D01*
X185850500Y-67121288D01*
X185850500Y-66878712D01*
X185818838Y-66638211D01*
X185756054Y-66403900D01*
X185663224Y-66179788D01*
X185541936Y-65969711D01*
X185394265Y-65777262D01*
X185394260Y-65777256D01*
X185222743Y-65605739D01*
X185222736Y-65605733D01*
X185030293Y-65458067D01*
X185030292Y-65458066D01*
X185030289Y-65458064D01*
X184820212Y-65336776D01*
X184820205Y-65336773D01*
X184596104Y-65243947D01*
X184361785Y-65181161D01*
X184121289Y-65149500D01*
X184121288Y-65149500D01*
X183878712Y-65149500D01*
X183878711Y-65149500D01*
X183638214Y-65181161D01*
X183403895Y-65243947D01*
X183179794Y-65336773D01*
X183179785Y-65336777D01*
X182969706Y-65458067D01*
X182777263Y-65605733D01*
X182777256Y-65605739D01*
X182605739Y-65777256D01*
X182605733Y-65777263D01*
X182458067Y-65969706D01*
X182336777Y-66179785D01*
X182336773Y-66179794D01*
X182243947Y-66403895D01*
X182181161Y-66638214D01*
X182149500Y-66878711D01*
X159867797Y-66878711D01*
X159918914Y-66769090D01*
X159975514Y-66557854D01*
X159994574Y-66340000D01*
X159975514Y-66122146D01*
X159918914Y-65910910D01*
X159826493Y-65712713D01*
X159701059Y-65533575D01*
X159546425Y-65378941D01*
X159385477Y-65266244D01*
X159367286Y-65253506D01*
X159268188Y-65207296D01*
X159169090Y-65161086D01*
X159169086Y-65161085D01*
X159169082Y-65161083D01*
X158957859Y-65104487D01*
X158957849Y-65104485D01*
X158740001Y-65085426D01*
X158739999Y-65085426D01*
X158522150Y-65104485D01*
X158522140Y-65104487D01*
X158310917Y-65161083D01*
X158310908Y-65161087D01*
X158112713Y-65253506D01*
X157993797Y-65336773D01*
X157933575Y-65378941D01*
X157933573Y-65378942D01*
X157933570Y-65378945D01*
X157778945Y-65533570D01*
X157778942Y-65533573D01*
X157778941Y-65533575D01*
X157748355Y-65577256D01*
X157653506Y-65712713D01*
X157561087Y-65910908D01*
X157561083Y-65910917D01*
X157504487Y-66122140D01*
X157504485Y-66122150D01*
X157485426Y-66339999D01*
X143995300Y-66339999D01*
X143995300Y-66274793D01*
X143961546Y-66148821D01*
X143927586Y-66090000D01*
X144749300Y-66090000D01*
X144749300Y-65542872D01*
X144749299Y-65542855D01*
X144742898Y-65483327D01*
X144742896Y-65483320D01*
X144692654Y-65348613D01*
X144692650Y-65348606D01*
X144606490Y-65233512D01*
X144606487Y-65233509D01*
X144491393Y-65147349D01*
X144491386Y-65147345D01*
X144356679Y-65097103D01*
X144356672Y-65097101D01*
X144297144Y-65090700D01*
X143750000Y-65090700D01*
X143750000Y-65912414D01*
X143691179Y-65878454D01*
X143565207Y-65844700D01*
X143434793Y-65844700D01*
X143308821Y-65878454D01*
X143250000Y-65912414D01*
X143250000Y-65090700D01*
X142702855Y-65090700D01*
X142643327Y-65097101D01*
X142643320Y-65097103D01*
X142508613Y-65147345D01*
X142508606Y-65147349D01*
X142393512Y-65233509D01*
X142393509Y-65233512D01*
X142307349Y-65348606D01*
X142307345Y-65348613D01*
X142257103Y-65483320D01*
X142257101Y-65483327D01*
X142250700Y-65542855D01*
X142250700Y-66090000D01*
X143072414Y-66090000D01*
X143038454Y-66148821D01*
X143004700Y-66274793D01*
X143004700Y-66405207D01*
X143038454Y-66531179D01*
X143072414Y-66590000D01*
X142250700Y-66590000D01*
X142250700Y-67137144D01*
X142257101Y-67196672D01*
X142257103Y-67196679D01*
X142307345Y-67331386D01*
X142307349Y-67331393D01*
X142393509Y-67446487D01*
X142393512Y-67446490D01*
X142508606Y-67532650D01*
X142508613Y-67532654D01*
X142643320Y-67582896D01*
X142643327Y-67582898D01*
X142702855Y-67589299D01*
X142702872Y-67589300D01*
X142771073Y-67589300D01*
X142838112Y-67608985D01*
X142883867Y-67661789D01*
X142893811Y-67730947D01*
X142864786Y-67794503D01*
X142842199Y-67814873D01*
X142693575Y-67918941D01*
X142693573Y-67918942D01*
X142693570Y-67918945D01*
X142538945Y-68073570D01*
X142413506Y-68252713D01*
X142321087Y-68450908D01*
X142321083Y-68450917D01*
X142264487Y-68662140D01*
X142264485Y-68662150D01*
X142245426Y-68879999D01*
X142245426Y-68880000D01*
X142264485Y-69097849D01*
X142264487Y-69097859D01*
X142321083Y-69309082D01*
X142321085Y-69309086D01*
X142321086Y-69309090D01*
X142336221Y-69341546D01*
X142413506Y-69507286D01*
X142413507Y-69507287D01*
X142538941Y-69686425D01*
X142693575Y-69841059D01*
X142872087Y-69966055D01*
X142872713Y-69966493D01*
X143025241Y-70037618D01*
X143077680Y-70083790D01*
X143096832Y-70150984D01*
X143076616Y-70217865D01*
X143025241Y-70262382D01*
X142872713Y-70333506D01*
X142753201Y-70417190D01*
X142693575Y-70458941D01*
X142693573Y-70458942D01*
X142693570Y-70458945D01*
X142538945Y-70613570D01*
X142413506Y-70792713D01*
X142321087Y-70990908D01*
X142321083Y-70990917D01*
X142264487Y-71202140D01*
X142264485Y-71202150D01*
X142245426Y-71419999D01*
X142245426Y-71420000D01*
X142264485Y-71637849D01*
X142264487Y-71637859D01*
X142321083Y-71849082D01*
X142321085Y-71849086D01*
X142321086Y-71849090D01*
X142334106Y-71877011D01*
X142413506Y-72047286D01*
X142413507Y-72047287D01*
X142538941Y-72226425D01*
X142693575Y-72381059D01*
X142872712Y-72506492D01*
X142872713Y-72506493D01*
X143025241Y-72577618D01*
X143077680Y-72623790D01*
X143096832Y-72690984D01*
X143076616Y-72757865D01*
X143025241Y-72802382D01*
X142872713Y-72873506D01*
X142753201Y-72957190D01*
X142693575Y-72998941D01*
X142693573Y-72998942D01*
X142693570Y-72998945D01*
X142538945Y-73153570D01*
X142413506Y-73332713D01*
X142321087Y-73530908D01*
X142321083Y-73530917D01*
X142264487Y-73742140D01*
X142264485Y-73742150D01*
X142245426Y-73959999D01*
X142245426Y-73960000D01*
X142264486Y-74177855D01*
X142264486Y-74177856D01*
X142281548Y-74241536D01*
X142279884Y-74311386D01*
X142249454Y-74361308D01*
X134231286Y-82379478D01*
X134119481Y-82491282D01*
X134119475Y-82491290D01*
X134074810Y-82568654D01*
X134074810Y-82568655D01*
X134040423Y-82628215D01*
X133999499Y-82780943D01*
X133999499Y-82780945D01*
X133999499Y-82949046D01*
X133999500Y-82949059D01*
X133999500Y-83117587D01*
X133979815Y-83184626D01*
X133972450Y-83194896D01*
X133970186Y-83197734D01*
X133874211Y-83350476D01*
X133814631Y-83520745D01*
X133814630Y-83520750D01*
X133794435Y-83699996D01*
X133794435Y-83700003D01*
X133814630Y-83879249D01*
X133814631Y-83879254D01*
X133874211Y-84049523D01*
X133922678Y-84126657D01*
X133970184Y-84202262D01*
X134097738Y-84329816D01*
X134250478Y-84425789D01*
X134420745Y-84485368D01*
X134420750Y-84485369D01*
X134599996Y-84505565D01*
X134600000Y-84505565D01*
X134600004Y-84505565D01*
X134779249Y-84485369D01*
X134779252Y-84485368D01*
X134779255Y-84485368D01*
X134949522Y-84425789D01*
X135102262Y-84329816D01*
X135229816Y-84202262D01*
X135325789Y-84049522D01*
X135385368Y-83879255D01*
X135386349Y-83870548D01*
X135405565Y-83700003D01*
X135405565Y-83699996D01*
X135385369Y-83520750D01*
X135385368Y-83520745D01*
X135325788Y-83350475D01*
X135268590Y-83259447D01*
X135236769Y-83208804D01*
X135217769Y-83141569D01*
X135238136Y-83074734D01*
X135254077Y-83055157D01*
X142046346Y-76262888D01*
X142107667Y-76229405D01*
X142177359Y-76234389D01*
X142233292Y-76276261D01*
X142257709Y-76341725D01*
X142257553Y-76361378D01*
X142245426Y-76499997D01*
X142245426Y-76500000D01*
X142264486Y-76717855D01*
X142264486Y-76717856D01*
X142281548Y-76781536D01*
X142279884Y-76851386D01*
X142249454Y-76901308D01*
X137631286Y-81519478D01*
X137519481Y-81631282D01*
X137519479Y-81631284D01*
X137500490Y-81664175D01*
X137492464Y-81678078D01*
X137440423Y-81768215D01*
X137399499Y-81920943D01*
X137399499Y-81920945D01*
X137399499Y-82089046D01*
X137399500Y-82089059D01*
X137399500Y-84699901D01*
X137379815Y-84766940D01*
X137363182Y-84787582D01*
X137287584Y-84863181D01*
X137226261Y-84896666D01*
X137199902Y-84899500D01*
X136286670Y-84899500D01*
X136286654Y-84899499D01*
X136279058Y-84899499D01*
X136120943Y-84899499D01*
X136069263Y-84913347D01*
X135968214Y-84940423D01*
X135968209Y-84940426D01*
X135831290Y-85019475D01*
X135831282Y-85019481D01*
X134581465Y-86269298D01*
X134520142Y-86302783D01*
X134507668Y-86304837D01*
X134420750Y-86314630D01*
X134250478Y-86374210D01*
X134097737Y-86470184D01*
X133970184Y-86597737D01*
X133874211Y-86750476D01*
X133814631Y-86920745D01*
X133814630Y-86920750D01*
X133794435Y-87099996D01*
X133794435Y-87100003D01*
X133814630Y-87279249D01*
X133814631Y-87279254D01*
X133874211Y-87449523D01*
X133884834Y-87466429D01*
X133970184Y-87602262D01*
X134097738Y-87729816D01*
X134250478Y-87825789D01*
X134354349Y-87862135D01*
X134420745Y-87885368D01*
X134420750Y-87885369D01*
X134599996Y-87905565D01*
X134600000Y-87905565D01*
X134600004Y-87905565D01*
X134779249Y-87885369D01*
X134779252Y-87885368D01*
X134779255Y-87885368D01*
X134949522Y-87825789D01*
X135102262Y-87729816D01*
X135229816Y-87602262D01*
X135325789Y-87449522D01*
X135385368Y-87279255D01*
X135395161Y-87192329D01*
X135422226Y-87127918D01*
X135430690Y-87118543D01*
X136412417Y-86136819D01*
X136473740Y-86103334D01*
X136500098Y-86100500D01*
X137413331Y-86100500D01*
X137413347Y-86100501D01*
X137420943Y-86100501D01*
X137579054Y-86100501D01*
X137579057Y-86100501D01*
X137731785Y-86059577D01*
X137791301Y-86025215D01*
X137868716Y-85980520D01*
X137980520Y-85868716D01*
X137980521Y-85868714D01*
X138480520Y-85368716D01*
X138559577Y-85231784D01*
X138600501Y-85079057D01*
X138600501Y-84920942D01*
X138600501Y-84913347D01*
X138600500Y-84913329D01*
X138600500Y-82931940D01*
X138620185Y-82864901D01*
X138672989Y-82819146D01*
X138742147Y-82809202D01*
X138805703Y-82838227D01*
X138812181Y-82844259D01*
X138897738Y-82929816D01*
X139050478Y-83025789D01*
X139220745Y-83085368D01*
X139227974Y-83086182D01*
X139292388Y-83113247D01*
X139301771Y-83121718D01*
X139313177Y-83133123D01*
X139346665Y-83194445D01*
X139349500Y-83220808D01*
X139349500Y-90844069D01*
X139349500Y-90844071D01*
X139349499Y-90844071D01*
X139373855Y-90966507D01*
X139374499Y-90969745D01*
X139423533Y-91088125D01*
X139494726Y-91194673D01*
X139494727Y-91194674D01*
X142234512Y-93934458D01*
X142267997Y-93995781D01*
X142266607Y-94054227D01*
X142264488Y-94062134D01*
X142264485Y-94062150D01*
X142245426Y-94279999D01*
X142245426Y-94280000D01*
X142264485Y-94497849D01*
X142264487Y-94497859D01*
X142321083Y-94709082D01*
X142321085Y-94709086D01*
X142321086Y-94709090D01*
X142367296Y-94808188D01*
X142413506Y-94907286D01*
X142413507Y-94907287D01*
X142538941Y-95086425D01*
X142693575Y-95241059D01*
X142872713Y-95366493D01*
X142891775Y-95375382D01*
X143025241Y-95437618D01*
X143077680Y-95483790D01*
X143096832Y-95550984D01*
X143076616Y-95617865D01*
X143025241Y-95662382D01*
X142872713Y-95733506D01*
X142765399Y-95808649D01*
X142693575Y-95858941D01*
X142693573Y-95858942D01*
X142693570Y-95858945D01*
X142538945Y-96013570D01*
X142413506Y-96192713D01*
X142321087Y-96390908D01*
X142321083Y-96390917D01*
X142264487Y-96602140D01*
X142264485Y-96602150D01*
X142245426Y-96819999D01*
X142245426Y-96820000D01*
X142264485Y-97037849D01*
X142264487Y-97037859D01*
X142321083Y-97249082D01*
X142321085Y-97249086D01*
X142321086Y-97249090D01*
X142351907Y-97315186D01*
X142413506Y-97447286D01*
X142413507Y-97447287D01*
X142538941Y-97626425D01*
X142693575Y-97781059D01*
X142872713Y-97906493D01*
X142966007Y-97949997D01*
X143025241Y-97977618D01*
X143077680Y-98023790D01*
X143096832Y-98090984D01*
X143076616Y-98157865D01*
X143025241Y-98202382D01*
X142872713Y-98273506D01*
X142765399Y-98348649D01*
X142693575Y-98398941D01*
X142693573Y-98398942D01*
X142693570Y-98398945D01*
X142538945Y-98553570D01*
X142413506Y-98732713D01*
X142321087Y-98930908D01*
X142321083Y-98930917D01*
X142264487Y-99142140D01*
X142264485Y-99142150D01*
X142245426Y-99359999D01*
X142245426Y-99360000D01*
X142264485Y-99577849D01*
X142264487Y-99577859D01*
X142321083Y-99789082D01*
X142321085Y-99789086D01*
X142321086Y-99789090D01*
X142367296Y-99888188D01*
X142413506Y-99987286D01*
X142413507Y-99987287D01*
X142538941Y-100166425D01*
X142693575Y-100321059D01*
X142872713Y-100446493D01*
X142975149Y-100494260D01*
X143025241Y-100517618D01*
X143077680Y-100563790D01*
X143096832Y-100630984D01*
X143076616Y-100697865D01*
X143025241Y-100742382D01*
X142872713Y-100813506D01*
X142770876Y-100884814D01*
X142693575Y-100938941D01*
X142693573Y-100938942D01*
X142693570Y-100938945D01*
X142538945Y-101093570D01*
X142413506Y-101272713D01*
X142321087Y-101470908D01*
X142321083Y-101470917D01*
X142264487Y-101682140D01*
X142264485Y-101682150D01*
X142245426Y-101899999D01*
X142245426Y-101900000D01*
X142264485Y-102117849D01*
X142264487Y-102117859D01*
X142321083Y-102329082D01*
X142321085Y-102329086D01*
X142321086Y-102329090D01*
X142326823Y-102341392D01*
X142413506Y-102527286D01*
X142440301Y-102565554D01*
X142462628Y-102631760D01*
X142445616Y-102699527D01*
X142426407Y-102724357D01*
X142319480Y-102831284D01*
X142319478Y-102831286D01*
X137981465Y-107169298D01*
X137920142Y-107202783D01*
X137907668Y-107204837D01*
X137820750Y-107214630D01*
X137650478Y-107274210D01*
X137497737Y-107370184D01*
X137370184Y-107497737D01*
X137274211Y-107650476D01*
X137214631Y-107820745D01*
X137214630Y-107820750D01*
X137194435Y-107999996D01*
X137194435Y-108000003D01*
X137214630Y-108179249D01*
X137214631Y-108179254D01*
X137274211Y-108349523D01*
X137326982Y-108433507D01*
X137370184Y-108502262D01*
X137497738Y-108629816D01*
X137584769Y-108684501D01*
X137631039Y-108713575D01*
X137650478Y-108725789D01*
X137820745Y-108785368D01*
X137820750Y-108785369D01*
X137999996Y-108805565D01*
X138000000Y-108805565D01*
X138000004Y-108805565D01*
X138179249Y-108785369D01*
X138179252Y-108785368D01*
X138179255Y-108785368D01*
X138349522Y-108725789D01*
X138502262Y-108629816D01*
X138629816Y-108502262D01*
X138725789Y-108349522D01*
X138785368Y-108179255D01*
X138795161Y-108092329D01*
X138822226Y-108027918D01*
X138830690Y-108018543D01*
X139170947Y-107678286D01*
X139232268Y-107644803D01*
X139301960Y-107649787D01*
X139357893Y-107691659D01*
X139382310Y-107757123D01*
X139374726Y-107803961D01*
X139376267Y-107804429D01*
X139374497Y-107810261D01*
X139349500Y-107935928D01*
X139349500Y-119679192D01*
X139329815Y-119746231D01*
X139313181Y-119766873D01*
X135316873Y-123763181D01*
X135255550Y-123796666D01*
X135229192Y-123799500D01*
X134924500Y-123799500D01*
X134857461Y-123779815D01*
X134811706Y-123727011D01*
X134800500Y-123675500D01*
X134800500Y-122999997D01*
X134800499Y-122999984D01*
X134789999Y-122897204D01*
X134789999Y-122897203D01*
X134734814Y-122730666D01*
X134685067Y-122650015D01*
X134642713Y-122581348D01*
X134642710Y-122581344D01*
X134518655Y-122457289D01*
X134518651Y-122457286D01*
X134369337Y-122365187D01*
X134369335Y-122365186D01*
X134279060Y-122335272D01*
X134202797Y-122310001D01*
X134202795Y-122310000D01*
X134100015Y-122299500D01*
X134100008Y-122299500D01*
X131799992Y-122299500D01*
X131799984Y-122299500D01*
X131697204Y-122310000D01*
X131697203Y-122310001D01*
X131530664Y-122365186D01*
X131530662Y-122365187D01*
X131381348Y-122457286D01*
X131381344Y-122457289D01*
X131257289Y-122581344D01*
X131257286Y-122581348D01*
X131165187Y-122730662D01*
X131165186Y-122730664D01*
X131110001Y-122897203D01*
X131110000Y-122897204D01*
X131099500Y-122999984D01*
X121275068Y-122999984D01*
X121324814Y-122919334D01*
X121379999Y-122752797D01*
X121390500Y-122650008D01*
X121390500Y-120349992D01*
X121379999Y-120247203D01*
X121324814Y-120080666D01*
X121249193Y-119958067D01*
X121232713Y-119931348D01*
X121232710Y-119931344D01*
X121108655Y-119807289D01*
X121108651Y-119807286D01*
X120959337Y-119715187D01*
X120959335Y-119715186D01*
X120876065Y-119687593D01*
X120792797Y-119660001D01*
X120792795Y-119660000D01*
X120690015Y-119649500D01*
X120690008Y-119649500D01*
X117789992Y-119649500D01*
X117789984Y-119649500D01*
X117687204Y-119660000D01*
X117687203Y-119660001D01*
X117520664Y-119715186D01*
X117520662Y-119715187D01*
X117371348Y-119807286D01*
X117371344Y-119807289D01*
X117247289Y-119931344D01*
X117247286Y-119931348D01*
X117155187Y-120080662D01*
X117155186Y-120080664D01*
X117100001Y-120247203D01*
X117100000Y-120247204D01*
X117089500Y-120349984D01*
X115490067Y-120349984D01*
X115434266Y-120277263D01*
X115434260Y-120277256D01*
X115262743Y-120105739D01*
X115262736Y-120105733D01*
X115070293Y-119958067D01*
X115070292Y-119958066D01*
X115070289Y-119958064D01*
X114860212Y-119836776D01*
X114860205Y-119836773D01*
X114636104Y-119743947D01*
X114401785Y-119681161D01*
X114161289Y-119649500D01*
X114161288Y-119649500D01*
X113318712Y-119649500D01*
X113318711Y-119649500D01*
X113078214Y-119681161D01*
X112843895Y-119743947D01*
X112619794Y-119836773D01*
X112619785Y-119836777D01*
X112409706Y-119958067D01*
X112217263Y-120105733D01*
X112217256Y-120105739D01*
X112045739Y-120277256D01*
X112045733Y-120277263D01*
X111898067Y-120469706D01*
X111776777Y-120679785D01*
X111776773Y-120679794D01*
X111683947Y-120903895D01*
X111621161Y-121138214D01*
X111589500Y-121378711D01*
X109484339Y-121378711D01*
X109477129Y-116685258D01*
X112449500Y-116685258D01*
X112449500Y-116914741D01*
X112474446Y-117104215D01*
X112479452Y-117142238D01*
X112482577Y-117153900D01*
X112538842Y-117363887D01*
X112626650Y-117575876D01*
X112626657Y-117575890D01*
X112741392Y-117774617D01*
X112881081Y-117956661D01*
X112881089Y-117956670D01*
X113043330Y-118118911D01*
X113043338Y-118118918D01*
X113225382Y-118258607D01*
X113225385Y-118258608D01*
X113225388Y-118258611D01*
X113424112Y-118373344D01*
X113424117Y-118373346D01*
X113424123Y-118373349D01*
X113514983Y-118410984D01*
X113636113Y-118461158D01*
X113857762Y-118520548D01*
X114085266Y-118550500D01*
X114085273Y-118550500D01*
X114314727Y-118550500D01*
X114314734Y-118550500D01*
X114542238Y-118520548D01*
X114763887Y-118461158D01*
X114975888Y-118373344D01*
X115174612Y-118258611D01*
X115356661Y-118118919D01*
X115356665Y-118118914D01*
X115356670Y-118118911D01*
X115518911Y-117956670D01*
X115518914Y-117956665D01*
X115518919Y-117956661D01*
X115658611Y-117774612D01*
X115773344Y-117575888D01*
X115861158Y-117363887D01*
X115920548Y-117142238D01*
X115950500Y-116914734D01*
X115950500Y-116685266D01*
X115920548Y-116457762D01*
X115861158Y-116236113D01*
X115799301Y-116086777D01*
X115773349Y-116024123D01*
X115773346Y-116024117D01*
X115773344Y-116024112D01*
X115658611Y-115825388D01*
X115658608Y-115825385D01*
X115658607Y-115825382D01*
X115518918Y-115643338D01*
X115518911Y-115643330D01*
X115356670Y-115481089D01*
X115356661Y-115481081D01*
X115174617Y-115341392D01*
X114975890Y-115226657D01*
X114975876Y-115226650D01*
X114763887Y-115138842D01*
X114542238Y-115079452D01*
X114504215Y-115074446D01*
X114314741Y-115049500D01*
X114314734Y-115049500D01*
X114085266Y-115049500D01*
X114085258Y-115049500D01*
X113868715Y-115078009D01*
X113857762Y-115079452D01*
X113811171Y-115091936D01*
X113636112Y-115138842D01*
X113424123Y-115226650D01*
X113424109Y-115226657D01*
X113225382Y-115341392D01*
X113043338Y-115481081D01*
X112881081Y-115643338D01*
X112741392Y-115825382D01*
X112626657Y-116024109D01*
X112626650Y-116024123D01*
X112538842Y-116236112D01*
X112479453Y-116457759D01*
X112479451Y-116457770D01*
X112449500Y-116685258D01*
X109477129Y-116685258D01*
X109471476Y-113005000D01*
X128521468Y-113005000D01*
X129469252Y-113005000D01*
X129447482Y-113042708D01*
X129410000Y-113182591D01*
X129410000Y-113327409D01*
X129447482Y-113467292D01*
X129469252Y-113505000D01*
X128521468Y-113505000D01*
X128543265Y-113642628D01*
X128613917Y-113860070D01*
X128717711Y-114063776D01*
X128852097Y-114248742D01*
X129013757Y-114410402D01*
X129198723Y-114544788D01*
X129402429Y-114648582D01*
X129619871Y-114719234D01*
X129710000Y-114733509D01*
X129710000Y-113745747D01*
X129747708Y-113767518D01*
X129887591Y-113805000D01*
X130032409Y-113805000D01*
X130172292Y-113767518D01*
X130210000Y-113745747D01*
X130210000Y-114733508D01*
X130300128Y-114719234D01*
X130517570Y-114648582D01*
X130721276Y-114544788D01*
X130906242Y-114410402D01*
X131067902Y-114248742D01*
X131202288Y-114063776D01*
X131234918Y-113999735D01*
X131282892Y-113948938D01*
X131350713Y-113932142D01*
X131416848Y-113954678D01*
X131445721Y-113983141D01*
X131544265Y-114118775D01*
X131683725Y-114258235D01*
X131843285Y-114374162D01*
X131948485Y-114427764D01*
X132019017Y-114463702D01*
X132112801Y-114494174D01*
X132206588Y-114524647D01*
X132296807Y-114538936D01*
X132401382Y-114555500D01*
X132401387Y-114555500D01*
X132598618Y-114555500D01*
X132693052Y-114540542D01*
X132793412Y-114524647D01*
X132980985Y-114463701D01*
X133156715Y-114374162D01*
X133316275Y-114258235D01*
X133455735Y-114118775D01*
X133562683Y-113971572D01*
X133618011Y-113928908D01*
X133687625Y-113922929D01*
X133749420Y-113955534D01*
X133783777Y-114016373D01*
X133787000Y-114044459D01*
X133787000Y-114299856D01*
X133787002Y-114299882D01*
X133789913Y-114324987D01*
X133789915Y-114324991D01*
X133835293Y-114427764D01*
X133835294Y-114427765D01*
X133914735Y-114507206D01*
X134017509Y-114552585D01*
X134042635Y-114555500D01*
X136037364Y-114555499D01*
X136037379Y-114555497D01*
X136037382Y-114555497D01*
X136062487Y-114552586D01*
X136062488Y-114552585D01*
X136062491Y-114552585D01*
X136165265Y-114507206D01*
X136244706Y-114427765D01*
X136290085Y-114324991D01*
X136293000Y-114299865D01*
X136292999Y-112210136D01*
X136292997Y-112210117D01*
X136290086Y-112185012D01*
X136290085Y-112185010D01*
X136290085Y-112185009D01*
X136244706Y-112082235D01*
X136165265Y-112002794D01*
X136125765Y-111985353D01*
X136062492Y-111957415D01*
X136037365Y-111954500D01*
X134042643Y-111954500D01*
X134042617Y-111954502D01*
X134017512Y-111957413D01*
X134017508Y-111957415D01*
X133914735Y-112002793D01*
X133835294Y-112082234D01*
X133789915Y-112185006D01*
X133789915Y-112185008D01*
X133787000Y-112210131D01*
X133787000Y-112465539D01*
X133767315Y-112532578D01*
X133714511Y-112578333D01*
X133645353Y-112588277D01*
X133581797Y-112559252D01*
X133562682Y-112538425D01*
X133542222Y-112510264D01*
X133455735Y-112391225D01*
X133316275Y-112251765D01*
X133156715Y-112135838D01*
X133085588Y-112099597D01*
X132980982Y-112046297D01*
X132793413Y-111985353D01*
X132598618Y-111954500D01*
X132598613Y-111954500D01*
X132401387Y-111954500D01*
X132401382Y-111954500D01*
X132206586Y-111985353D01*
X132019017Y-112046297D01*
X131843284Y-112135838D01*
X131683722Y-112251767D01*
X131544267Y-112391222D01*
X131544260Y-112391231D01*
X131445721Y-112526856D01*
X131390391Y-112569522D01*
X131320778Y-112575500D01*
X131258983Y-112542894D01*
X131234919Y-112510264D01*
X131202290Y-112446225D01*
X131067902Y-112261257D01*
X130906242Y-112099597D01*
X130721276Y-111965211D01*
X130517568Y-111861417D01*
X130300124Y-111790765D01*
X130210000Y-111776490D01*
X130210000Y-112764252D01*
X130172292Y-112742482D01*
X130032409Y-112705000D01*
X129887591Y-112705000D01*
X129747708Y-112742482D01*
X129710000Y-112764252D01*
X129710000Y-111776490D01*
X129709999Y-111776490D01*
X129619875Y-111790765D01*
X129402431Y-111861417D01*
X129198723Y-111965211D01*
X129013757Y-112099597D01*
X128852097Y-112261257D01*
X128717711Y-112446223D01*
X128613917Y-112649929D01*
X128543265Y-112867371D01*
X128521468Y-113005000D01*
X109471476Y-113005000D01*
X109468527Y-111085258D01*
X112909500Y-111085258D01*
X112909500Y-111314741D01*
X112934446Y-111504215D01*
X112939452Y-111542238D01*
X112998842Y-111763887D01*
X113086650Y-111975876D01*
X113086657Y-111975890D01*
X113201392Y-112174617D01*
X113341081Y-112356661D01*
X113341089Y-112356670D01*
X113503330Y-112518911D01*
X113503338Y-112518918D01*
X113685382Y-112658607D01*
X113685385Y-112658608D01*
X113685388Y-112658611D01*
X113884112Y-112773344D01*
X113884117Y-112773346D01*
X113884123Y-112773349D01*
X113975480Y-112811190D01*
X114096113Y-112861158D01*
X114317762Y-112920548D01*
X114545266Y-112950500D01*
X114545273Y-112950500D01*
X114774727Y-112950500D01*
X114774734Y-112950500D01*
X115002238Y-112920548D01*
X115223887Y-112861158D01*
X115435888Y-112773344D01*
X115634612Y-112658611D01*
X115816661Y-112518919D01*
X115816665Y-112518914D01*
X115816670Y-112518911D01*
X115978911Y-112356670D01*
X115978914Y-112356665D01*
X115978919Y-112356661D01*
X116118611Y-112174612D01*
X116233344Y-111975888D01*
X116321158Y-111763887D01*
X116380548Y-111542238D01*
X116410500Y-111314734D01*
X116410500Y-111085266D01*
X116380548Y-110857762D01*
X116321158Y-110636113D01*
X116233344Y-110424112D01*
X116118611Y-110225388D01*
X116118608Y-110225385D01*
X116118607Y-110225382D01*
X115978918Y-110043338D01*
X115978911Y-110043330D01*
X115816670Y-109881089D01*
X115816661Y-109881081D01*
X115634617Y-109741392D01*
X115628480Y-109737849D01*
X115435888Y-109626656D01*
X115435876Y-109626650D01*
X115223887Y-109538842D01*
X115002238Y-109479452D01*
X114964215Y-109474446D01*
X114774741Y-109449500D01*
X114774734Y-109449500D01*
X114545266Y-109449500D01*
X114545258Y-109449500D01*
X114328715Y-109478009D01*
X114317762Y-109479452D01*
X114224076Y-109504554D01*
X114096112Y-109538842D01*
X113884123Y-109626650D01*
X113884109Y-109626657D01*
X113685382Y-109741392D01*
X113503338Y-109881081D01*
X113341081Y-110043338D01*
X113201392Y-110225382D01*
X113086657Y-110424109D01*
X113086650Y-110424123D01*
X112998842Y-110636112D01*
X112939453Y-110857759D01*
X112939451Y-110857770D01*
X112909500Y-111085258D01*
X109468527Y-111085258D01*
X109461297Y-106378711D01*
X112049500Y-106378711D01*
X112049500Y-106621288D01*
X112081161Y-106861785D01*
X112143947Y-107096104D01*
X112218735Y-107276657D01*
X112236776Y-107320212D01*
X112358064Y-107530289D01*
X112358066Y-107530292D01*
X112358067Y-107530293D01*
X112505733Y-107722736D01*
X112505739Y-107722743D01*
X112677256Y-107894260D01*
X112677263Y-107894266D01*
X112731558Y-107935928D01*
X112869711Y-108041936D01*
X113079788Y-108163224D01*
X113206028Y-108215514D01*
X113298383Y-108253769D01*
X113303900Y-108256054D01*
X113538211Y-108318838D01*
X113718586Y-108342584D01*
X113778711Y-108350500D01*
X113778712Y-108350500D01*
X114621289Y-108350500D01*
X114669388Y-108344167D01*
X114861789Y-108318838D01*
X115096100Y-108256054D01*
X115320212Y-108163224D01*
X115530289Y-108041936D01*
X115722738Y-107894265D01*
X115894265Y-107722738D01*
X116041936Y-107530289D01*
X116163224Y-107320212D01*
X116256054Y-107096100D01*
X116318838Y-106861789D01*
X116350500Y-106621288D01*
X116350500Y-106378712D01*
X116318838Y-106138211D01*
X116256054Y-105903900D01*
X116163224Y-105679788D01*
X116041936Y-105469711D01*
X115950073Y-105349992D01*
X115950067Y-105349984D01*
X117549500Y-105349984D01*
X117549500Y-107650015D01*
X117560000Y-107752795D01*
X117560001Y-107752797D01*
X117571144Y-107786425D01*
X117615186Y-107919335D01*
X117615187Y-107919337D01*
X117707286Y-108068651D01*
X117707289Y-108068655D01*
X117831344Y-108192710D01*
X117831348Y-108192713D01*
X117980662Y-108284812D01*
X117980664Y-108284813D01*
X117980666Y-108284814D01*
X118147203Y-108339999D01*
X118249992Y-108350500D01*
X118249997Y-108350500D01*
X121150003Y-108350500D01*
X121150008Y-108350500D01*
X121252797Y-108339999D01*
X121419334Y-108284814D01*
X121568655Y-108192711D01*
X121692711Y-108068655D01*
X121784814Y-107919334D01*
X121839999Y-107752797D01*
X121850500Y-107650008D01*
X121850500Y-105349992D01*
X121839999Y-105247203D01*
X121784814Y-105080666D01*
X121709193Y-104958067D01*
X121692713Y-104931348D01*
X121692710Y-104931344D01*
X121568655Y-104807289D01*
X121568651Y-104807286D01*
X121419337Y-104715187D01*
X121419335Y-104715186D01*
X121336065Y-104687593D01*
X121252797Y-104660001D01*
X121252795Y-104660000D01*
X121150015Y-104649500D01*
X121150008Y-104649500D01*
X118249992Y-104649500D01*
X118249984Y-104649500D01*
X118147204Y-104660000D01*
X118147203Y-104660001D01*
X117980664Y-104715186D01*
X117980662Y-104715187D01*
X117831348Y-104807286D01*
X117831344Y-104807289D01*
X117707289Y-104931344D01*
X117707286Y-104931348D01*
X117615187Y-105080662D01*
X117615186Y-105080664D01*
X117560001Y-105247203D01*
X117560000Y-105247204D01*
X117549500Y-105349984D01*
X115950067Y-105349984D01*
X115894266Y-105277263D01*
X115894260Y-105277256D01*
X115722743Y-105105739D01*
X115722736Y-105105733D01*
X115530293Y-104958067D01*
X115530292Y-104958066D01*
X115530289Y-104958064D01*
X115320212Y-104836776D01*
X115320205Y-104836773D01*
X115096104Y-104743947D01*
X114861785Y-104681161D01*
X114621289Y-104649500D01*
X114621288Y-104649500D01*
X113778712Y-104649500D01*
X113778711Y-104649500D01*
X113538214Y-104681161D01*
X113303895Y-104743947D01*
X113079794Y-104836773D01*
X113079785Y-104836777D01*
X112915991Y-104931344D01*
X112872126Y-104956670D01*
X112869706Y-104958067D01*
X112677263Y-105105733D01*
X112677256Y-105105739D01*
X112505739Y-105277256D01*
X112505733Y-105277263D01*
X112358067Y-105469706D01*
X112236777Y-105679785D01*
X112236773Y-105679794D01*
X112143947Y-105903895D01*
X112081161Y-106138214D01*
X112049500Y-106378711D01*
X109461297Y-106378711D01*
X109454087Y-101685258D01*
X112909500Y-101685258D01*
X112909500Y-101914741D01*
X112931186Y-102079451D01*
X112939452Y-102142238D01*
X112962072Y-102226657D01*
X112998842Y-102363887D01*
X113086650Y-102575876D01*
X113086657Y-102575890D01*
X113125598Y-102643338D01*
X113194383Y-102762478D01*
X113201392Y-102774617D01*
X113341081Y-102956661D01*
X113341089Y-102956670D01*
X113503330Y-103118911D01*
X113503338Y-103118918D01*
X113685382Y-103258607D01*
X113685385Y-103258608D01*
X113685388Y-103258611D01*
X113884112Y-103373344D01*
X113884117Y-103373346D01*
X113884123Y-103373349D01*
X113975480Y-103411190D01*
X114096113Y-103461158D01*
X114317762Y-103520548D01*
X114545266Y-103550500D01*
X114545273Y-103550500D01*
X114774727Y-103550500D01*
X114774734Y-103550500D01*
X115002238Y-103520548D01*
X115223887Y-103461158D01*
X115435888Y-103373344D01*
X115634612Y-103258611D01*
X115816661Y-103118919D01*
X115816665Y-103118914D01*
X115816670Y-103118911D01*
X115978911Y-102956670D01*
X115978914Y-102956665D01*
X115978919Y-102956661D01*
X116118611Y-102774612D01*
X116233344Y-102575888D01*
X116321158Y-102363887D01*
X116380548Y-102142238D01*
X116410500Y-101914734D01*
X116410500Y-101685266D01*
X116380548Y-101457762D01*
X116321158Y-101236113D01*
X116233344Y-101024112D01*
X116118611Y-100825388D01*
X116118608Y-100825385D01*
X116118607Y-100825382D01*
X115978918Y-100643338D01*
X115978911Y-100643330D01*
X115816670Y-100481089D01*
X115816661Y-100481081D01*
X115634617Y-100341392D01*
X115435890Y-100226657D01*
X115435876Y-100226650D01*
X115223887Y-100138842D01*
X115191966Y-100130289D01*
X115002238Y-100079452D01*
X114964215Y-100074446D01*
X114774741Y-100049500D01*
X114774734Y-100049500D01*
X114545266Y-100049500D01*
X114545258Y-100049500D01*
X114328715Y-100078009D01*
X114317762Y-100079452D01*
X114224076Y-100104554D01*
X114096112Y-100138842D01*
X113884123Y-100226650D01*
X113884109Y-100226657D01*
X113685382Y-100341392D01*
X113503338Y-100481081D01*
X113341081Y-100643338D01*
X113201392Y-100825382D01*
X113086657Y-101024109D01*
X113086650Y-101024123D01*
X112998842Y-101236112D01*
X112939453Y-101457759D01*
X112939451Y-101457770D01*
X112909500Y-101685258D01*
X109454087Y-101685258D01*
X109445716Y-96235258D01*
X112959500Y-96235258D01*
X112959500Y-96464741D01*
X112972467Y-96563226D01*
X112989452Y-96692238D01*
X113048842Y-96913887D01*
X113136650Y-97125876D01*
X113136656Y-97125888D01*
X113245947Y-97315187D01*
X113251392Y-97324617D01*
X113391081Y-97506661D01*
X113391089Y-97506670D01*
X113553330Y-97668911D01*
X113553338Y-97668918D01*
X113735382Y-97808607D01*
X113735385Y-97808608D01*
X113735388Y-97808611D01*
X113934112Y-97923344D01*
X113934117Y-97923346D01*
X113934123Y-97923349D01*
X114008334Y-97954088D01*
X114146113Y-98011158D01*
X114367762Y-98070548D01*
X114595266Y-98100500D01*
X114595273Y-98100500D01*
X114824727Y-98100500D01*
X114824734Y-98100500D01*
X115052238Y-98070548D01*
X115273887Y-98011158D01*
X115485888Y-97923344D01*
X115684612Y-97808611D01*
X115866661Y-97668919D01*
X115866665Y-97668914D01*
X115866670Y-97668911D01*
X116028911Y-97506670D01*
X116028914Y-97506665D01*
X116028919Y-97506661D01*
X116168611Y-97324612D01*
X116283344Y-97125888D01*
X116371158Y-96913887D01*
X116430548Y-96692238D01*
X116460500Y-96464734D01*
X116460500Y-96235266D01*
X116430548Y-96007762D01*
X116371158Y-95786113D01*
X116283344Y-95574112D01*
X116168611Y-95375388D01*
X116168608Y-95375385D01*
X116168607Y-95375382D01*
X116028918Y-95193338D01*
X116028911Y-95193330D01*
X115866670Y-95031089D01*
X115866661Y-95031081D01*
X115684617Y-94891392D01*
X115485890Y-94776657D01*
X115485876Y-94776650D01*
X115273887Y-94688842D01*
X115052238Y-94629452D01*
X115014215Y-94624446D01*
X114824741Y-94599500D01*
X114824734Y-94599500D01*
X114595266Y-94599500D01*
X114595258Y-94599500D01*
X114378715Y-94628009D01*
X114367762Y-94629452D01*
X114274076Y-94654554D01*
X114146112Y-94688842D01*
X113934123Y-94776650D01*
X113934109Y-94776657D01*
X113735382Y-94891392D01*
X113553338Y-95031081D01*
X113391081Y-95193338D01*
X113251392Y-95375382D01*
X113136657Y-95574109D01*
X113136650Y-95574123D01*
X113048842Y-95786112D01*
X112989453Y-96007759D01*
X112989451Y-96007770D01*
X112959500Y-96235258D01*
X109445716Y-96235258D01*
X109438486Y-91528711D01*
X112099500Y-91528711D01*
X112099500Y-91771288D01*
X112124060Y-91957849D01*
X112131162Y-92011789D01*
X112152303Y-92090686D01*
X112193947Y-92246104D01*
X112244143Y-92367287D01*
X112286776Y-92470212D01*
X112408064Y-92680289D01*
X112408066Y-92680292D01*
X112408067Y-92680293D01*
X112555733Y-92872736D01*
X112555739Y-92872743D01*
X112727256Y-93044260D01*
X112727263Y-93044266D01*
X112771050Y-93077865D01*
X112919711Y-93191936D01*
X113129788Y-93313224D01*
X113353900Y-93406054D01*
X113588211Y-93468838D01*
X113748940Y-93489998D01*
X113828711Y-93500500D01*
X113828712Y-93500500D01*
X114671289Y-93500500D01*
X114751052Y-93489999D01*
X114911789Y-93468838D01*
X115146100Y-93406054D01*
X115370212Y-93313224D01*
X115580289Y-93191936D01*
X115772738Y-93044265D01*
X115944265Y-92872738D01*
X116091936Y-92680289D01*
X116213224Y-92470212D01*
X116306054Y-92246100D01*
X116368838Y-92011789D01*
X116400500Y-91771288D01*
X116400500Y-91528712D01*
X116368838Y-91288211D01*
X116306054Y-91053900D01*
X116213224Y-90829788D01*
X116091936Y-90619711D01*
X116000073Y-90499992D01*
X116000067Y-90499984D01*
X117599500Y-90499984D01*
X117599500Y-92800015D01*
X117610000Y-92902795D01*
X117610001Y-92902797D01*
X117623585Y-92943790D01*
X117665186Y-93069335D01*
X117665187Y-93069337D01*
X117757286Y-93218651D01*
X117757289Y-93218655D01*
X117881344Y-93342710D01*
X117881348Y-93342713D01*
X118030662Y-93434812D01*
X118030664Y-93434813D01*
X118030666Y-93434814D01*
X118197203Y-93489999D01*
X118299992Y-93500500D01*
X118299997Y-93500500D01*
X121200003Y-93500500D01*
X121200008Y-93500500D01*
X121302797Y-93489999D01*
X121469334Y-93434814D01*
X121618655Y-93342711D01*
X121742711Y-93218655D01*
X121834814Y-93069334D01*
X121889999Y-92902797D01*
X121900500Y-92800008D01*
X121900500Y-90499992D01*
X121889999Y-90397203D01*
X121834814Y-90230666D01*
X121791876Y-90161054D01*
X121742713Y-90081348D01*
X121742710Y-90081344D01*
X121618655Y-89957289D01*
X121618651Y-89957286D01*
X121469337Y-89865187D01*
X121469335Y-89865186D01*
X121386065Y-89837593D01*
X121302797Y-89810001D01*
X121302795Y-89810000D01*
X121200015Y-89799500D01*
X121200008Y-89799500D01*
X118299992Y-89799500D01*
X118299984Y-89799500D01*
X118197204Y-89810000D01*
X118197203Y-89810001D01*
X118030664Y-89865186D01*
X118030662Y-89865187D01*
X117881348Y-89957286D01*
X117881344Y-89957289D01*
X117757289Y-90081344D01*
X117757286Y-90081348D01*
X117665187Y-90230662D01*
X117665186Y-90230664D01*
X117610001Y-90397203D01*
X117610000Y-90397204D01*
X117599500Y-90499984D01*
X116000067Y-90499984D01*
X115944266Y-90427263D01*
X115944260Y-90427256D01*
X115772743Y-90255739D01*
X115772736Y-90255733D01*
X115580293Y-90108067D01*
X115580292Y-90108066D01*
X115580289Y-90108064D01*
X115370212Y-89986776D01*
X115370205Y-89986773D01*
X115146104Y-89893947D01*
X115028944Y-89862554D01*
X114911789Y-89831162D01*
X114911788Y-89831161D01*
X114911785Y-89831161D01*
X114671289Y-89799500D01*
X114671288Y-89799500D01*
X113828712Y-89799500D01*
X113828711Y-89799500D01*
X113588214Y-89831161D01*
X113353895Y-89893947D01*
X113129794Y-89986773D01*
X113129785Y-89986777D01*
X112919706Y-90108067D01*
X112727263Y-90255733D01*
X112727256Y-90255739D01*
X112555739Y-90427256D01*
X112555733Y-90427263D01*
X112408067Y-90619706D01*
X112286777Y-90829785D01*
X112286773Y-90829794D01*
X112193947Y-91053895D01*
X112131161Y-91288214D01*
X112099500Y-91528711D01*
X109438486Y-91528711D01*
X109431276Y-86835258D01*
X112959500Y-86835258D01*
X112959500Y-87064741D01*
X112971859Y-87158611D01*
X112989452Y-87292238D01*
X113031858Y-87450500D01*
X113048842Y-87513887D01*
X113136650Y-87725876D01*
X113136657Y-87725890D01*
X113251392Y-87924617D01*
X113391081Y-88106661D01*
X113391089Y-88106670D01*
X113553330Y-88268911D01*
X113553338Y-88268918D01*
X113735382Y-88408607D01*
X113735385Y-88408608D01*
X113735388Y-88408611D01*
X113934112Y-88523344D01*
X113934117Y-88523346D01*
X113934123Y-88523349D01*
X113971527Y-88538842D01*
X114146113Y-88611158D01*
X114367762Y-88670548D01*
X114595266Y-88700500D01*
X114595273Y-88700500D01*
X114824727Y-88700500D01*
X114824734Y-88700500D01*
X115052238Y-88670548D01*
X115273887Y-88611158D01*
X115485888Y-88523344D01*
X115684612Y-88408611D01*
X115866661Y-88268919D01*
X115866665Y-88268914D01*
X115866670Y-88268911D01*
X116028911Y-88106670D01*
X116028914Y-88106665D01*
X116028919Y-88106661D01*
X116168611Y-87924612D01*
X116283344Y-87725888D01*
X116371158Y-87513887D01*
X116430548Y-87292238D01*
X116460500Y-87064734D01*
X116460500Y-86835266D01*
X116430548Y-86607762D01*
X116371158Y-86386113D01*
X116320530Y-86263887D01*
X116283349Y-86174123D01*
X116283346Y-86174117D01*
X116283344Y-86174112D01*
X116168611Y-85975388D01*
X116168608Y-85975385D01*
X116168607Y-85975382D01*
X116028918Y-85793338D01*
X116028911Y-85793330D01*
X115866670Y-85631089D01*
X115866661Y-85631081D01*
X115684617Y-85491392D01*
X115666766Y-85481086D01*
X115485888Y-85376656D01*
X115485876Y-85376650D01*
X115273887Y-85288842D01*
X115231998Y-85277618D01*
X115052238Y-85229452D01*
X115014215Y-85224446D01*
X114824741Y-85199500D01*
X114824734Y-85199500D01*
X114595266Y-85199500D01*
X114595258Y-85199500D01*
X114378715Y-85228009D01*
X114367762Y-85229452D01*
X114274076Y-85254554D01*
X114146112Y-85288842D01*
X113934123Y-85376650D01*
X113934109Y-85376657D01*
X113735382Y-85491392D01*
X113553338Y-85631081D01*
X113391081Y-85793338D01*
X113251392Y-85975382D01*
X113136657Y-86174109D01*
X113136650Y-86174123D01*
X113048842Y-86386112D01*
X112989453Y-86607759D01*
X112989451Y-86607770D01*
X112959500Y-86835258D01*
X109431276Y-86835258D01*
X109423903Y-82035258D01*
X113009500Y-82035258D01*
X113009500Y-82264741D01*
X113026503Y-82393883D01*
X113039452Y-82492238D01*
X113075886Y-82628213D01*
X113098842Y-82713887D01*
X113186650Y-82925876D01*
X113186657Y-82925890D01*
X113200026Y-82949046D01*
X113294827Y-83113247D01*
X113301392Y-83124617D01*
X113441081Y-83306661D01*
X113441089Y-83306670D01*
X113603330Y-83468911D01*
X113603338Y-83468918D01*
X113785382Y-83608607D01*
X113785385Y-83608608D01*
X113785388Y-83608611D01*
X113984112Y-83723344D01*
X113984117Y-83723346D01*
X113984123Y-83723349D01*
X114075480Y-83761190D01*
X114196113Y-83811158D01*
X114417762Y-83870548D01*
X114645266Y-83900500D01*
X114645273Y-83900500D01*
X114874727Y-83900500D01*
X114874734Y-83900500D01*
X115102238Y-83870548D01*
X115323887Y-83811158D01*
X115535888Y-83723344D01*
X115734612Y-83608611D01*
X115916661Y-83468919D01*
X115916665Y-83468914D01*
X115916670Y-83468911D01*
X116078911Y-83306670D01*
X116078914Y-83306665D01*
X116078919Y-83306661D01*
X116218611Y-83124612D01*
X116333344Y-82925888D01*
X116421158Y-82713887D01*
X116480548Y-82492238D01*
X116510500Y-82264734D01*
X116510500Y-82035266D01*
X116480548Y-81807762D01*
X116421158Y-81586113D01*
X116333344Y-81374112D01*
X116218611Y-81175388D01*
X116218608Y-81175385D01*
X116218607Y-81175382D01*
X116078918Y-80993338D01*
X116078911Y-80993330D01*
X115916670Y-80831089D01*
X115916661Y-80831081D01*
X115734617Y-80691392D01*
X115535890Y-80576657D01*
X115535876Y-80576650D01*
X115323887Y-80488842D01*
X115102238Y-80429452D01*
X115064215Y-80424446D01*
X114874741Y-80399500D01*
X114874734Y-80399500D01*
X114645266Y-80399500D01*
X114645258Y-80399500D01*
X114428715Y-80428009D01*
X114417762Y-80429452D01*
X114324076Y-80454554D01*
X114196112Y-80488842D01*
X113984123Y-80576650D01*
X113984109Y-80576657D01*
X113785382Y-80691392D01*
X113603338Y-80831081D01*
X113441081Y-80993338D01*
X113301392Y-81175382D01*
X113186657Y-81374109D01*
X113186650Y-81374123D01*
X113098842Y-81586112D01*
X113076315Y-81670184D01*
X113042106Y-81797859D01*
X113039453Y-81807759D01*
X113039451Y-81807770D01*
X113009500Y-82035258D01*
X109423903Y-82035258D01*
X109416673Y-77328711D01*
X112149500Y-77328711D01*
X112149500Y-77571288D01*
X112181161Y-77811785D01*
X112243947Y-78046104D01*
X112321598Y-78233570D01*
X112336776Y-78270212D01*
X112458064Y-78480289D01*
X112458066Y-78480292D01*
X112458067Y-78480293D01*
X112605733Y-78672736D01*
X112605739Y-78672743D01*
X112777256Y-78844260D01*
X112777263Y-78844266D01*
X112851693Y-78901378D01*
X112969711Y-78991936D01*
X113179788Y-79113224D01*
X113403900Y-79206054D01*
X113638211Y-79268838D01*
X113798940Y-79289998D01*
X113878711Y-79300500D01*
X113878712Y-79300500D01*
X114721289Y-79300500D01*
X114801052Y-79289999D01*
X114961789Y-79268838D01*
X115196100Y-79206054D01*
X115420212Y-79113224D01*
X115630289Y-78991936D01*
X115822738Y-78844265D01*
X115994265Y-78672738D01*
X116141936Y-78480289D01*
X116263224Y-78270212D01*
X116356054Y-78046100D01*
X116418838Y-77811789D01*
X116450500Y-77571288D01*
X116450500Y-77328712D01*
X116447566Y-77306429D01*
X116418838Y-77088214D01*
X116418838Y-77088211D01*
X116356054Y-76853900D01*
X116263224Y-76629788D01*
X116141936Y-76419711D01*
X116050073Y-76299992D01*
X116050067Y-76299984D01*
X117649500Y-76299984D01*
X117649500Y-78600015D01*
X117660000Y-78702795D01*
X117660001Y-78702796D01*
X117715186Y-78869335D01*
X117715187Y-78869337D01*
X117807286Y-79018651D01*
X117807289Y-79018655D01*
X117931344Y-79142710D01*
X117931348Y-79142713D01*
X118080662Y-79234812D01*
X118080664Y-79234813D01*
X118080666Y-79234814D01*
X118247203Y-79289999D01*
X118349992Y-79300500D01*
X118349997Y-79300500D01*
X121250003Y-79300500D01*
X121250008Y-79300500D01*
X121352797Y-79289999D01*
X121519334Y-79234814D01*
X121668655Y-79142711D01*
X121792711Y-79018655D01*
X121884814Y-78869334D01*
X121939999Y-78702797D01*
X121950500Y-78600008D01*
X121950500Y-76299992D01*
X121939999Y-76197203D01*
X121884814Y-76030666D01*
X121809193Y-75908067D01*
X121792713Y-75881348D01*
X121792710Y-75881344D01*
X121668655Y-75757289D01*
X121668651Y-75757286D01*
X121519337Y-75665187D01*
X121519335Y-75665186D01*
X121436065Y-75637593D01*
X121352797Y-75610001D01*
X121352795Y-75610000D01*
X121250015Y-75599500D01*
X121250008Y-75599500D01*
X118349992Y-75599500D01*
X118349984Y-75599500D01*
X118247204Y-75610000D01*
X118247203Y-75610001D01*
X118080664Y-75665186D01*
X118080662Y-75665187D01*
X117931348Y-75757286D01*
X117931344Y-75757289D01*
X117807289Y-75881344D01*
X117807286Y-75881348D01*
X117715187Y-76030662D01*
X117715186Y-76030664D01*
X117660001Y-76197203D01*
X117660000Y-76197204D01*
X117649500Y-76299984D01*
X116050067Y-76299984D01*
X115994266Y-76227263D01*
X115994260Y-76227256D01*
X115822743Y-76055739D01*
X115822736Y-76055733D01*
X115630293Y-75908067D01*
X115630292Y-75908066D01*
X115630289Y-75908064D01*
X115420212Y-75786776D01*
X115420205Y-75786773D01*
X115196104Y-75693947D01*
X114961785Y-75631161D01*
X114721289Y-75599500D01*
X114721288Y-75599500D01*
X113878712Y-75599500D01*
X113878711Y-75599500D01*
X113638214Y-75631161D01*
X113403895Y-75693947D01*
X113179794Y-75786773D01*
X113179785Y-75786777D01*
X112969706Y-75908067D01*
X112777263Y-76055733D01*
X112777256Y-76055739D01*
X112605739Y-76227256D01*
X112605733Y-76227263D01*
X112458067Y-76419706D01*
X112336777Y-76629785D01*
X112336773Y-76629794D01*
X112243947Y-76853895D01*
X112181161Y-77088214D01*
X112149500Y-77328711D01*
X109416673Y-77328711D01*
X109409463Y-72635258D01*
X113009500Y-72635258D01*
X113009500Y-72864741D01*
X113034446Y-73054215D01*
X113039452Y-73092238D01*
X113039453Y-73092240D01*
X113098842Y-73313887D01*
X113186650Y-73525876D01*
X113186657Y-73525890D01*
X113301392Y-73724617D01*
X113441081Y-73906661D01*
X113441089Y-73906670D01*
X113603330Y-74068911D01*
X113603338Y-74068918D01*
X113785382Y-74208607D01*
X113785385Y-74208608D01*
X113785388Y-74208611D01*
X113984112Y-74323344D01*
X113984117Y-74323346D01*
X113984123Y-74323349D01*
X114044175Y-74348223D01*
X114196113Y-74411158D01*
X114417762Y-74470548D01*
X114645266Y-74500500D01*
X114645273Y-74500500D01*
X114874727Y-74500500D01*
X114874734Y-74500500D01*
X115102238Y-74470548D01*
X115323887Y-74411158D01*
X115535888Y-74323344D01*
X115734612Y-74208611D01*
X115916661Y-74068919D01*
X115916665Y-74068914D01*
X115916670Y-74068911D01*
X116078911Y-73906670D01*
X116078914Y-73906665D01*
X116078919Y-73906661D01*
X116218611Y-73724612D01*
X116333344Y-73525888D01*
X116421158Y-73313887D01*
X116480548Y-73092238D01*
X116510500Y-72864734D01*
X116510500Y-72635266D01*
X116480548Y-72407762D01*
X116421158Y-72186113D01*
X116353816Y-72023535D01*
X116333349Y-71974123D01*
X116333346Y-71974117D01*
X116333344Y-71974112D01*
X116218611Y-71775388D01*
X116218608Y-71775385D01*
X116218607Y-71775382D01*
X116078918Y-71593338D01*
X116078911Y-71593330D01*
X115916670Y-71431089D01*
X115916661Y-71431081D01*
X115734617Y-71291392D01*
X115535890Y-71176657D01*
X115535876Y-71176650D01*
X115471498Y-71149984D01*
X127599500Y-71149984D01*
X127599500Y-74050015D01*
X127610000Y-74152795D01*
X127610001Y-74152797D01*
X127618305Y-74177856D01*
X127665186Y-74319335D01*
X127665187Y-74319337D01*
X127757286Y-74468651D01*
X127757289Y-74468655D01*
X127881344Y-74592710D01*
X127881348Y-74592713D01*
X128030662Y-74684812D01*
X128030664Y-74684813D01*
X128030666Y-74684814D01*
X128197203Y-74739999D01*
X128299992Y-74750500D01*
X128299997Y-74750500D01*
X130600003Y-74750500D01*
X130600008Y-74750500D01*
X130702797Y-74739999D01*
X130869334Y-74684814D01*
X131018655Y-74592711D01*
X131142711Y-74468655D01*
X131234814Y-74319334D01*
X131289999Y-74152797D01*
X131300500Y-74050008D01*
X131300500Y-73374500D01*
X131320185Y-73307461D01*
X131372989Y-73261706D01*
X131424500Y-73250500D01*
X134804194Y-73250500D01*
X134871233Y-73270185D01*
X134891875Y-73286819D01*
X135953279Y-74348223D01*
X135986764Y-74409546D01*
X135988817Y-74422012D01*
X135989632Y-74429246D01*
X135989634Y-74429255D01*
X136049212Y-74599521D01*
X136129093Y-74726650D01*
X136145186Y-74752262D01*
X136272740Y-74879816D01*
X136425480Y-74975789D01*
X136440604Y-74981081D01*
X136595747Y-75035368D01*
X136595752Y-75035369D01*
X136774998Y-75055565D01*
X136775002Y-75055565D01*
X136775006Y-75055565D01*
X136954251Y-75035369D01*
X136954254Y-75035368D01*
X136954257Y-75035368D01*
X137124524Y-74975789D01*
X137277264Y-74879816D01*
X137404818Y-74752262D01*
X137500791Y-74599522D01*
X137560370Y-74429255D01*
X137562591Y-74409546D01*
X137580567Y-74250003D01*
X137580567Y-74249996D01*
X137560371Y-74070750D01*
X137560370Y-74070745D01*
X137553112Y-74050002D01*
X137500791Y-73900478D01*
X137404818Y-73747738D01*
X137277264Y-73620184D01*
X137135197Y-73530917D01*
X137124523Y-73524210D01*
X136954257Y-73464632D01*
X136954248Y-73464630D01*
X136947014Y-73463815D01*
X136882602Y-73436744D01*
X136873225Y-73428277D01*
X135539676Y-72094727D01*
X135539675Y-72094726D01*
X135539671Y-72094723D01*
X135433129Y-72023535D01*
X135314746Y-71974499D01*
X135296155Y-71970801D01*
X135189073Y-71949500D01*
X135189071Y-71949500D01*
X131424500Y-71949500D01*
X131357461Y-71929815D01*
X131311706Y-71877011D01*
X131300500Y-71825500D01*
X131300500Y-71149997D01*
X131300499Y-71149984D01*
X131289999Y-71047204D01*
X131289999Y-71047203D01*
X131234814Y-70880666D01*
X131142711Y-70731345D01*
X131018655Y-70607289D01*
X131018651Y-70607286D01*
X130869337Y-70515187D01*
X130869335Y-70515186D01*
X130786065Y-70487593D01*
X130702797Y-70460001D01*
X130702795Y-70460000D01*
X130600015Y-70449500D01*
X130600008Y-70449500D01*
X128299992Y-70449500D01*
X128299984Y-70449500D01*
X128197204Y-70460000D01*
X128197203Y-70460001D01*
X128030664Y-70515186D01*
X128030662Y-70515187D01*
X127881348Y-70607286D01*
X127881344Y-70607289D01*
X127757289Y-70731344D01*
X127757286Y-70731348D01*
X127665187Y-70880662D01*
X127665186Y-70880664D01*
X127610001Y-71047203D01*
X127610000Y-71047204D01*
X127599500Y-71149984D01*
X115471498Y-71149984D01*
X115323887Y-71088842D01*
X115102238Y-71029452D01*
X115064215Y-71024446D01*
X114874741Y-70999500D01*
X114874734Y-70999500D01*
X114645266Y-70999500D01*
X114645258Y-70999500D01*
X114428715Y-71028009D01*
X114417762Y-71029452D01*
X114351514Y-71047203D01*
X114196112Y-71088842D01*
X113984123Y-71176650D01*
X113984109Y-71176657D01*
X113785382Y-71291392D01*
X113603338Y-71431081D01*
X113441081Y-71593338D01*
X113301392Y-71775382D01*
X113186657Y-71974109D01*
X113186650Y-71974123D01*
X113098842Y-72186112D01*
X113039453Y-72407759D01*
X113039451Y-72407770D01*
X113009500Y-72635258D01*
X109409463Y-72635258D01*
X109400504Y-66802774D01*
X109400622Y-66797189D01*
X109405795Y-66678711D01*
X112049500Y-66678711D01*
X112049500Y-66921288D01*
X112081161Y-67161785D01*
X112143947Y-67396104D01*
X112226790Y-67596104D01*
X112236776Y-67620212D01*
X112358064Y-67830289D01*
X112358066Y-67830292D01*
X112358067Y-67830293D01*
X112505733Y-68022736D01*
X112505739Y-68022743D01*
X112677256Y-68194260D01*
X112677262Y-68194265D01*
X112869711Y-68341936D01*
X113079788Y-68463224D01*
X113303900Y-68556054D01*
X113538211Y-68618838D01*
X113718586Y-68642584D01*
X113778711Y-68650500D01*
X113778712Y-68650500D01*
X114021289Y-68650500D01*
X114069388Y-68644167D01*
X114261789Y-68618838D01*
X114496100Y-68556054D01*
X114720212Y-68463224D01*
X114930289Y-68341936D01*
X115122738Y-68194265D01*
X115294265Y-68022738D01*
X115441936Y-67830289D01*
X115563224Y-67620212D01*
X115635692Y-67445258D01*
X122999500Y-67445258D01*
X122999500Y-67674741D01*
X123020913Y-67837377D01*
X123029452Y-67902238D01*
X123029453Y-67902240D01*
X123088842Y-68123887D01*
X123176650Y-68335876D01*
X123176657Y-68335890D01*
X123291392Y-68534617D01*
X123431081Y-68716661D01*
X123431089Y-68716670D01*
X123593330Y-68878911D01*
X123593338Y-68878918D01*
X123593339Y-68878919D01*
X123594748Y-68880000D01*
X123775382Y-69018607D01*
X123775385Y-69018608D01*
X123775388Y-69018611D01*
X123974112Y-69133344D01*
X123974117Y-69133346D01*
X123974123Y-69133349D01*
X124065480Y-69171190D01*
X124186113Y-69221158D01*
X124407762Y-69280548D01*
X124635266Y-69310500D01*
X124635273Y-69310500D01*
X124864727Y-69310500D01*
X124864734Y-69310500D01*
X125092238Y-69280548D01*
X125313887Y-69221158D01*
X125525888Y-69133344D01*
X125724612Y-69018611D01*
X125906661Y-68878919D01*
X125906665Y-68878914D01*
X125906670Y-68878911D01*
X126068911Y-68716670D01*
X126068914Y-68716665D01*
X126068919Y-68716661D01*
X126208611Y-68534612D01*
X126323344Y-68335888D01*
X126411158Y-68123887D01*
X126470548Y-67902238D01*
X126500500Y-67674734D01*
X126500500Y-67445266D01*
X126470548Y-67217762D01*
X126411158Y-66996113D01*
X126331080Y-66802788D01*
X126323349Y-66784123D01*
X126323346Y-66784117D01*
X126323344Y-66784112D01*
X126262491Y-66678711D01*
X127599500Y-66678711D01*
X127599500Y-67521288D01*
X127630965Y-67760297D01*
X127631162Y-67761789D01*
X127646815Y-67820205D01*
X127693947Y-67996104D01*
X127708109Y-68030293D01*
X127786776Y-68220212D01*
X127908064Y-68430289D01*
X127908066Y-68430292D01*
X127908067Y-68430293D01*
X128055733Y-68622736D01*
X128055739Y-68622743D01*
X128227256Y-68794260D01*
X128227263Y-68794266D01*
X128259286Y-68818838D01*
X128419711Y-68941936D01*
X128629788Y-69063224D01*
X128853900Y-69156054D01*
X129088211Y-69218838D01*
X129268586Y-69242584D01*
X129328711Y-69250500D01*
X129328712Y-69250500D01*
X129571289Y-69250500D01*
X129619388Y-69244167D01*
X129811789Y-69218838D01*
X130046100Y-69156054D01*
X130270212Y-69063224D01*
X130480289Y-68941936D01*
X130672738Y-68794265D01*
X130844265Y-68622738D01*
X130991936Y-68430289D01*
X131113224Y-68220212D01*
X131206054Y-67996100D01*
X131268838Y-67761789D01*
X131300500Y-67521288D01*
X131300500Y-67445258D01*
X132399500Y-67445258D01*
X132399500Y-67674741D01*
X132420913Y-67837377D01*
X132429452Y-67902238D01*
X132429453Y-67902240D01*
X132488842Y-68123887D01*
X132576650Y-68335876D01*
X132576657Y-68335890D01*
X132691392Y-68534617D01*
X132831081Y-68716661D01*
X132831089Y-68716670D01*
X132993330Y-68878911D01*
X132993338Y-68878918D01*
X132993339Y-68878919D01*
X132994748Y-68880000D01*
X133175382Y-69018607D01*
X133175385Y-69018608D01*
X133175388Y-69018611D01*
X133374112Y-69133344D01*
X133374117Y-69133346D01*
X133374123Y-69133349D01*
X133465480Y-69171190D01*
X133586113Y-69221158D01*
X133807762Y-69280548D01*
X134035266Y-69310500D01*
X134035273Y-69310500D01*
X134264727Y-69310500D01*
X134264734Y-69310500D01*
X134492238Y-69280548D01*
X134713887Y-69221158D01*
X134925888Y-69133344D01*
X135124612Y-69018611D01*
X135306661Y-68878919D01*
X135306665Y-68878914D01*
X135306670Y-68878911D01*
X135468911Y-68716670D01*
X135468914Y-68716665D01*
X135468919Y-68716661D01*
X135608611Y-68534612D01*
X135723344Y-68335888D01*
X135811158Y-68123887D01*
X135870548Y-67902238D01*
X135900500Y-67674734D01*
X135900500Y-67445266D01*
X135870548Y-67217762D01*
X135811158Y-66996113D01*
X135731080Y-66802788D01*
X135723349Y-66784123D01*
X135723346Y-66784117D01*
X135723344Y-66784112D01*
X135608611Y-66585388D01*
X135608608Y-66585385D01*
X135608607Y-66585382D01*
X135469349Y-66403900D01*
X135468919Y-66403339D01*
X135468918Y-66403338D01*
X135468911Y-66403330D01*
X135306670Y-66241089D01*
X135306661Y-66241081D01*
X135124617Y-66101392D01*
X135104885Y-66090000D01*
X134925888Y-65986656D01*
X134925876Y-65986650D01*
X134713887Y-65898842D01*
X134492238Y-65839452D01*
X134454215Y-65834446D01*
X134264741Y-65809500D01*
X134264734Y-65809500D01*
X134035266Y-65809500D01*
X134035258Y-65809500D01*
X133838205Y-65835444D01*
X133807762Y-65839452D01*
X133714076Y-65864554D01*
X133586112Y-65898842D01*
X133374123Y-65986650D01*
X133374109Y-65986657D01*
X133175382Y-66101392D01*
X132993338Y-66241081D01*
X132831081Y-66403338D01*
X132691392Y-66585382D01*
X132576657Y-66784109D01*
X132576650Y-66784123D01*
X132488842Y-66996112D01*
X132487800Y-67000000D01*
X132448567Y-67146425D01*
X132429453Y-67217759D01*
X132429451Y-67217770D01*
X132399500Y-67445258D01*
X131300500Y-67445258D01*
X131300500Y-66678712D01*
X131268838Y-66438211D01*
X131206054Y-66203900D01*
X131113224Y-65979788D01*
X130991936Y-65769711D01*
X130844265Y-65577262D01*
X130844260Y-65577256D01*
X130672743Y-65405739D01*
X130672736Y-65405733D01*
X130480293Y-65258067D01*
X130480292Y-65258066D01*
X130480289Y-65258064D01*
X130270212Y-65136776D01*
X130270205Y-65136773D01*
X130046104Y-65043947D01*
X129811785Y-64981161D01*
X129571289Y-64949500D01*
X129571288Y-64949500D01*
X129328712Y-64949500D01*
X129328711Y-64949500D01*
X129088214Y-64981161D01*
X128853895Y-65043947D01*
X128629794Y-65136773D01*
X128629785Y-65136777D01*
X128419706Y-65258067D01*
X128227263Y-65405733D01*
X128227256Y-65405739D01*
X128055739Y-65577256D01*
X128055733Y-65577263D01*
X127908067Y-65769706D01*
X127908064Y-65769710D01*
X127908064Y-65769711D01*
X127903704Y-65777263D01*
X127786777Y-65979785D01*
X127786773Y-65979794D01*
X127693947Y-66203895D01*
X127631161Y-66438214D01*
X127599500Y-66678711D01*
X126262491Y-66678711D01*
X126208611Y-66585388D01*
X126208608Y-66585385D01*
X126208607Y-66585382D01*
X126069349Y-66403900D01*
X126068919Y-66403339D01*
X126068918Y-66403338D01*
X126068911Y-66403330D01*
X125906670Y-66241089D01*
X125906661Y-66241081D01*
X125724617Y-66101392D01*
X125704885Y-66090000D01*
X125525888Y-65986656D01*
X125525876Y-65986650D01*
X125313887Y-65898842D01*
X125092238Y-65839452D01*
X125054215Y-65834446D01*
X124864741Y-65809500D01*
X124864734Y-65809500D01*
X124635266Y-65809500D01*
X124635258Y-65809500D01*
X124438205Y-65835444D01*
X124407762Y-65839452D01*
X124314076Y-65864554D01*
X124186112Y-65898842D01*
X123974123Y-65986650D01*
X123974109Y-65986657D01*
X123775382Y-66101392D01*
X123593338Y-66241081D01*
X123431081Y-66403338D01*
X123291392Y-66585382D01*
X123176657Y-66784109D01*
X123176650Y-66784123D01*
X123088842Y-66996112D01*
X123087800Y-67000000D01*
X123048567Y-67146425D01*
X123029453Y-67217759D01*
X123029451Y-67217770D01*
X122999500Y-67445258D01*
X115635692Y-67445258D01*
X115656054Y-67396100D01*
X115718838Y-67161789D01*
X115750500Y-66921288D01*
X115750500Y-66678712D01*
X115718838Y-66438211D01*
X115656054Y-66203900D01*
X115563224Y-65979788D01*
X115441936Y-65769711D01*
X115294265Y-65577262D01*
X115294260Y-65577256D01*
X115122743Y-65405739D01*
X115122736Y-65405733D01*
X114930293Y-65258067D01*
X114930292Y-65258066D01*
X114930289Y-65258064D01*
X114720212Y-65136776D01*
X114720205Y-65136773D01*
X114496104Y-65043947D01*
X114261785Y-64981161D01*
X114021289Y-64949500D01*
X114021288Y-64949500D01*
X113778712Y-64949500D01*
X113778711Y-64949500D01*
X113538214Y-64981161D01*
X113303895Y-65043947D01*
X113079794Y-65136773D01*
X113079785Y-65136777D01*
X112869706Y-65258067D01*
X112677263Y-65405733D01*
X112677256Y-65405739D01*
X112505739Y-65577256D01*
X112505733Y-65577263D01*
X112358067Y-65769706D01*
X112358064Y-65769710D01*
X112358064Y-65769711D01*
X112353704Y-65777263D01*
X112236777Y-65979785D01*
X112236773Y-65979794D01*
X112143947Y-66203895D01*
X112081161Y-66438214D01*
X112049500Y-66678711D01*
X109405795Y-66678711D01*
X109417386Y-66413227D01*
X109418326Y-66402495D01*
X109468152Y-66024025D01*
X109470025Y-66013405D01*
X109552649Y-65640709D01*
X109555440Y-65630295D01*
X109670230Y-65266227D01*
X109673917Y-65256095D01*
X109820003Y-64903412D01*
X109824561Y-64893638D01*
X110000822Y-64555045D01*
X110006217Y-64545700D01*
X110211325Y-64223744D01*
X110217515Y-64214905D01*
X110449896Y-63912060D01*
X110456834Y-63903791D01*
X110714726Y-63622352D01*
X110722352Y-63614726D01*
X111003791Y-63356834D01*
X111012060Y-63349896D01*
X111314905Y-63117515D01*
X111323744Y-63111325D01*
X111645700Y-62906217D01*
X111655045Y-62900822D01*
X111993638Y-62724561D01*
X112003412Y-62720003D01*
X112356095Y-62573917D01*
X112366227Y-62570230D01*
X112730295Y-62455440D01*
X112740709Y-62452649D01*
X113113405Y-62370025D01*
X113124025Y-62368152D01*
X113502495Y-62318326D01*
X113513227Y-62317386D01*
X113897097Y-62300625D01*
X113902837Y-62300509D01*
X183924717Y-62500287D01*
G37*
%TD.AperFunction*%
%TD*%
M02*
