%TF.GenerationSoftware,KiCad,Pcbnew,8.0.5*%
%TF.CreationDate,2025-02-16T14:39:50-08:00*%
%TF.ProjectId,ccm,63636d2e-6b69-4636-9164-5f7063625858,rev?*%
%TF.SameCoordinates,Original*%
%TF.FileFunction,Paste,Top*%
%TF.FilePolarity,Positive*%
%FSLAX46Y46*%
G04 Gerber Fmt 4.6, Leading zero omitted, Abs format (unit mm)*
G04 Created by KiCad (PCBNEW 8.0.5) date 2025-02-16 14:39:50*
%MOMM*%
%LPD*%
G01*
G04 APERTURE LIST*
G04 Aperture macros list*
%AMRoundRect*
0 Rectangle with rounded corners*
0 $1 Rounding radius*
0 $2 $3 $4 $5 $6 $7 $8 $9 X,Y pos of 4 corners*
0 Add a 4 corners polygon primitive as box body*
4,1,4,$2,$3,$4,$5,$6,$7,$8,$9,$2,$3,0*
0 Add four circle primitives for the rounded corners*
1,1,$1+$1,$2,$3*
1,1,$1+$1,$4,$5*
1,1,$1+$1,$6,$7*
1,1,$1+$1,$8,$9*
0 Add four rect primitives between the rounded corners*
20,1,$1+$1,$2,$3,$4,$5,0*
20,1,$1+$1,$4,$5,$6,$7,0*
20,1,$1+$1,$6,$7,$8,$9,0*
20,1,$1+$1,$8,$9,$2,$3,0*%
G04 Aperture macros list end*
%ADD10RoundRect,0.250000X0.262500X0.450000X-0.262500X0.450000X-0.262500X-0.450000X0.262500X-0.450000X0*%
%ADD11RoundRect,0.150000X0.825000X0.150000X-0.825000X0.150000X-0.825000X-0.150000X0.825000X-0.150000X0*%
%ADD12RoundRect,0.250000X-0.262500X-0.450000X0.262500X-0.450000X0.262500X0.450000X-0.262500X0.450000X0*%
%ADD13RoundRect,0.250000X0.250000X0.475000X-0.250000X0.475000X-0.250000X-0.475000X0.250000X-0.475000X0*%
%ADD14RoundRect,0.250000X-0.450000X0.262500X-0.450000X-0.262500X0.450000X-0.262500X0.450000X0.262500X0*%
%ADD15RoundRect,0.250000X0.450000X-0.262500X0.450000X0.262500X-0.450000X0.262500X-0.450000X-0.262500X0*%
%ADD16RoundRect,0.250000X-0.250000X-0.475000X0.250000X-0.475000X0.250000X0.475000X-0.250000X0.475000X0*%
%ADD17RoundRect,0.250000X-0.850000X-0.350000X0.850000X-0.350000X0.850000X0.350000X-0.850000X0.350000X0*%
%ADD18RoundRect,0.250000X-1.275000X-1.125000X1.275000X-1.125000X1.275000X1.125000X-1.275000X1.125000X0*%
%ADD19R,1.000000X0.600000*%
%ADD20R,0.350000X0.650000*%
%ADD21RoundRect,0.250000X-0.475000X0.250000X-0.475000X-0.250000X0.475000X-0.250000X0.475000X0.250000X0*%
G04 APERTURE END LIST*
D10*
%TO.C,R28*%
X138412500Y-90800000D03*
X136587500Y-90800000D03*
%TD*%
%TO.C,R23*%
X169762500Y-100850000D03*
X167937500Y-100850000D03*
%TD*%
%TO.C,R17*%
X166012500Y-85000000D03*
X164187500Y-85000000D03*
%TD*%
%TO.C,R20*%
X169575000Y-79000000D03*
X167750000Y-79000000D03*
%TD*%
%TO.C,R12*%
X169725000Y-91200000D03*
X167900000Y-91200000D03*
%TD*%
%TO.C,R10*%
X169712500Y-94350000D03*
X167887500Y-94350000D03*
%TD*%
D11*
%TO.C,U3*%
X136400000Y-96710000D03*
X136400000Y-95440000D03*
X136400000Y-94170000D03*
X136400000Y-92900000D03*
X131450000Y-92900000D03*
X131450000Y-94170000D03*
X131450000Y-95440000D03*
X131450000Y-96710000D03*
%TD*%
D12*
%TO.C,R5*%
X131387500Y-118500000D03*
X133212500Y-118500000D03*
%TD*%
%TO.C,R30*%
X130887500Y-106900000D03*
X132712500Y-106900000D03*
%TD*%
D13*
%TO.C,C8*%
X138950000Y-68750000D03*
X137050000Y-68750000D03*
%TD*%
D14*
%TO.C,R27*%
X138700000Y-98387500D03*
X138700000Y-100212500D03*
%TD*%
D10*
%TO.C,R16*%
X169625000Y-85000000D03*
X167800000Y-85000000D03*
%TD*%
%TO.C,R24*%
X166025000Y-100850000D03*
X164200000Y-100850000D03*
%TD*%
D12*
%TO.C,R29*%
X130987500Y-91000000D03*
X132812500Y-91000000D03*
%TD*%
D10*
%TO.C,R7*%
X166025000Y-97850000D03*
X164200000Y-97850000D03*
%TD*%
D15*
%TO.C,R3*%
X128700000Y-97625000D03*
X128700000Y-95800000D03*
%TD*%
D16*
%TO.C,C7*%
X134550000Y-80500000D03*
X136450000Y-80500000D03*
%TD*%
D13*
%TO.C,C9*%
X138950000Y-72000000D03*
X137050000Y-72000000D03*
%TD*%
D10*
%TO.C,R14*%
X169612500Y-88150000D03*
X167787500Y-88150000D03*
%TD*%
D14*
%TO.C,R32*%
X140700000Y-98387500D03*
X140700000Y-100212500D03*
%TD*%
D10*
%TO.C,R11*%
X166012500Y-94350000D03*
X164187500Y-94350000D03*
%TD*%
D13*
%TO.C,C6*%
X126750000Y-102900000D03*
X124850000Y-102900000D03*
%TD*%
D15*
%TO.C,R25*%
X128700000Y-93712500D03*
X128700000Y-91887500D03*
%TD*%
D13*
%TO.C,C5*%
X126650000Y-94900000D03*
X124750000Y-94900000D03*
%TD*%
D17*
%TO.C,U5*%
X165300000Y-66732500D03*
X165300000Y-69012500D03*
D18*
X169925000Y-67487500D03*
X169925000Y-70537500D03*
X173275000Y-67487500D03*
X173275000Y-70537500D03*
D17*
X165300000Y-71292500D03*
%TD*%
D10*
%TO.C,R21*%
X166000000Y-79000000D03*
X164175000Y-79000000D03*
%TD*%
%TO.C,R31*%
X140712500Y-106200000D03*
X138887500Y-106200000D03*
%TD*%
%TO.C,R13*%
X166012500Y-91200000D03*
X164187500Y-91200000D03*
%TD*%
D16*
%TO.C,C3*%
X134600000Y-83700000D03*
X136500000Y-83700000D03*
%TD*%
D15*
%TO.C,R4*%
X128700000Y-105687500D03*
X128700000Y-103862500D03*
%TD*%
%TO.C,R26*%
X128700000Y-101900000D03*
X128700000Y-100075000D03*
%TD*%
D10*
%TO.C,R18*%
X169612500Y-81950000D03*
X167787500Y-81950000D03*
%TD*%
D14*
%TO.C,R22*%
X124900000Y-119737500D03*
X124900000Y-121562500D03*
%TD*%
D12*
%TO.C,R8*%
X130837500Y-83700000D03*
X132662500Y-83700000D03*
%TD*%
D11*
%TO.C,U4*%
X136350000Y-104710000D03*
X136350000Y-103440000D03*
X136350000Y-102170000D03*
X136350000Y-100900000D03*
X131400000Y-100900000D03*
X131400000Y-102170000D03*
X131400000Y-103440000D03*
X131400000Y-104710000D03*
%TD*%
D19*
%TO.C,U2*%
X135075000Y-76187500D03*
X136275000Y-76187500D03*
X135075000Y-75412500D03*
X136275000Y-75412500D03*
D20*
X134700000Y-77350000D03*
X135350000Y-77350000D03*
X136000000Y-77350000D03*
X136650000Y-77350000D03*
X136650000Y-74250000D03*
X136000000Y-74250000D03*
X135350000Y-74250000D03*
X134700000Y-74250000D03*
%TD*%
D10*
%TO.C,R15*%
X166000000Y-88150000D03*
X164175000Y-88150000D03*
%TD*%
%TO.C,R6*%
X169737500Y-97850000D03*
X167912500Y-97850000D03*
%TD*%
D21*
%TO.C,C1*%
X139200000Y-94200000D03*
X139200000Y-96100000D03*
%TD*%
D10*
%TO.C,R19*%
X166000000Y-81950000D03*
X164175000Y-81950000D03*
%TD*%
%TO.C,R1*%
X169600000Y-76000000D03*
X167775000Y-76000000D03*
%TD*%
D12*
%TO.C,R9*%
X130837500Y-87100000D03*
X132662500Y-87100000D03*
%TD*%
D16*
%TO.C,C4*%
X134600000Y-87100000D03*
X136500000Y-87100000D03*
%TD*%
D10*
%TO.C,R2*%
X166000000Y-76000000D03*
X164175000Y-76000000D03*
%TD*%
D21*
%TO.C,C2*%
X139100000Y-102200000D03*
X139100000Y-104100000D03*
%TD*%
M02*
