M48
; DRILL file {KiCad 8.0.5} date 2025-02-16T14:40:52-0800
; FORMAT={-:-/ absolute / inch / decimal}
; #@! TF.CreationDate,2025-02-16T14:40:52-08:00
; #@! TF.GenerationSoftware,Kicad,Pcbnew,8.0.5
; #@! TF.FileFunction,Plated,1,2,PTH
FMAT,2
INCH
; #@! TA.AperFunction,Plated,PTH,ViaDrill
T1C0.0118
; #@! TA.AperFunction,Plated,PTH,ComponentDrill
T2C0.0390
; #@! TA.AperFunction,Plated,PTH,ComponentDrill
T3C0.0433
; #@! TA.AperFunction,Plated,PTH,ComponentDrill
T4C0.0551
%
G90
G05
T1
X4.8622Y-3.7402
X4.8622Y-4.0551
X5.124Y-4.7141
X5.1535Y-4.2087
X5.1575Y-3.5827
X5.2992Y-3.2953
X5.2992Y-3.4291
X5.3681Y-4.0724
X5.3701Y-3.7575
X5.3848Y-2.9232
X5.3957Y-2.7067
X5.3957Y-2.8346
X5.4232Y-3.0413
X5.4331Y-4.252
X5.4764Y-4.0984
X5.4803Y-3.7835
X5.4882Y-3.2402
X6.4636Y-2.9921
X6.4636Y-3.1102
X6.4636Y-3.2264
X6.4636Y-3.4705
X6.4641Y-3.3465
X6.4641Y-3.5906
X6.4641Y-3.7146
X6.4646Y-3.8524
X6.4646Y-3.9685
X6.5079Y-2.6273
T2
X5.6496Y-2.6118
X5.6496Y-2.7118
X5.6496Y-2.8118
X5.6496Y-2.9118
X5.6496Y-3.0118
X5.6496Y-3.1118
X5.6496Y-3.2118
X5.6496Y-3.3118
X5.6496Y-3.4118
X5.6496Y-3.5118
X5.6496Y-3.6118
X5.6496Y-3.7118
X5.6496Y-3.8118
X5.6496Y-3.9118
X5.6496Y-4.0118
X5.6496Y-4.1118
X5.6496Y-4.2118
X5.6496Y-4.3118
X5.6496Y-4.4118
X5.6496Y-4.5118
X5.6496Y-4.6118
X5.6496Y-4.7118
X5.6496Y-4.8118
X5.6496Y-4.9118
X6.2496Y-2.6118
X6.2496Y-2.7118
X6.2496Y-2.8118
X6.2496Y-2.9118
X6.2496Y-3.0118
X6.2496Y-3.1118
X6.2496Y-3.2118
X6.2496Y-3.3118
X6.2496Y-3.4118
X6.2496Y-3.5118
X6.2496Y-3.6118
X6.2496Y-3.7118
X6.2496Y-3.8118
X6.2496Y-3.9118
X6.2496Y-4.0118
X6.2496Y-4.1118
X6.2496Y-4.2118
X6.2496Y-4.3118
X6.2496Y-4.4118
X6.2496Y-4.5118
X6.2496Y-4.6118
X6.2496Y-4.7118
X6.2496Y-4.8118
X6.2496Y-4.9118
T3
X5.1165Y-4.4589
X5.2165Y-4.4589
X5.3165Y-4.4589
T4
X4.478Y-4.7835
X4.4961Y-4.1929
X4.498Y-3.6083
X4.5Y-3.0492
X4.6945Y-4.7835
X4.7126Y-4.1929
X4.7146Y-3.6083
X4.7165Y-3.0492
X5.0965Y-2.6417
X5.0965Y-2.8583
X5.2343Y-4.8996
X5.2343Y-5.1161
X6.6831Y-4.9016
X6.6831Y-5.1181
X7.0079Y-3.189
X7.0098Y-3.7362
X7.0098Y-3.9016
X7.0236Y-4.4705
X7.0236Y-4.6358
X7.2244Y-3.189
X7.2264Y-3.7362
X7.2264Y-3.9016
X7.2402Y-4.4705
X7.2402Y-4.6358
M30
