%TF.GenerationSoftware,KiCad,Pcbnew,8.0.5*%
%TF.CreationDate,2025-02-16T14:39:50-08:00*%
%TF.ProjectId,ccm,63636d2e-6b69-4636-9164-5f7063625858,rev?*%
%TF.SameCoordinates,Original*%
%TF.FileFunction,Legend,Top*%
%TF.FilePolarity,Positive*%
%FSLAX46Y46*%
G04 Gerber Fmt 4.6, Leading zero omitted, Abs format (unit mm)*
G04 Created by KiCad (PCBNEW 8.0.5) date 2025-02-16 14:39:50*
%MOMM*%
%LPD*%
G01*
G04 APERTURE LIST*
%ADD10C,0.200000*%
%ADD11C,0.150000*%
%ADD12C,0.120000*%
%ADD13C,0.152400*%
G04 APERTURE END LIST*
D10*
X141964286Y-130748255D02*
X141892858Y-130819684D01*
X141892858Y-130819684D02*
X141678572Y-130891112D01*
X141678572Y-130891112D02*
X141535715Y-130891112D01*
X141535715Y-130891112D02*
X141321429Y-130819684D01*
X141321429Y-130819684D02*
X141178572Y-130676826D01*
X141178572Y-130676826D02*
X141107143Y-130533969D01*
X141107143Y-130533969D02*
X141035715Y-130248255D01*
X141035715Y-130248255D02*
X141035715Y-130033969D01*
X141035715Y-130033969D02*
X141107143Y-129748255D01*
X141107143Y-129748255D02*
X141178572Y-129605398D01*
X141178572Y-129605398D02*
X141321429Y-129462541D01*
X141321429Y-129462541D02*
X141535715Y-129391112D01*
X141535715Y-129391112D02*
X141678572Y-129391112D01*
X141678572Y-129391112D02*
X141892858Y-129462541D01*
X141892858Y-129462541D02*
X141964286Y-129533969D01*
X143178572Y-130819684D02*
X143035715Y-130891112D01*
X143035715Y-130891112D02*
X142750001Y-130891112D01*
X142750001Y-130891112D02*
X142607143Y-130819684D01*
X142607143Y-130819684D02*
X142535715Y-130676826D01*
X142535715Y-130676826D02*
X142535715Y-130105398D01*
X142535715Y-130105398D02*
X142607143Y-129962541D01*
X142607143Y-129962541D02*
X142750001Y-129891112D01*
X142750001Y-129891112D02*
X143035715Y-129891112D01*
X143035715Y-129891112D02*
X143178572Y-129962541D01*
X143178572Y-129962541D02*
X143250001Y-130105398D01*
X143250001Y-130105398D02*
X143250001Y-130248255D01*
X143250001Y-130248255D02*
X142535715Y-130391112D01*
X143892857Y-129891112D02*
X143892857Y-130891112D01*
X143892857Y-130033969D02*
X143964286Y-129962541D01*
X143964286Y-129962541D02*
X144107143Y-129891112D01*
X144107143Y-129891112D02*
X144321429Y-129891112D01*
X144321429Y-129891112D02*
X144464286Y-129962541D01*
X144464286Y-129962541D02*
X144535715Y-130105398D01*
X144535715Y-130105398D02*
X144535715Y-130891112D01*
X145035715Y-129891112D02*
X145607143Y-129891112D01*
X145250000Y-129391112D02*
X145250000Y-130676826D01*
X145250000Y-130676826D02*
X145321429Y-130819684D01*
X145321429Y-130819684D02*
X145464286Y-130891112D01*
X145464286Y-130891112D02*
X145607143Y-130891112D01*
X146107143Y-130891112D02*
X146107143Y-129891112D01*
X146107143Y-130176826D02*
X146178572Y-130033969D01*
X146178572Y-130033969D02*
X146250001Y-129962541D01*
X146250001Y-129962541D02*
X146392858Y-129891112D01*
X146392858Y-129891112D02*
X146535715Y-129891112D01*
X147678572Y-130891112D02*
X147678572Y-130105398D01*
X147678572Y-130105398D02*
X147607143Y-129962541D01*
X147607143Y-129962541D02*
X147464286Y-129891112D01*
X147464286Y-129891112D02*
X147178572Y-129891112D01*
X147178572Y-129891112D02*
X147035714Y-129962541D01*
X147678572Y-130819684D02*
X147535714Y-130891112D01*
X147535714Y-130891112D02*
X147178572Y-130891112D01*
X147178572Y-130891112D02*
X147035714Y-130819684D01*
X147035714Y-130819684D02*
X146964286Y-130676826D01*
X146964286Y-130676826D02*
X146964286Y-130533969D01*
X146964286Y-130533969D02*
X147035714Y-130391112D01*
X147035714Y-130391112D02*
X147178572Y-130319684D01*
X147178572Y-130319684D02*
X147535714Y-130319684D01*
X147535714Y-130319684D02*
X147678572Y-130248255D01*
X148607143Y-130891112D02*
X148464286Y-130819684D01*
X148464286Y-130819684D02*
X148392857Y-130676826D01*
X148392857Y-130676826D02*
X148392857Y-129391112D01*
X151178571Y-130748255D02*
X151107143Y-130819684D01*
X151107143Y-130819684D02*
X150892857Y-130891112D01*
X150892857Y-130891112D02*
X150750000Y-130891112D01*
X150750000Y-130891112D02*
X150535714Y-130819684D01*
X150535714Y-130819684D02*
X150392857Y-130676826D01*
X150392857Y-130676826D02*
X150321428Y-130533969D01*
X150321428Y-130533969D02*
X150250000Y-130248255D01*
X150250000Y-130248255D02*
X150250000Y-130033969D01*
X150250000Y-130033969D02*
X150321428Y-129748255D01*
X150321428Y-129748255D02*
X150392857Y-129605398D01*
X150392857Y-129605398D02*
X150535714Y-129462541D01*
X150535714Y-129462541D02*
X150750000Y-129391112D01*
X150750000Y-129391112D02*
X150892857Y-129391112D01*
X150892857Y-129391112D02*
X151107143Y-129462541D01*
X151107143Y-129462541D02*
X151178571Y-129533969D01*
X152035714Y-130891112D02*
X151892857Y-130819684D01*
X151892857Y-130819684D02*
X151821428Y-130748255D01*
X151821428Y-130748255D02*
X151750000Y-130605398D01*
X151750000Y-130605398D02*
X151750000Y-130176826D01*
X151750000Y-130176826D02*
X151821428Y-130033969D01*
X151821428Y-130033969D02*
X151892857Y-129962541D01*
X151892857Y-129962541D02*
X152035714Y-129891112D01*
X152035714Y-129891112D02*
X152250000Y-129891112D01*
X152250000Y-129891112D02*
X152392857Y-129962541D01*
X152392857Y-129962541D02*
X152464286Y-130033969D01*
X152464286Y-130033969D02*
X152535714Y-130176826D01*
X152535714Y-130176826D02*
X152535714Y-130605398D01*
X152535714Y-130605398D02*
X152464286Y-130748255D01*
X152464286Y-130748255D02*
X152392857Y-130819684D01*
X152392857Y-130819684D02*
X152250000Y-130891112D01*
X152250000Y-130891112D02*
X152035714Y-130891112D01*
X153178571Y-130891112D02*
X153178571Y-129891112D01*
X153178571Y-130033969D02*
X153250000Y-129962541D01*
X153250000Y-129962541D02*
X153392857Y-129891112D01*
X153392857Y-129891112D02*
X153607143Y-129891112D01*
X153607143Y-129891112D02*
X153750000Y-129962541D01*
X153750000Y-129962541D02*
X153821429Y-130105398D01*
X153821429Y-130105398D02*
X153821429Y-130891112D01*
X153821429Y-130105398D02*
X153892857Y-129962541D01*
X153892857Y-129962541D02*
X154035714Y-129891112D01*
X154035714Y-129891112D02*
X154250000Y-129891112D01*
X154250000Y-129891112D02*
X154392857Y-129962541D01*
X154392857Y-129962541D02*
X154464286Y-130105398D01*
X154464286Y-130105398D02*
X154464286Y-130891112D01*
X155178571Y-129891112D02*
X155178571Y-131391112D01*
X155178571Y-129962541D02*
X155321429Y-129891112D01*
X155321429Y-129891112D02*
X155607143Y-129891112D01*
X155607143Y-129891112D02*
X155750000Y-129962541D01*
X155750000Y-129962541D02*
X155821429Y-130033969D01*
X155821429Y-130033969D02*
X155892857Y-130176826D01*
X155892857Y-130176826D02*
X155892857Y-130605398D01*
X155892857Y-130605398D02*
X155821429Y-130748255D01*
X155821429Y-130748255D02*
X155750000Y-130819684D01*
X155750000Y-130819684D02*
X155607143Y-130891112D01*
X155607143Y-130891112D02*
X155321429Y-130891112D01*
X155321429Y-130891112D02*
X155178571Y-130819684D01*
X157178572Y-129891112D02*
X157178572Y-130891112D01*
X156535714Y-129891112D02*
X156535714Y-130676826D01*
X156535714Y-130676826D02*
X156607143Y-130819684D01*
X156607143Y-130819684D02*
X156750000Y-130891112D01*
X156750000Y-130891112D02*
X156964286Y-130891112D01*
X156964286Y-130891112D02*
X157107143Y-130819684D01*
X157107143Y-130819684D02*
X157178572Y-130748255D01*
X157678572Y-129891112D02*
X158250000Y-129891112D01*
X157892857Y-129391112D02*
X157892857Y-130676826D01*
X157892857Y-130676826D02*
X157964286Y-130819684D01*
X157964286Y-130819684D02*
X158107143Y-130891112D01*
X158107143Y-130891112D02*
X158250000Y-130891112D01*
X159321429Y-130819684D02*
X159178572Y-130891112D01*
X159178572Y-130891112D02*
X158892858Y-130891112D01*
X158892858Y-130891112D02*
X158750000Y-130819684D01*
X158750000Y-130819684D02*
X158678572Y-130676826D01*
X158678572Y-130676826D02*
X158678572Y-130105398D01*
X158678572Y-130105398D02*
X158750000Y-129962541D01*
X158750000Y-129962541D02*
X158892858Y-129891112D01*
X158892858Y-129891112D02*
X159178572Y-129891112D01*
X159178572Y-129891112D02*
X159321429Y-129962541D01*
X159321429Y-129962541D02*
X159392858Y-130105398D01*
X159392858Y-130105398D02*
X159392858Y-130248255D01*
X159392858Y-130248255D02*
X158678572Y-130391112D01*
X160035714Y-130891112D02*
X160035714Y-129891112D01*
X160035714Y-130176826D02*
X160107143Y-130033969D01*
X160107143Y-130033969D02*
X160178572Y-129962541D01*
X160178572Y-129962541D02*
X160321429Y-129891112D01*
X160321429Y-129891112D02*
X160464286Y-129891112D01*
X145821428Y-133306028D02*
X145821428Y-131806028D01*
X145821428Y-131806028D02*
X146321428Y-132877457D01*
X146321428Y-132877457D02*
X146821428Y-131806028D01*
X146821428Y-131806028D02*
X146821428Y-133306028D01*
X147750000Y-133306028D02*
X147607143Y-133234600D01*
X147607143Y-133234600D02*
X147535714Y-133163171D01*
X147535714Y-133163171D02*
X147464286Y-133020314D01*
X147464286Y-133020314D02*
X147464286Y-132591742D01*
X147464286Y-132591742D02*
X147535714Y-132448885D01*
X147535714Y-132448885D02*
X147607143Y-132377457D01*
X147607143Y-132377457D02*
X147750000Y-132306028D01*
X147750000Y-132306028D02*
X147964286Y-132306028D01*
X147964286Y-132306028D02*
X148107143Y-132377457D01*
X148107143Y-132377457D02*
X148178572Y-132448885D01*
X148178572Y-132448885D02*
X148250000Y-132591742D01*
X148250000Y-132591742D02*
X148250000Y-133020314D01*
X148250000Y-133020314D02*
X148178572Y-133163171D01*
X148178572Y-133163171D02*
X148107143Y-133234600D01*
X148107143Y-133234600D02*
X147964286Y-133306028D01*
X147964286Y-133306028D02*
X147750000Y-133306028D01*
X149535715Y-133306028D02*
X149535715Y-131806028D01*
X149535715Y-133234600D02*
X149392857Y-133306028D01*
X149392857Y-133306028D02*
X149107143Y-133306028D01*
X149107143Y-133306028D02*
X148964286Y-133234600D01*
X148964286Y-133234600D02*
X148892857Y-133163171D01*
X148892857Y-133163171D02*
X148821429Y-133020314D01*
X148821429Y-133020314D02*
X148821429Y-132591742D01*
X148821429Y-132591742D02*
X148892857Y-132448885D01*
X148892857Y-132448885D02*
X148964286Y-132377457D01*
X148964286Y-132377457D02*
X149107143Y-132306028D01*
X149107143Y-132306028D02*
X149392857Y-132306028D01*
X149392857Y-132306028D02*
X149535715Y-132377457D01*
X150892858Y-132306028D02*
X150892858Y-133306028D01*
X150250000Y-132306028D02*
X150250000Y-133091742D01*
X150250000Y-133091742D02*
X150321429Y-133234600D01*
X150321429Y-133234600D02*
X150464286Y-133306028D01*
X150464286Y-133306028D02*
X150678572Y-133306028D01*
X150678572Y-133306028D02*
X150821429Y-133234600D01*
X150821429Y-133234600D02*
X150892858Y-133163171D01*
X151821429Y-133306028D02*
X151678572Y-133234600D01*
X151678572Y-133234600D02*
X151607143Y-133091742D01*
X151607143Y-133091742D02*
X151607143Y-131806028D01*
X152964286Y-133234600D02*
X152821429Y-133306028D01*
X152821429Y-133306028D02*
X152535715Y-133306028D01*
X152535715Y-133306028D02*
X152392857Y-133234600D01*
X152392857Y-133234600D02*
X152321429Y-133091742D01*
X152321429Y-133091742D02*
X152321429Y-132520314D01*
X152321429Y-132520314D02*
X152392857Y-132377457D01*
X152392857Y-132377457D02*
X152535715Y-132306028D01*
X152535715Y-132306028D02*
X152821429Y-132306028D01*
X152821429Y-132306028D02*
X152964286Y-132377457D01*
X152964286Y-132377457D02*
X153035715Y-132520314D01*
X153035715Y-132520314D02*
X153035715Y-132663171D01*
X153035715Y-132663171D02*
X152321429Y-132806028D01*
X154678571Y-132306028D02*
X155035714Y-133306028D01*
X155035714Y-133306028D02*
X155392857Y-132306028D01*
X156750000Y-133306028D02*
X155892857Y-133306028D01*
X156321428Y-133306028D02*
X156321428Y-131806028D01*
X156321428Y-131806028D02*
X156178571Y-132020314D01*
X156178571Y-132020314D02*
X156035714Y-132163171D01*
X156035714Y-132163171D02*
X155892857Y-132234600D01*
D11*
X136757142Y-89554819D02*
X136423809Y-89078628D01*
X136185714Y-89554819D02*
X136185714Y-88554819D01*
X136185714Y-88554819D02*
X136566666Y-88554819D01*
X136566666Y-88554819D02*
X136661904Y-88602438D01*
X136661904Y-88602438D02*
X136709523Y-88650057D01*
X136709523Y-88650057D02*
X136757142Y-88745295D01*
X136757142Y-88745295D02*
X136757142Y-88888152D01*
X136757142Y-88888152D02*
X136709523Y-88983390D01*
X136709523Y-88983390D02*
X136661904Y-89031009D01*
X136661904Y-89031009D02*
X136566666Y-89078628D01*
X136566666Y-89078628D02*
X136185714Y-89078628D01*
X137138095Y-88650057D02*
X137185714Y-88602438D01*
X137185714Y-88602438D02*
X137280952Y-88554819D01*
X137280952Y-88554819D02*
X137519047Y-88554819D01*
X137519047Y-88554819D02*
X137614285Y-88602438D01*
X137614285Y-88602438D02*
X137661904Y-88650057D01*
X137661904Y-88650057D02*
X137709523Y-88745295D01*
X137709523Y-88745295D02*
X137709523Y-88840533D01*
X137709523Y-88840533D02*
X137661904Y-88983390D01*
X137661904Y-88983390D02*
X137090476Y-89554819D01*
X137090476Y-89554819D02*
X137709523Y-89554819D01*
X138280952Y-88983390D02*
X138185714Y-88935771D01*
X138185714Y-88935771D02*
X138138095Y-88888152D01*
X138138095Y-88888152D02*
X138090476Y-88792914D01*
X138090476Y-88792914D02*
X138090476Y-88745295D01*
X138090476Y-88745295D02*
X138138095Y-88650057D01*
X138138095Y-88650057D02*
X138185714Y-88602438D01*
X138185714Y-88602438D02*
X138280952Y-88554819D01*
X138280952Y-88554819D02*
X138471428Y-88554819D01*
X138471428Y-88554819D02*
X138566666Y-88602438D01*
X138566666Y-88602438D02*
X138614285Y-88650057D01*
X138614285Y-88650057D02*
X138661904Y-88745295D01*
X138661904Y-88745295D02*
X138661904Y-88792914D01*
X138661904Y-88792914D02*
X138614285Y-88888152D01*
X138614285Y-88888152D02*
X138566666Y-88935771D01*
X138566666Y-88935771D02*
X138471428Y-88983390D01*
X138471428Y-88983390D02*
X138280952Y-88983390D01*
X138280952Y-88983390D02*
X138185714Y-89031009D01*
X138185714Y-89031009D02*
X138138095Y-89078628D01*
X138138095Y-89078628D02*
X138090476Y-89173866D01*
X138090476Y-89173866D02*
X138090476Y-89364342D01*
X138090476Y-89364342D02*
X138138095Y-89459580D01*
X138138095Y-89459580D02*
X138185714Y-89507200D01*
X138185714Y-89507200D02*
X138280952Y-89554819D01*
X138280952Y-89554819D02*
X138471428Y-89554819D01*
X138471428Y-89554819D02*
X138566666Y-89507200D01*
X138566666Y-89507200D02*
X138614285Y-89459580D01*
X138614285Y-89459580D02*
X138661904Y-89364342D01*
X138661904Y-89364342D02*
X138661904Y-89173866D01*
X138661904Y-89173866D02*
X138614285Y-89078628D01*
X138614285Y-89078628D02*
X138566666Y-89031009D01*
X138566666Y-89031009D02*
X138471428Y-88983390D01*
X168207142Y-102954819D02*
X167873809Y-102478628D01*
X167635714Y-102954819D02*
X167635714Y-101954819D01*
X167635714Y-101954819D02*
X168016666Y-101954819D01*
X168016666Y-101954819D02*
X168111904Y-102002438D01*
X168111904Y-102002438D02*
X168159523Y-102050057D01*
X168159523Y-102050057D02*
X168207142Y-102145295D01*
X168207142Y-102145295D02*
X168207142Y-102288152D01*
X168207142Y-102288152D02*
X168159523Y-102383390D01*
X168159523Y-102383390D02*
X168111904Y-102431009D01*
X168111904Y-102431009D02*
X168016666Y-102478628D01*
X168016666Y-102478628D02*
X167635714Y-102478628D01*
X168588095Y-102050057D02*
X168635714Y-102002438D01*
X168635714Y-102002438D02*
X168730952Y-101954819D01*
X168730952Y-101954819D02*
X168969047Y-101954819D01*
X168969047Y-101954819D02*
X169064285Y-102002438D01*
X169064285Y-102002438D02*
X169111904Y-102050057D01*
X169111904Y-102050057D02*
X169159523Y-102145295D01*
X169159523Y-102145295D02*
X169159523Y-102240533D01*
X169159523Y-102240533D02*
X169111904Y-102383390D01*
X169111904Y-102383390D02*
X168540476Y-102954819D01*
X168540476Y-102954819D02*
X169159523Y-102954819D01*
X169492857Y-101954819D02*
X170111904Y-101954819D01*
X170111904Y-101954819D02*
X169778571Y-102335771D01*
X169778571Y-102335771D02*
X169921428Y-102335771D01*
X169921428Y-102335771D02*
X170016666Y-102383390D01*
X170016666Y-102383390D02*
X170064285Y-102431009D01*
X170064285Y-102431009D02*
X170111904Y-102526247D01*
X170111904Y-102526247D02*
X170111904Y-102764342D01*
X170111904Y-102764342D02*
X170064285Y-102859580D01*
X170064285Y-102859580D02*
X170016666Y-102907200D01*
X170016666Y-102907200D02*
X169921428Y-102954819D01*
X169921428Y-102954819D02*
X169635714Y-102954819D01*
X169635714Y-102954819D02*
X169540476Y-102907200D01*
X169540476Y-102907200D02*
X169492857Y-102859580D01*
X164457142Y-87104819D02*
X164123809Y-86628628D01*
X163885714Y-87104819D02*
X163885714Y-86104819D01*
X163885714Y-86104819D02*
X164266666Y-86104819D01*
X164266666Y-86104819D02*
X164361904Y-86152438D01*
X164361904Y-86152438D02*
X164409523Y-86200057D01*
X164409523Y-86200057D02*
X164457142Y-86295295D01*
X164457142Y-86295295D02*
X164457142Y-86438152D01*
X164457142Y-86438152D02*
X164409523Y-86533390D01*
X164409523Y-86533390D02*
X164361904Y-86581009D01*
X164361904Y-86581009D02*
X164266666Y-86628628D01*
X164266666Y-86628628D02*
X163885714Y-86628628D01*
X165409523Y-87104819D02*
X164838095Y-87104819D01*
X165123809Y-87104819D02*
X165123809Y-86104819D01*
X165123809Y-86104819D02*
X165028571Y-86247676D01*
X165028571Y-86247676D02*
X164933333Y-86342914D01*
X164933333Y-86342914D02*
X164838095Y-86390533D01*
X165742857Y-86104819D02*
X166409523Y-86104819D01*
X166409523Y-86104819D02*
X165980952Y-87104819D01*
X174404819Y-115983333D02*
X175119104Y-115983333D01*
X175119104Y-115983333D02*
X175261961Y-116030952D01*
X175261961Y-116030952D02*
X175357200Y-116126190D01*
X175357200Y-116126190D02*
X175404819Y-116269047D01*
X175404819Y-116269047D02*
X175404819Y-116364285D01*
X174833390Y-115364285D02*
X174785771Y-115459523D01*
X174785771Y-115459523D02*
X174738152Y-115507142D01*
X174738152Y-115507142D02*
X174642914Y-115554761D01*
X174642914Y-115554761D02*
X174595295Y-115554761D01*
X174595295Y-115554761D02*
X174500057Y-115507142D01*
X174500057Y-115507142D02*
X174452438Y-115459523D01*
X174452438Y-115459523D02*
X174404819Y-115364285D01*
X174404819Y-115364285D02*
X174404819Y-115173809D01*
X174404819Y-115173809D02*
X174452438Y-115078571D01*
X174452438Y-115078571D02*
X174500057Y-115030952D01*
X174500057Y-115030952D02*
X174595295Y-114983333D01*
X174595295Y-114983333D02*
X174642914Y-114983333D01*
X174642914Y-114983333D02*
X174738152Y-115030952D01*
X174738152Y-115030952D02*
X174785771Y-115078571D01*
X174785771Y-115078571D02*
X174833390Y-115173809D01*
X174833390Y-115173809D02*
X174833390Y-115364285D01*
X174833390Y-115364285D02*
X174881009Y-115459523D01*
X174881009Y-115459523D02*
X174928628Y-115507142D01*
X174928628Y-115507142D02*
X175023866Y-115554761D01*
X175023866Y-115554761D02*
X175214342Y-115554761D01*
X175214342Y-115554761D02*
X175309580Y-115507142D01*
X175309580Y-115507142D02*
X175357200Y-115459523D01*
X175357200Y-115459523D02*
X175404819Y-115364285D01*
X175404819Y-115364285D02*
X175404819Y-115173809D01*
X175404819Y-115173809D02*
X175357200Y-115078571D01*
X175357200Y-115078571D02*
X175309580Y-115030952D01*
X175309580Y-115030952D02*
X175214342Y-114983333D01*
X175214342Y-114983333D02*
X175023866Y-114983333D01*
X175023866Y-114983333D02*
X174928628Y-115030952D01*
X174928628Y-115030952D02*
X174881009Y-115078571D01*
X174881009Y-115078571D02*
X174833390Y-115173809D01*
X168057142Y-80954819D02*
X167723809Y-80478628D01*
X167485714Y-80954819D02*
X167485714Y-79954819D01*
X167485714Y-79954819D02*
X167866666Y-79954819D01*
X167866666Y-79954819D02*
X167961904Y-80002438D01*
X167961904Y-80002438D02*
X168009523Y-80050057D01*
X168009523Y-80050057D02*
X168057142Y-80145295D01*
X168057142Y-80145295D02*
X168057142Y-80288152D01*
X168057142Y-80288152D02*
X168009523Y-80383390D01*
X168009523Y-80383390D02*
X167961904Y-80431009D01*
X167961904Y-80431009D02*
X167866666Y-80478628D01*
X167866666Y-80478628D02*
X167485714Y-80478628D01*
X168438095Y-80050057D02*
X168485714Y-80002438D01*
X168485714Y-80002438D02*
X168580952Y-79954819D01*
X168580952Y-79954819D02*
X168819047Y-79954819D01*
X168819047Y-79954819D02*
X168914285Y-80002438D01*
X168914285Y-80002438D02*
X168961904Y-80050057D01*
X168961904Y-80050057D02*
X169009523Y-80145295D01*
X169009523Y-80145295D02*
X169009523Y-80240533D01*
X169009523Y-80240533D02*
X168961904Y-80383390D01*
X168961904Y-80383390D02*
X168390476Y-80954819D01*
X168390476Y-80954819D02*
X169009523Y-80954819D01*
X169628571Y-79954819D02*
X169723809Y-79954819D01*
X169723809Y-79954819D02*
X169819047Y-80002438D01*
X169819047Y-80002438D02*
X169866666Y-80050057D01*
X169866666Y-80050057D02*
X169914285Y-80145295D01*
X169914285Y-80145295D02*
X169961904Y-80335771D01*
X169961904Y-80335771D02*
X169961904Y-80573866D01*
X169961904Y-80573866D02*
X169914285Y-80764342D01*
X169914285Y-80764342D02*
X169866666Y-80859580D01*
X169866666Y-80859580D02*
X169819047Y-80907200D01*
X169819047Y-80907200D02*
X169723809Y-80954819D01*
X169723809Y-80954819D02*
X169628571Y-80954819D01*
X169628571Y-80954819D02*
X169533333Y-80907200D01*
X169533333Y-80907200D02*
X169485714Y-80859580D01*
X169485714Y-80859580D02*
X169438095Y-80764342D01*
X169438095Y-80764342D02*
X169390476Y-80573866D01*
X169390476Y-80573866D02*
X169390476Y-80335771D01*
X169390476Y-80335771D02*
X169438095Y-80145295D01*
X169438095Y-80145295D02*
X169485714Y-80050057D01*
X169485714Y-80050057D02*
X169533333Y-80002438D01*
X169533333Y-80002438D02*
X169628571Y-79954819D01*
X168169642Y-93304819D02*
X167836309Y-92828628D01*
X167598214Y-93304819D02*
X167598214Y-92304819D01*
X167598214Y-92304819D02*
X167979166Y-92304819D01*
X167979166Y-92304819D02*
X168074404Y-92352438D01*
X168074404Y-92352438D02*
X168122023Y-92400057D01*
X168122023Y-92400057D02*
X168169642Y-92495295D01*
X168169642Y-92495295D02*
X168169642Y-92638152D01*
X168169642Y-92638152D02*
X168122023Y-92733390D01*
X168122023Y-92733390D02*
X168074404Y-92781009D01*
X168074404Y-92781009D02*
X167979166Y-92828628D01*
X167979166Y-92828628D02*
X167598214Y-92828628D01*
X169122023Y-93304819D02*
X168550595Y-93304819D01*
X168836309Y-93304819D02*
X168836309Y-92304819D01*
X168836309Y-92304819D02*
X168741071Y-92447676D01*
X168741071Y-92447676D02*
X168645833Y-92542914D01*
X168645833Y-92542914D02*
X168550595Y-92590533D01*
X169502976Y-92400057D02*
X169550595Y-92352438D01*
X169550595Y-92352438D02*
X169645833Y-92304819D01*
X169645833Y-92304819D02*
X169883928Y-92304819D01*
X169883928Y-92304819D02*
X169979166Y-92352438D01*
X169979166Y-92352438D02*
X170026785Y-92400057D01*
X170026785Y-92400057D02*
X170074404Y-92495295D01*
X170074404Y-92495295D02*
X170074404Y-92590533D01*
X170074404Y-92590533D02*
X170026785Y-92733390D01*
X170026785Y-92733390D02*
X169455357Y-93304819D01*
X169455357Y-93304819D02*
X170074404Y-93304819D01*
X168157142Y-96454819D02*
X167823809Y-95978628D01*
X167585714Y-96454819D02*
X167585714Y-95454819D01*
X167585714Y-95454819D02*
X167966666Y-95454819D01*
X167966666Y-95454819D02*
X168061904Y-95502438D01*
X168061904Y-95502438D02*
X168109523Y-95550057D01*
X168109523Y-95550057D02*
X168157142Y-95645295D01*
X168157142Y-95645295D02*
X168157142Y-95788152D01*
X168157142Y-95788152D02*
X168109523Y-95883390D01*
X168109523Y-95883390D02*
X168061904Y-95931009D01*
X168061904Y-95931009D02*
X167966666Y-95978628D01*
X167966666Y-95978628D02*
X167585714Y-95978628D01*
X169109523Y-96454819D02*
X168538095Y-96454819D01*
X168823809Y-96454819D02*
X168823809Y-95454819D01*
X168823809Y-95454819D02*
X168728571Y-95597676D01*
X168728571Y-95597676D02*
X168633333Y-95692914D01*
X168633333Y-95692914D02*
X168538095Y-95740533D01*
X169728571Y-95454819D02*
X169823809Y-95454819D01*
X169823809Y-95454819D02*
X169919047Y-95502438D01*
X169919047Y-95502438D02*
X169966666Y-95550057D01*
X169966666Y-95550057D02*
X170014285Y-95645295D01*
X170014285Y-95645295D02*
X170061904Y-95835771D01*
X170061904Y-95835771D02*
X170061904Y-96073866D01*
X170061904Y-96073866D02*
X170014285Y-96264342D01*
X170014285Y-96264342D02*
X169966666Y-96359580D01*
X169966666Y-96359580D02*
X169919047Y-96407200D01*
X169919047Y-96407200D02*
X169823809Y-96454819D01*
X169823809Y-96454819D02*
X169728571Y-96454819D01*
X169728571Y-96454819D02*
X169633333Y-96407200D01*
X169633333Y-96407200D02*
X169585714Y-96359580D01*
X169585714Y-96359580D02*
X169538095Y-96264342D01*
X169538095Y-96264342D02*
X169490476Y-96073866D01*
X169490476Y-96073866D02*
X169490476Y-95835771D01*
X169490476Y-95835771D02*
X169538095Y-95645295D01*
X169538095Y-95645295D02*
X169585714Y-95550057D01*
X169585714Y-95550057D02*
X169633333Y-95502438D01*
X169633333Y-95502438D02*
X169728571Y-95454819D01*
X133163095Y-97659819D02*
X133163095Y-98469342D01*
X133163095Y-98469342D02*
X133210714Y-98564580D01*
X133210714Y-98564580D02*
X133258333Y-98612200D01*
X133258333Y-98612200D02*
X133353571Y-98659819D01*
X133353571Y-98659819D02*
X133544047Y-98659819D01*
X133544047Y-98659819D02*
X133639285Y-98612200D01*
X133639285Y-98612200D02*
X133686904Y-98564580D01*
X133686904Y-98564580D02*
X133734523Y-98469342D01*
X133734523Y-98469342D02*
X133734523Y-97659819D01*
X134115476Y-97659819D02*
X134734523Y-97659819D01*
X134734523Y-97659819D02*
X134401190Y-98040771D01*
X134401190Y-98040771D02*
X134544047Y-98040771D01*
X134544047Y-98040771D02*
X134639285Y-98088390D01*
X134639285Y-98088390D02*
X134686904Y-98136009D01*
X134686904Y-98136009D02*
X134734523Y-98231247D01*
X134734523Y-98231247D02*
X134734523Y-98469342D01*
X134734523Y-98469342D02*
X134686904Y-98564580D01*
X134686904Y-98564580D02*
X134639285Y-98612200D01*
X134639285Y-98612200D02*
X134544047Y-98659819D01*
X134544047Y-98659819D02*
X134258333Y-98659819D01*
X134258333Y-98659819D02*
X134163095Y-98612200D01*
X134163095Y-98612200D02*
X134115476Y-98564580D01*
X134833333Y-119054819D02*
X134500000Y-118578628D01*
X134261905Y-119054819D02*
X134261905Y-118054819D01*
X134261905Y-118054819D02*
X134642857Y-118054819D01*
X134642857Y-118054819D02*
X134738095Y-118102438D01*
X134738095Y-118102438D02*
X134785714Y-118150057D01*
X134785714Y-118150057D02*
X134833333Y-118245295D01*
X134833333Y-118245295D02*
X134833333Y-118388152D01*
X134833333Y-118388152D02*
X134785714Y-118483390D01*
X134785714Y-118483390D02*
X134738095Y-118531009D01*
X134738095Y-118531009D02*
X134642857Y-118578628D01*
X134642857Y-118578628D02*
X134261905Y-118578628D01*
X135738095Y-118054819D02*
X135261905Y-118054819D01*
X135261905Y-118054819D02*
X135214286Y-118531009D01*
X135214286Y-118531009D02*
X135261905Y-118483390D01*
X135261905Y-118483390D02*
X135357143Y-118435771D01*
X135357143Y-118435771D02*
X135595238Y-118435771D01*
X135595238Y-118435771D02*
X135690476Y-118483390D01*
X135690476Y-118483390D02*
X135738095Y-118531009D01*
X135738095Y-118531009D02*
X135785714Y-118626247D01*
X135785714Y-118626247D02*
X135785714Y-118864342D01*
X135785714Y-118864342D02*
X135738095Y-118959580D01*
X135738095Y-118959580D02*
X135690476Y-119007200D01*
X135690476Y-119007200D02*
X135595238Y-119054819D01*
X135595238Y-119054819D02*
X135357143Y-119054819D01*
X135357143Y-119054819D02*
X135261905Y-119007200D01*
X135261905Y-119007200D02*
X135214286Y-118959580D01*
X131157142Y-109154819D02*
X130823809Y-108678628D01*
X130585714Y-109154819D02*
X130585714Y-108154819D01*
X130585714Y-108154819D02*
X130966666Y-108154819D01*
X130966666Y-108154819D02*
X131061904Y-108202438D01*
X131061904Y-108202438D02*
X131109523Y-108250057D01*
X131109523Y-108250057D02*
X131157142Y-108345295D01*
X131157142Y-108345295D02*
X131157142Y-108488152D01*
X131157142Y-108488152D02*
X131109523Y-108583390D01*
X131109523Y-108583390D02*
X131061904Y-108631009D01*
X131061904Y-108631009D02*
X130966666Y-108678628D01*
X130966666Y-108678628D02*
X130585714Y-108678628D01*
X131490476Y-108154819D02*
X132109523Y-108154819D01*
X132109523Y-108154819D02*
X131776190Y-108535771D01*
X131776190Y-108535771D02*
X131919047Y-108535771D01*
X131919047Y-108535771D02*
X132014285Y-108583390D01*
X132014285Y-108583390D02*
X132061904Y-108631009D01*
X132061904Y-108631009D02*
X132109523Y-108726247D01*
X132109523Y-108726247D02*
X132109523Y-108964342D01*
X132109523Y-108964342D02*
X132061904Y-109059580D01*
X132061904Y-109059580D02*
X132014285Y-109107200D01*
X132014285Y-109107200D02*
X131919047Y-109154819D01*
X131919047Y-109154819D02*
X131633333Y-109154819D01*
X131633333Y-109154819D02*
X131538095Y-109107200D01*
X131538095Y-109107200D02*
X131490476Y-109059580D01*
X132728571Y-108154819D02*
X132823809Y-108154819D01*
X132823809Y-108154819D02*
X132919047Y-108202438D01*
X132919047Y-108202438D02*
X132966666Y-108250057D01*
X132966666Y-108250057D02*
X133014285Y-108345295D01*
X133014285Y-108345295D02*
X133061904Y-108535771D01*
X133061904Y-108535771D02*
X133061904Y-108773866D01*
X133061904Y-108773866D02*
X133014285Y-108964342D01*
X133014285Y-108964342D02*
X132966666Y-109059580D01*
X132966666Y-109059580D02*
X132919047Y-109107200D01*
X132919047Y-109107200D02*
X132823809Y-109154819D01*
X132823809Y-109154819D02*
X132728571Y-109154819D01*
X132728571Y-109154819D02*
X132633333Y-109107200D01*
X132633333Y-109107200D02*
X132585714Y-109059580D01*
X132585714Y-109059580D02*
X132538095Y-108964342D01*
X132538095Y-108964342D02*
X132490476Y-108773866D01*
X132490476Y-108773866D02*
X132490476Y-108535771D01*
X132490476Y-108535771D02*
X132538095Y-108345295D01*
X132538095Y-108345295D02*
X132585714Y-108250057D01*
X132585714Y-108250057D02*
X132633333Y-108202438D01*
X132633333Y-108202438D02*
X132728571Y-108154819D01*
X128640476Y-75504819D02*
X128640476Y-76219104D01*
X128640476Y-76219104D02*
X128592857Y-76361961D01*
X128592857Y-76361961D02*
X128497619Y-76457200D01*
X128497619Y-76457200D02*
X128354762Y-76504819D01*
X128354762Y-76504819D02*
X128259524Y-76504819D01*
X129640476Y-76504819D02*
X129069048Y-76504819D01*
X129354762Y-76504819D02*
X129354762Y-75504819D01*
X129354762Y-75504819D02*
X129259524Y-75647676D01*
X129259524Y-75647676D02*
X129164286Y-75742914D01*
X129164286Y-75742914D02*
X129069048Y-75790533D01*
X130259524Y-75504819D02*
X130354762Y-75504819D01*
X130354762Y-75504819D02*
X130450000Y-75552438D01*
X130450000Y-75552438D02*
X130497619Y-75600057D01*
X130497619Y-75600057D02*
X130545238Y-75695295D01*
X130545238Y-75695295D02*
X130592857Y-75885771D01*
X130592857Y-75885771D02*
X130592857Y-76123866D01*
X130592857Y-76123866D02*
X130545238Y-76314342D01*
X130545238Y-76314342D02*
X130497619Y-76409580D01*
X130497619Y-76409580D02*
X130450000Y-76457200D01*
X130450000Y-76457200D02*
X130354762Y-76504819D01*
X130354762Y-76504819D02*
X130259524Y-76504819D01*
X130259524Y-76504819D02*
X130164286Y-76457200D01*
X130164286Y-76457200D02*
X130116667Y-76409580D01*
X130116667Y-76409580D02*
X130069048Y-76314342D01*
X130069048Y-76314342D02*
X130021429Y-76123866D01*
X130021429Y-76123866D02*
X130021429Y-75885771D01*
X130021429Y-75885771D02*
X130069048Y-75695295D01*
X130069048Y-75695295D02*
X130116667Y-75600057D01*
X130116667Y-75600057D02*
X130164286Y-75552438D01*
X130164286Y-75552438D02*
X130259524Y-75504819D01*
X137833333Y-67609580D02*
X137785714Y-67657200D01*
X137785714Y-67657200D02*
X137642857Y-67704819D01*
X137642857Y-67704819D02*
X137547619Y-67704819D01*
X137547619Y-67704819D02*
X137404762Y-67657200D01*
X137404762Y-67657200D02*
X137309524Y-67561961D01*
X137309524Y-67561961D02*
X137261905Y-67466723D01*
X137261905Y-67466723D02*
X137214286Y-67276247D01*
X137214286Y-67276247D02*
X137214286Y-67133390D01*
X137214286Y-67133390D02*
X137261905Y-66942914D01*
X137261905Y-66942914D02*
X137309524Y-66847676D01*
X137309524Y-66847676D02*
X137404762Y-66752438D01*
X137404762Y-66752438D02*
X137547619Y-66704819D01*
X137547619Y-66704819D02*
X137642857Y-66704819D01*
X137642857Y-66704819D02*
X137785714Y-66752438D01*
X137785714Y-66752438D02*
X137833333Y-66800057D01*
X138404762Y-67133390D02*
X138309524Y-67085771D01*
X138309524Y-67085771D02*
X138261905Y-67038152D01*
X138261905Y-67038152D02*
X138214286Y-66942914D01*
X138214286Y-66942914D02*
X138214286Y-66895295D01*
X138214286Y-66895295D02*
X138261905Y-66800057D01*
X138261905Y-66800057D02*
X138309524Y-66752438D01*
X138309524Y-66752438D02*
X138404762Y-66704819D01*
X138404762Y-66704819D02*
X138595238Y-66704819D01*
X138595238Y-66704819D02*
X138690476Y-66752438D01*
X138690476Y-66752438D02*
X138738095Y-66800057D01*
X138738095Y-66800057D02*
X138785714Y-66895295D01*
X138785714Y-66895295D02*
X138785714Y-66942914D01*
X138785714Y-66942914D02*
X138738095Y-67038152D01*
X138738095Y-67038152D02*
X138690476Y-67085771D01*
X138690476Y-67085771D02*
X138595238Y-67133390D01*
X138595238Y-67133390D02*
X138404762Y-67133390D01*
X138404762Y-67133390D02*
X138309524Y-67181009D01*
X138309524Y-67181009D02*
X138261905Y-67228628D01*
X138261905Y-67228628D02*
X138214286Y-67323866D01*
X138214286Y-67323866D02*
X138214286Y-67514342D01*
X138214286Y-67514342D02*
X138261905Y-67609580D01*
X138261905Y-67609580D02*
X138309524Y-67657200D01*
X138309524Y-67657200D02*
X138404762Y-67704819D01*
X138404762Y-67704819D02*
X138595238Y-67704819D01*
X138595238Y-67704819D02*
X138690476Y-67657200D01*
X138690476Y-67657200D02*
X138738095Y-67609580D01*
X138738095Y-67609580D02*
X138785714Y-67514342D01*
X138785714Y-67514342D02*
X138785714Y-67323866D01*
X138785714Y-67323866D02*
X138738095Y-67228628D01*
X138738095Y-67228628D02*
X138690476Y-67181009D01*
X138690476Y-67181009D02*
X138595238Y-67133390D01*
X137454819Y-99742857D02*
X136978628Y-100076190D01*
X137454819Y-100314285D02*
X136454819Y-100314285D01*
X136454819Y-100314285D02*
X136454819Y-99933333D01*
X136454819Y-99933333D02*
X136502438Y-99838095D01*
X136502438Y-99838095D02*
X136550057Y-99790476D01*
X136550057Y-99790476D02*
X136645295Y-99742857D01*
X136645295Y-99742857D02*
X136788152Y-99742857D01*
X136788152Y-99742857D02*
X136883390Y-99790476D01*
X136883390Y-99790476D02*
X136931009Y-99838095D01*
X136931009Y-99838095D02*
X136978628Y-99933333D01*
X136978628Y-99933333D02*
X136978628Y-100314285D01*
X136550057Y-99361904D02*
X136502438Y-99314285D01*
X136502438Y-99314285D02*
X136454819Y-99219047D01*
X136454819Y-99219047D02*
X136454819Y-98980952D01*
X136454819Y-98980952D02*
X136502438Y-98885714D01*
X136502438Y-98885714D02*
X136550057Y-98838095D01*
X136550057Y-98838095D02*
X136645295Y-98790476D01*
X136645295Y-98790476D02*
X136740533Y-98790476D01*
X136740533Y-98790476D02*
X136883390Y-98838095D01*
X136883390Y-98838095D02*
X137454819Y-99409523D01*
X137454819Y-99409523D02*
X137454819Y-98790476D01*
X136454819Y-98457142D02*
X136454819Y-97790476D01*
X136454819Y-97790476D02*
X137454819Y-98219047D01*
X168069642Y-87104819D02*
X167736309Y-86628628D01*
X167498214Y-87104819D02*
X167498214Y-86104819D01*
X167498214Y-86104819D02*
X167879166Y-86104819D01*
X167879166Y-86104819D02*
X167974404Y-86152438D01*
X167974404Y-86152438D02*
X168022023Y-86200057D01*
X168022023Y-86200057D02*
X168069642Y-86295295D01*
X168069642Y-86295295D02*
X168069642Y-86438152D01*
X168069642Y-86438152D02*
X168022023Y-86533390D01*
X168022023Y-86533390D02*
X167974404Y-86581009D01*
X167974404Y-86581009D02*
X167879166Y-86628628D01*
X167879166Y-86628628D02*
X167498214Y-86628628D01*
X169022023Y-87104819D02*
X168450595Y-87104819D01*
X168736309Y-87104819D02*
X168736309Y-86104819D01*
X168736309Y-86104819D02*
X168641071Y-86247676D01*
X168641071Y-86247676D02*
X168545833Y-86342914D01*
X168545833Y-86342914D02*
X168450595Y-86390533D01*
X169879166Y-86104819D02*
X169688690Y-86104819D01*
X169688690Y-86104819D02*
X169593452Y-86152438D01*
X169593452Y-86152438D02*
X169545833Y-86200057D01*
X169545833Y-86200057D02*
X169450595Y-86342914D01*
X169450595Y-86342914D02*
X169402976Y-86533390D01*
X169402976Y-86533390D02*
X169402976Y-86914342D01*
X169402976Y-86914342D02*
X169450595Y-87009580D01*
X169450595Y-87009580D02*
X169498214Y-87057200D01*
X169498214Y-87057200D02*
X169593452Y-87104819D01*
X169593452Y-87104819D02*
X169783928Y-87104819D01*
X169783928Y-87104819D02*
X169879166Y-87057200D01*
X169879166Y-87057200D02*
X169926785Y-87009580D01*
X169926785Y-87009580D02*
X169974404Y-86914342D01*
X169974404Y-86914342D02*
X169974404Y-86676247D01*
X169974404Y-86676247D02*
X169926785Y-86581009D01*
X169926785Y-86581009D02*
X169879166Y-86533390D01*
X169879166Y-86533390D02*
X169783928Y-86485771D01*
X169783928Y-86485771D02*
X169593452Y-86485771D01*
X169593452Y-86485771D02*
X169498214Y-86533390D01*
X169498214Y-86533390D02*
X169450595Y-86581009D01*
X169450595Y-86581009D02*
X169402976Y-86676247D01*
X164469642Y-102954819D02*
X164136309Y-102478628D01*
X163898214Y-102954819D02*
X163898214Y-101954819D01*
X163898214Y-101954819D02*
X164279166Y-101954819D01*
X164279166Y-101954819D02*
X164374404Y-102002438D01*
X164374404Y-102002438D02*
X164422023Y-102050057D01*
X164422023Y-102050057D02*
X164469642Y-102145295D01*
X164469642Y-102145295D02*
X164469642Y-102288152D01*
X164469642Y-102288152D02*
X164422023Y-102383390D01*
X164422023Y-102383390D02*
X164374404Y-102431009D01*
X164374404Y-102431009D02*
X164279166Y-102478628D01*
X164279166Y-102478628D02*
X163898214Y-102478628D01*
X164850595Y-102050057D02*
X164898214Y-102002438D01*
X164898214Y-102002438D02*
X164993452Y-101954819D01*
X164993452Y-101954819D02*
X165231547Y-101954819D01*
X165231547Y-101954819D02*
X165326785Y-102002438D01*
X165326785Y-102002438D02*
X165374404Y-102050057D01*
X165374404Y-102050057D02*
X165422023Y-102145295D01*
X165422023Y-102145295D02*
X165422023Y-102240533D01*
X165422023Y-102240533D02*
X165374404Y-102383390D01*
X165374404Y-102383390D02*
X164802976Y-102954819D01*
X164802976Y-102954819D02*
X165422023Y-102954819D01*
X166279166Y-102288152D02*
X166279166Y-102954819D01*
X166041071Y-101907200D02*
X165802976Y-102621485D01*
X165802976Y-102621485D02*
X166422023Y-102621485D01*
X131257142Y-89804819D02*
X130923809Y-89328628D01*
X130685714Y-89804819D02*
X130685714Y-88804819D01*
X130685714Y-88804819D02*
X131066666Y-88804819D01*
X131066666Y-88804819D02*
X131161904Y-88852438D01*
X131161904Y-88852438D02*
X131209523Y-88900057D01*
X131209523Y-88900057D02*
X131257142Y-88995295D01*
X131257142Y-88995295D02*
X131257142Y-89138152D01*
X131257142Y-89138152D02*
X131209523Y-89233390D01*
X131209523Y-89233390D02*
X131161904Y-89281009D01*
X131161904Y-89281009D02*
X131066666Y-89328628D01*
X131066666Y-89328628D02*
X130685714Y-89328628D01*
X131638095Y-88900057D02*
X131685714Y-88852438D01*
X131685714Y-88852438D02*
X131780952Y-88804819D01*
X131780952Y-88804819D02*
X132019047Y-88804819D01*
X132019047Y-88804819D02*
X132114285Y-88852438D01*
X132114285Y-88852438D02*
X132161904Y-88900057D01*
X132161904Y-88900057D02*
X132209523Y-88995295D01*
X132209523Y-88995295D02*
X132209523Y-89090533D01*
X132209523Y-89090533D02*
X132161904Y-89233390D01*
X132161904Y-89233390D02*
X131590476Y-89804819D01*
X131590476Y-89804819D02*
X132209523Y-89804819D01*
X132685714Y-89804819D02*
X132876190Y-89804819D01*
X132876190Y-89804819D02*
X132971428Y-89757200D01*
X132971428Y-89757200D02*
X133019047Y-89709580D01*
X133019047Y-89709580D02*
X133114285Y-89566723D01*
X133114285Y-89566723D02*
X133161904Y-89376247D01*
X133161904Y-89376247D02*
X133161904Y-88995295D01*
X133161904Y-88995295D02*
X133114285Y-88900057D01*
X133114285Y-88900057D02*
X133066666Y-88852438D01*
X133066666Y-88852438D02*
X132971428Y-88804819D01*
X132971428Y-88804819D02*
X132780952Y-88804819D01*
X132780952Y-88804819D02*
X132685714Y-88852438D01*
X132685714Y-88852438D02*
X132638095Y-88900057D01*
X132638095Y-88900057D02*
X132590476Y-88995295D01*
X132590476Y-88995295D02*
X132590476Y-89233390D01*
X132590476Y-89233390D02*
X132638095Y-89328628D01*
X132638095Y-89328628D02*
X132685714Y-89376247D01*
X132685714Y-89376247D02*
X132780952Y-89423866D01*
X132780952Y-89423866D02*
X132971428Y-89423866D01*
X132971428Y-89423866D02*
X133066666Y-89376247D01*
X133066666Y-89376247D02*
X133114285Y-89328628D01*
X133114285Y-89328628D02*
X133161904Y-89233390D01*
X164945833Y-99954819D02*
X164612500Y-99478628D01*
X164374405Y-99954819D02*
X164374405Y-98954819D01*
X164374405Y-98954819D02*
X164755357Y-98954819D01*
X164755357Y-98954819D02*
X164850595Y-99002438D01*
X164850595Y-99002438D02*
X164898214Y-99050057D01*
X164898214Y-99050057D02*
X164945833Y-99145295D01*
X164945833Y-99145295D02*
X164945833Y-99288152D01*
X164945833Y-99288152D02*
X164898214Y-99383390D01*
X164898214Y-99383390D02*
X164850595Y-99431009D01*
X164850595Y-99431009D02*
X164755357Y-99478628D01*
X164755357Y-99478628D02*
X164374405Y-99478628D01*
X165279167Y-98954819D02*
X165945833Y-98954819D01*
X165945833Y-98954819D02*
X165517262Y-99954819D01*
X127554819Y-97366666D02*
X127078628Y-97699999D01*
X127554819Y-97938094D02*
X126554819Y-97938094D01*
X126554819Y-97938094D02*
X126554819Y-97557142D01*
X126554819Y-97557142D02*
X126602438Y-97461904D01*
X126602438Y-97461904D02*
X126650057Y-97414285D01*
X126650057Y-97414285D02*
X126745295Y-97366666D01*
X126745295Y-97366666D02*
X126888152Y-97366666D01*
X126888152Y-97366666D02*
X126983390Y-97414285D01*
X126983390Y-97414285D02*
X127031009Y-97461904D01*
X127031009Y-97461904D02*
X127078628Y-97557142D01*
X127078628Y-97557142D02*
X127078628Y-97938094D01*
X126554819Y-97033332D02*
X126554819Y-96414285D01*
X126554819Y-96414285D02*
X126935771Y-96747618D01*
X126935771Y-96747618D02*
X126935771Y-96604761D01*
X126935771Y-96604761D02*
X126983390Y-96509523D01*
X126983390Y-96509523D02*
X127031009Y-96461904D01*
X127031009Y-96461904D02*
X127126247Y-96414285D01*
X127126247Y-96414285D02*
X127364342Y-96414285D01*
X127364342Y-96414285D02*
X127459580Y-96461904D01*
X127459580Y-96461904D02*
X127507200Y-96509523D01*
X127507200Y-96509523D02*
X127554819Y-96604761D01*
X127554819Y-96604761D02*
X127554819Y-96890475D01*
X127554819Y-96890475D02*
X127507200Y-96985713D01*
X127507200Y-96985713D02*
X127459580Y-97033332D01*
X135333333Y-79109580D02*
X135285714Y-79157200D01*
X135285714Y-79157200D02*
X135142857Y-79204819D01*
X135142857Y-79204819D02*
X135047619Y-79204819D01*
X135047619Y-79204819D02*
X134904762Y-79157200D01*
X134904762Y-79157200D02*
X134809524Y-79061961D01*
X134809524Y-79061961D02*
X134761905Y-78966723D01*
X134761905Y-78966723D02*
X134714286Y-78776247D01*
X134714286Y-78776247D02*
X134714286Y-78633390D01*
X134714286Y-78633390D02*
X134761905Y-78442914D01*
X134761905Y-78442914D02*
X134809524Y-78347676D01*
X134809524Y-78347676D02*
X134904762Y-78252438D01*
X134904762Y-78252438D02*
X135047619Y-78204819D01*
X135047619Y-78204819D02*
X135142857Y-78204819D01*
X135142857Y-78204819D02*
X135285714Y-78252438D01*
X135285714Y-78252438D02*
X135333333Y-78300057D01*
X135666667Y-78204819D02*
X136333333Y-78204819D01*
X136333333Y-78204819D02*
X135904762Y-79204819D01*
X137883333Y-70859580D02*
X137835714Y-70907200D01*
X137835714Y-70907200D02*
X137692857Y-70954819D01*
X137692857Y-70954819D02*
X137597619Y-70954819D01*
X137597619Y-70954819D02*
X137454762Y-70907200D01*
X137454762Y-70907200D02*
X137359524Y-70811961D01*
X137359524Y-70811961D02*
X137311905Y-70716723D01*
X137311905Y-70716723D02*
X137264286Y-70526247D01*
X137264286Y-70526247D02*
X137264286Y-70383390D01*
X137264286Y-70383390D02*
X137311905Y-70192914D01*
X137311905Y-70192914D02*
X137359524Y-70097676D01*
X137359524Y-70097676D02*
X137454762Y-70002438D01*
X137454762Y-70002438D02*
X137597619Y-69954819D01*
X137597619Y-69954819D02*
X137692857Y-69954819D01*
X137692857Y-69954819D02*
X137835714Y-70002438D01*
X137835714Y-70002438D02*
X137883333Y-70050057D01*
X138359524Y-70954819D02*
X138550000Y-70954819D01*
X138550000Y-70954819D02*
X138645238Y-70907200D01*
X138645238Y-70907200D02*
X138692857Y-70859580D01*
X138692857Y-70859580D02*
X138788095Y-70716723D01*
X138788095Y-70716723D02*
X138835714Y-70526247D01*
X138835714Y-70526247D02*
X138835714Y-70145295D01*
X138835714Y-70145295D02*
X138788095Y-70050057D01*
X138788095Y-70050057D02*
X138740476Y-70002438D01*
X138740476Y-70002438D02*
X138645238Y-69954819D01*
X138645238Y-69954819D02*
X138454762Y-69954819D01*
X138454762Y-69954819D02*
X138359524Y-70002438D01*
X138359524Y-70002438D02*
X138311905Y-70050057D01*
X138311905Y-70050057D02*
X138264286Y-70145295D01*
X138264286Y-70145295D02*
X138264286Y-70383390D01*
X138264286Y-70383390D02*
X138311905Y-70478628D01*
X138311905Y-70478628D02*
X138359524Y-70526247D01*
X138359524Y-70526247D02*
X138454762Y-70573866D01*
X138454762Y-70573866D02*
X138645238Y-70573866D01*
X138645238Y-70573866D02*
X138740476Y-70526247D01*
X138740476Y-70526247D02*
X138788095Y-70478628D01*
X138788095Y-70478628D02*
X138835714Y-70383390D01*
X168057142Y-90254819D02*
X167723809Y-89778628D01*
X167485714Y-90254819D02*
X167485714Y-89254819D01*
X167485714Y-89254819D02*
X167866666Y-89254819D01*
X167866666Y-89254819D02*
X167961904Y-89302438D01*
X167961904Y-89302438D02*
X168009523Y-89350057D01*
X168009523Y-89350057D02*
X168057142Y-89445295D01*
X168057142Y-89445295D02*
X168057142Y-89588152D01*
X168057142Y-89588152D02*
X168009523Y-89683390D01*
X168009523Y-89683390D02*
X167961904Y-89731009D01*
X167961904Y-89731009D02*
X167866666Y-89778628D01*
X167866666Y-89778628D02*
X167485714Y-89778628D01*
X169009523Y-90254819D02*
X168438095Y-90254819D01*
X168723809Y-90254819D02*
X168723809Y-89254819D01*
X168723809Y-89254819D02*
X168628571Y-89397676D01*
X168628571Y-89397676D02*
X168533333Y-89492914D01*
X168533333Y-89492914D02*
X168438095Y-89540533D01*
X169866666Y-89588152D02*
X169866666Y-90254819D01*
X169628571Y-89207200D02*
X169390476Y-89921485D01*
X169390476Y-89921485D02*
X170009523Y-89921485D01*
X139957142Y-97754819D02*
X139623809Y-97278628D01*
X139385714Y-97754819D02*
X139385714Y-96754819D01*
X139385714Y-96754819D02*
X139766666Y-96754819D01*
X139766666Y-96754819D02*
X139861904Y-96802438D01*
X139861904Y-96802438D02*
X139909523Y-96850057D01*
X139909523Y-96850057D02*
X139957142Y-96945295D01*
X139957142Y-96945295D02*
X139957142Y-97088152D01*
X139957142Y-97088152D02*
X139909523Y-97183390D01*
X139909523Y-97183390D02*
X139861904Y-97231009D01*
X139861904Y-97231009D02*
X139766666Y-97278628D01*
X139766666Y-97278628D02*
X139385714Y-97278628D01*
X140290476Y-96754819D02*
X140909523Y-96754819D01*
X140909523Y-96754819D02*
X140576190Y-97135771D01*
X140576190Y-97135771D02*
X140719047Y-97135771D01*
X140719047Y-97135771D02*
X140814285Y-97183390D01*
X140814285Y-97183390D02*
X140861904Y-97231009D01*
X140861904Y-97231009D02*
X140909523Y-97326247D01*
X140909523Y-97326247D02*
X140909523Y-97564342D01*
X140909523Y-97564342D02*
X140861904Y-97659580D01*
X140861904Y-97659580D02*
X140814285Y-97707200D01*
X140814285Y-97707200D02*
X140719047Y-97754819D01*
X140719047Y-97754819D02*
X140433333Y-97754819D01*
X140433333Y-97754819D02*
X140338095Y-97707200D01*
X140338095Y-97707200D02*
X140290476Y-97659580D01*
X141290476Y-96850057D02*
X141338095Y-96802438D01*
X141338095Y-96802438D02*
X141433333Y-96754819D01*
X141433333Y-96754819D02*
X141671428Y-96754819D01*
X141671428Y-96754819D02*
X141766666Y-96802438D01*
X141766666Y-96802438D02*
X141814285Y-96850057D01*
X141814285Y-96850057D02*
X141861904Y-96945295D01*
X141861904Y-96945295D02*
X141861904Y-97040533D01*
X141861904Y-97040533D02*
X141814285Y-97183390D01*
X141814285Y-97183390D02*
X141242857Y-97754819D01*
X141242857Y-97754819D02*
X141861904Y-97754819D01*
X164457142Y-96454819D02*
X164123809Y-95978628D01*
X163885714Y-96454819D02*
X163885714Y-95454819D01*
X163885714Y-95454819D02*
X164266666Y-95454819D01*
X164266666Y-95454819D02*
X164361904Y-95502438D01*
X164361904Y-95502438D02*
X164409523Y-95550057D01*
X164409523Y-95550057D02*
X164457142Y-95645295D01*
X164457142Y-95645295D02*
X164457142Y-95788152D01*
X164457142Y-95788152D02*
X164409523Y-95883390D01*
X164409523Y-95883390D02*
X164361904Y-95931009D01*
X164361904Y-95931009D02*
X164266666Y-95978628D01*
X164266666Y-95978628D02*
X163885714Y-95978628D01*
X165409523Y-96454819D02*
X164838095Y-96454819D01*
X165123809Y-96454819D02*
X165123809Y-95454819D01*
X165123809Y-95454819D02*
X165028571Y-95597676D01*
X165028571Y-95597676D02*
X164933333Y-95692914D01*
X164933333Y-95692914D02*
X164838095Y-95740533D01*
X166361904Y-96454819D02*
X165790476Y-96454819D01*
X166076190Y-96454819D02*
X166076190Y-95454819D01*
X166076190Y-95454819D02*
X165980952Y-95597676D01*
X165980952Y-95597676D02*
X165885714Y-95692914D01*
X165885714Y-95692914D02*
X165790476Y-95740533D01*
X124933333Y-104939580D02*
X124885714Y-104987200D01*
X124885714Y-104987200D02*
X124742857Y-105034819D01*
X124742857Y-105034819D02*
X124647619Y-105034819D01*
X124647619Y-105034819D02*
X124504762Y-104987200D01*
X124504762Y-104987200D02*
X124409524Y-104891961D01*
X124409524Y-104891961D02*
X124361905Y-104796723D01*
X124361905Y-104796723D02*
X124314286Y-104606247D01*
X124314286Y-104606247D02*
X124314286Y-104463390D01*
X124314286Y-104463390D02*
X124361905Y-104272914D01*
X124361905Y-104272914D02*
X124409524Y-104177676D01*
X124409524Y-104177676D02*
X124504762Y-104082438D01*
X124504762Y-104082438D02*
X124647619Y-104034819D01*
X124647619Y-104034819D02*
X124742857Y-104034819D01*
X124742857Y-104034819D02*
X124885714Y-104082438D01*
X124885714Y-104082438D02*
X124933333Y-104130057D01*
X125790476Y-104034819D02*
X125600000Y-104034819D01*
X125600000Y-104034819D02*
X125504762Y-104082438D01*
X125504762Y-104082438D02*
X125457143Y-104130057D01*
X125457143Y-104130057D02*
X125361905Y-104272914D01*
X125361905Y-104272914D02*
X125314286Y-104463390D01*
X125314286Y-104463390D02*
X125314286Y-104844342D01*
X125314286Y-104844342D02*
X125361905Y-104939580D01*
X125361905Y-104939580D02*
X125409524Y-104987200D01*
X125409524Y-104987200D02*
X125504762Y-105034819D01*
X125504762Y-105034819D02*
X125695238Y-105034819D01*
X125695238Y-105034819D02*
X125790476Y-104987200D01*
X125790476Y-104987200D02*
X125838095Y-104939580D01*
X125838095Y-104939580D02*
X125885714Y-104844342D01*
X125885714Y-104844342D02*
X125885714Y-104606247D01*
X125885714Y-104606247D02*
X125838095Y-104511009D01*
X125838095Y-104511009D02*
X125790476Y-104463390D01*
X125790476Y-104463390D02*
X125695238Y-104415771D01*
X125695238Y-104415771D02*
X125504762Y-104415771D01*
X125504762Y-104415771D02*
X125409524Y-104463390D01*
X125409524Y-104463390D02*
X125361905Y-104511009D01*
X125361905Y-104511009D02*
X125314286Y-104606247D01*
X127454819Y-93042857D02*
X126978628Y-93376190D01*
X127454819Y-93614285D02*
X126454819Y-93614285D01*
X126454819Y-93614285D02*
X126454819Y-93233333D01*
X126454819Y-93233333D02*
X126502438Y-93138095D01*
X126502438Y-93138095D02*
X126550057Y-93090476D01*
X126550057Y-93090476D02*
X126645295Y-93042857D01*
X126645295Y-93042857D02*
X126788152Y-93042857D01*
X126788152Y-93042857D02*
X126883390Y-93090476D01*
X126883390Y-93090476D02*
X126931009Y-93138095D01*
X126931009Y-93138095D02*
X126978628Y-93233333D01*
X126978628Y-93233333D02*
X126978628Y-93614285D01*
X126550057Y-92661904D02*
X126502438Y-92614285D01*
X126502438Y-92614285D02*
X126454819Y-92519047D01*
X126454819Y-92519047D02*
X126454819Y-92280952D01*
X126454819Y-92280952D02*
X126502438Y-92185714D01*
X126502438Y-92185714D02*
X126550057Y-92138095D01*
X126550057Y-92138095D02*
X126645295Y-92090476D01*
X126645295Y-92090476D02*
X126740533Y-92090476D01*
X126740533Y-92090476D02*
X126883390Y-92138095D01*
X126883390Y-92138095D02*
X127454819Y-92709523D01*
X127454819Y-92709523D02*
X127454819Y-92090476D01*
X126454819Y-91185714D02*
X126454819Y-91661904D01*
X126454819Y-91661904D02*
X126931009Y-91709523D01*
X126931009Y-91709523D02*
X126883390Y-91661904D01*
X126883390Y-91661904D02*
X126835771Y-91566666D01*
X126835771Y-91566666D02*
X126835771Y-91328571D01*
X126835771Y-91328571D02*
X126883390Y-91233333D01*
X126883390Y-91233333D02*
X126931009Y-91185714D01*
X126931009Y-91185714D02*
X127026247Y-91138095D01*
X127026247Y-91138095D02*
X127264342Y-91138095D01*
X127264342Y-91138095D02*
X127359580Y-91185714D01*
X127359580Y-91185714D02*
X127407200Y-91233333D01*
X127407200Y-91233333D02*
X127454819Y-91328571D01*
X127454819Y-91328571D02*
X127454819Y-91566666D01*
X127454819Y-91566666D02*
X127407200Y-91661904D01*
X127407200Y-91661904D02*
X127359580Y-91709523D01*
X150358095Y-87734819D02*
X150358095Y-88544342D01*
X150358095Y-88544342D02*
X150405714Y-88639580D01*
X150405714Y-88639580D02*
X150453333Y-88687200D01*
X150453333Y-88687200D02*
X150548571Y-88734819D01*
X150548571Y-88734819D02*
X150739047Y-88734819D01*
X150739047Y-88734819D02*
X150834285Y-88687200D01*
X150834285Y-88687200D02*
X150881904Y-88639580D01*
X150881904Y-88639580D02*
X150929523Y-88544342D01*
X150929523Y-88544342D02*
X150929523Y-87734819D01*
X151929523Y-88734819D02*
X151358095Y-88734819D01*
X151643809Y-88734819D02*
X151643809Y-87734819D01*
X151643809Y-87734819D02*
X151548571Y-87877676D01*
X151548571Y-87877676D02*
X151453333Y-87972914D01*
X151453333Y-87972914D02*
X151358095Y-88020533D01*
X125233333Y-96939580D02*
X125185714Y-96987200D01*
X125185714Y-96987200D02*
X125042857Y-97034819D01*
X125042857Y-97034819D02*
X124947619Y-97034819D01*
X124947619Y-97034819D02*
X124804762Y-96987200D01*
X124804762Y-96987200D02*
X124709524Y-96891961D01*
X124709524Y-96891961D02*
X124661905Y-96796723D01*
X124661905Y-96796723D02*
X124614286Y-96606247D01*
X124614286Y-96606247D02*
X124614286Y-96463390D01*
X124614286Y-96463390D02*
X124661905Y-96272914D01*
X124661905Y-96272914D02*
X124709524Y-96177676D01*
X124709524Y-96177676D02*
X124804762Y-96082438D01*
X124804762Y-96082438D02*
X124947619Y-96034819D01*
X124947619Y-96034819D02*
X125042857Y-96034819D01*
X125042857Y-96034819D02*
X125185714Y-96082438D01*
X125185714Y-96082438D02*
X125233333Y-96130057D01*
X126138095Y-96034819D02*
X125661905Y-96034819D01*
X125661905Y-96034819D02*
X125614286Y-96511009D01*
X125614286Y-96511009D02*
X125661905Y-96463390D01*
X125661905Y-96463390D02*
X125757143Y-96415771D01*
X125757143Y-96415771D02*
X125995238Y-96415771D01*
X125995238Y-96415771D02*
X126090476Y-96463390D01*
X126090476Y-96463390D02*
X126138095Y-96511009D01*
X126138095Y-96511009D02*
X126185714Y-96606247D01*
X126185714Y-96606247D02*
X126185714Y-96844342D01*
X126185714Y-96844342D02*
X126138095Y-96939580D01*
X126138095Y-96939580D02*
X126090476Y-96987200D01*
X126090476Y-96987200D02*
X125995238Y-97034819D01*
X125995238Y-97034819D02*
X125757143Y-97034819D01*
X125757143Y-97034819D02*
X125661905Y-96987200D01*
X125661905Y-96987200D02*
X125614286Y-96939580D01*
X174134819Y-96933333D02*
X174849104Y-96933333D01*
X174849104Y-96933333D02*
X174991961Y-96980952D01*
X174991961Y-96980952D02*
X175087200Y-97076190D01*
X175087200Y-97076190D02*
X175134819Y-97219047D01*
X175134819Y-97219047D02*
X175134819Y-97314285D01*
X174468152Y-96028571D02*
X175134819Y-96028571D01*
X174087200Y-96266666D02*
X174801485Y-96504761D01*
X174801485Y-96504761D02*
X174801485Y-95885714D01*
X169578095Y-63967319D02*
X169578095Y-64776842D01*
X169578095Y-64776842D02*
X169625714Y-64872080D01*
X169625714Y-64872080D02*
X169673333Y-64919700D01*
X169673333Y-64919700D02*
X169768571Y-64967319D01*
X169768571Y-64967319D02*
X169959047Y-64967319D01*
X169959047Y-64967319D02*
X170054285Y-64919700D01*
X170054285Y-64919700D02*
X170101904Y-64872080D01*
X170101904Y-64872080D02*
X170149523Y-64776842D01*
X170149523Y-64776842D02*
X170149523Y-63967319D01*
X171101904Y-63967319D02*
X170625714Y-63967319D01*
X170625714Y-63967319D02*
X170578095Y-64443509D01*
X170578095Y-64443509D02*
X170625714Y-64395890D01*
X170625714Y-64395890D02*
X170720952Y-64348271D01*
X170720952Y-64348271D02*
X170959047Y-64348271D01*
X170959047Y-64348271D02*
X171054285Y-64395890D01*
X171054285Y-64395890D02*
X171101904Y-64443509D01*
X171101904Y-64443509D02*
X171149523Y-64538747D01*
X171149523Y-64538747D02*
X171149523Y-64776842D01*
X171149523Y-64776842D02*
X171101904Y-64872080D01*
X171101904Y-64872080D02*
X171054285Y-64919700D01*
X171054285Y-64919700D02*
X170959047Y-64967319D01*
X170959047Y-64967319D02*
X170720952Y-64967319D01*
X170720952Y-64967319D02*
X170625714Y-64919700D01*
X170625714Y-64919700D02*
X170578095Y-64872080D01*
X169416666Y-120504819D02*
X169416666Y-121219104D01*
X169416666Y-121219104D02*
X169369047Y-121361961D01*
X169369047Y-121361961D02*
X169273809Y-121457200D01*
X169273809Y-121457200D02*
X169130952Y-121504819D01*
X169130952Y-121504819D02*
X169035714Y-121504819D01*
X170369047Y-120504819D02*
X169892857Y-120504819D01*
X169892857Y-120504819D02*
X169845238Y-120981009D01*
X169845238Y-120981009D02*
X169892857Y-120933390D01*
X169892857Y-120933390D02*
X169988095Y-120885771D01*
X169988095Y-120885771D02*
X170226190Y-120885771D01*
X170226190Y-120885771D02*
X170321428Y-120933390D01*
X170321428Y-120933390D02*
X170369047Y-120981009D01*
X170369047Y-120981009D02*
X170416666Y-121076247D01*
X170416666Y-121076247D02*
X170416666Y-121314342D01*
X170416666Y-121314342D02*
X170369047Y-121409580D01*
X170369047Y-121409580D02*
X170321428Y-121457200D01*
X170321428Y-121457200D02*
X170226190Y-121504819D01*
X170226190Y-121504819D02*
X169988095Y-121504819D01*
X169988095Y-121504819D02*
X169892857Y-121457200D01*
X169892857Y-121457200D02*
X169845238Y-121409580D01*
X164457142Y-80954819D02*
X164123809Y-80478628D01*
X163885714Y-80954819D02*
X163885714Y-79954819D01*
X163885714Y-79954819D02*
X164266666Y-79954819D01*
X164266666Y-79954819D02*
X164361904Y-80002438D01*
X164361904Y-80002438D02*
X164409523Y-80050057D01*
X164409523Y-80050057D02*
X164457142Y-80145295D01*
X164457142Y-80145295D02*
X164457142Y-80288152D01*
X164457142Y-80288152D02*
X164409523Y-80383390D01*
X164409523Y-80383390D02*
X164361904Y-80431009D01*
X164361904Y-80431009D02*
X164266666Y-80478628D01*
X164266666Y-80478628D02*
X163885714Y-80478628D01*
X164838095Y-80050057D02*
X164885714Y-80002438D01*
X164885714Y-80002438D02*
X164980952Y-79954819D01*
X164980952Y-79954819D02*
X165219047Y-79954819D01*
X165219047Y-79954819D02*
X165314285Y-80002438D01*
X165314285Y-80002438D02*
X165361904Y-80050057D01*
X165361904Y-80050057D02*
X165409523Y-80145295D01*
X165409523Y-80145295D02*
X165409523Y-80240533D01*
X165409523Y-80240533D02*
X165361904Y-80383390D01*
X165361904Y-80383390D02*
X164790476Y-80954819D01*
X164790476Y-80954819D02*
X165409523Y-80954819D01*
X166361904Y-80954819D02*
X165790476Y-80954819D01*
X166076190Y-80954819D02*
X166076190Y-79954819D01*
X166076190Y-79954819D02*
X165980952Y-80097676D01*
X165980952Y-80097676D02*
X165885714Y-80192914D01*
X165885714Y-80192914D02*
X165790476Y-80240533D01*
X122354819Y-121633333D02*
X123069104Y-121633333D01*
X123069104Y-121633333D02*
X123211961Y-121680952D01*
X123211961Y-121680952D02*
X123307200Y-121776190D01*
X123307200Y-121776190D02*
X123354819Y-121919047D01*
X123354819Y-121919047D02*
X123354819Y-122014285D01*
X123354819Y-120633333D02*
X123354819Y-121204761D01*
X123354819Y-120919047D02*
X122354819Y-120919047D01*
X122354819Y-120919047D02*
X122497676Y-121014285D01*
X122497676Y-121014285D02*
X122592914Y-121109523D01*
X122592914Y-121109523D02*
X122640533Y-121204761D01*
X139157142Y-108304819D02*
X138823809Y-107828628D01*
X138585714Y-108304819D02*
X138585714Y-107304819D01*
X138585714Y-107304819D02*
X138966666Y-107304819D01*
X138966666Y-107304819D02*
X139061904Y-107352438D01*
X139061904Y-107352438D02*
X139109523Y-107400057D01*
X139109523Y-107400057D02*
X139157142Y-107495295D01*
X139157142Y-107495295D02*
X139157142Y-107638152D01*
X139157142Y-107638152D02*
X139109523Y-107733390D01*
X139109523Y-107733390D02*
X139061904Y-107781009D01*
X139061904Y-107781009D02*
X138966666Y-107828628D01*
X138966666Y-107828628D02*
X138585714Y-107828628D01*
X139490476Y-107304819D02*
X140109523Y-107304819D01*
X140109523Y-107304819D02*
X139776190Y-107685771D01*
X139776190Y-107685771D02*
X139919047Y-107685771D01*
X139919047Y-107685771D02*
X140014285Y-107733390D01*
X140014285Y-107733390D02*
X140061904Y-107781009D01*
X140061904Y-107781009D02*
X140109523Y-107876247D01*
X140109523Y-107876247D02*
X140109523Y-108114342D01*
X140109523Y-108114342D02*
X140061904Y-108209580D01*
X140061904Y-108209580D02*
X140014285Y-108257200D01*
X140014285Y-108257200D02*
X139919047Y-108304819D01*
X139919047Y-108304819D02*
X139633333Y-108304819D01*
X139633333Y-108304819D02*
X139538095Y-108257200D01*
X139538095Y-108257200D02*
X139490476Y-108209580D01*
X141061904Y-108304819D02*
X140490476Y-108304819D01*
X140776190Y-108304819D02*
X140776190Y-107304819D01*
X140776190Y-107304819D02*
X140680952Y-107447676D01*
X140680952Y-107447676D02*
X140585714Y-107542914D01*
X140585714Y-107542914D02*
X140490476Y-107590533D01*
X164457142Y-93304819D02*
X164123809Y-92828628D01*
X163885714Y-93304819D02*
X163885714Y-92304819D01*
X163885714Y-92304819D02*
X164266666Y-92304819D01*
X164266666Y-92304819D02*
X164361904Y-92352438D01*
X164361904Y-92352438D02*
X164409523Y-92400057D01*
X164409523Y-92400057D02*
X164457142Y-92495295D01*
X164457142Y-92495295D02*
X164457142Y-92638152D01*
X164457142Y-92638152D02*
X164409523Y-92733390D01*
X164409523Y-92733390D02*
X164361904Y-92781009D01*
X164361904Y-92781009D02*
X164266666Y-92828628D01*
X164266666Y-92828628D02*
X163885714Y-92828628D01*
X165409523Y-93304819D02*
X164838095Y-93304819D01*
X165123809Y-93304819D02*
X165123809Y-92304819D01*
X165123809Y-92304819D02*
X165028571Y-92447676D01*
X165028571Y-92447676D02*
X164933333Y-92542914D01*
X164933333Y-92542914D02*
X164838095Y-92590533D01*
X165742857Y-92304819D02*
X166361904Y-92304819D01*
X166361904Y-92304819D02*
X166028571Y-92685771D01*
X166028571Y-92685771D02*
X166171428Y-92685771D01*
X166171428Y-92685771D02*
X166266666Y-92733390D01*
X166266666Y-92733390D02*
X166314285Y-92781009D01*
X166314285Y-92781009D02*
X166361904Y-92876247D01*
X166361904Y-92876247D02*
X166361904Y-93114342D01*
X166361904Y-93114342D02*
X166314285Y-93209580D01*
X166314285Y-93209580D02*
X166266666Y-93257200D01*
X166266666Y-93257200D02*
X166171428Y-93304819D01*
X166171428Y-93304819D02*
X165885714Y-93304819D01*
X165885714Y-93304819D02*
X165790476Y-93257200D01*
X165790476Y-93257200D02*
X165742857Y-93209580D01*
X135383333Y-82379580D02*
X135335714Y-82427200D01*
X135335714Y-82427200D02*
X135192857Y-82474819D01*
X135192857Y-82474819D02*
X135097619Y-82474819D01*
X135097619Y-82474819D02*
X134954762Y-82427200D01*
X134954762Y-82427200D02*
X134859524Y-82331961D01*
X134859524Y-82331961D02*
X134811905Y-82236723D01*
X134811905Y-82236723D02*
X134764286Y-82046247D01*
X134764286Y-82046247D02*
X134764286Y-81903390D01*
X134764286Y-81903390D02*
X134811905Y-81712914D01*
X134811905Y-81712914D02*
X134859524Y-81617676D01*
X134859524Y-81617676D02*
X134954762Y-81522438D01*
X134954762Y-81522438D02*
X135097619Y-81474819D01*
X135097619Y-81474819D02*
X135192857Y-81474819D01*
X135192857Y-81474819D02*
X135335714Y-81522438D01*
X135335714Y-81522438D02*
X135383333Y-81570057D01*
X135716667Y-81474819D02*
X136335714Y-81474819D01*
X136335714Y-81474819D02*
X136002381Y-81855771D01*
X136002381Y-81855771D02*
X136145238Y-81855771D01*
X136145238Y-81855771D02*
X136240476Y-81903390D01*
X136240476Y-81903390D02*
X136288095Y-81951009D01*
X136288095Y-81951009D02*
X136335714Y-82046247D01*
X136335714Y-82046247D02*
X136335714Y-82284342D01*
X136335714Y-82284342D02*
X136288095Y-82379580D01*
X136288095Y-82379580D02*
X136240476Y-82427200D01*
X136240476Y-82427200D02*
X136145238Y-82474819D01*
X136145238Y-82474819D02*
X135859524Y-82474819D01*
X135859524Y-82474819D02*
X135764286Y-82427200D01*
X135764286Y-82427200D02*
X135716667Y-82379580D01*
X127454819Y-105266666D02*
X126978628Y-105599999D01*
X127454819Y-105838094D02*
X126454819Y-105838094D01*
X126454819Y-105838094D02*
X126454819Y-105457142D01*
X126454819Y-105457142D02*
X126502438Y-105361904D01*
X126502438Y-105361904D02*
X126550057Y-105314285D01*
X126550057Y-105314285D02*
X126645295Y-105266666D01*
X126645295Y-105266666D02*
X126788152Y-105266666D01*
X126788152Y-105266666D02*
X126883390Y-105314285D01*
X126883390Y-105314285D02*
X126931009Y-105361904D01*
X126931009Y-105361904D02*
X126978628Y-105457142D01*
X126978628Y-105457142D02*
X126978628Y-105838094D01*
X126788152Y-104409523D02*
X127454819Y-104409523D01*
X126407200Y-104647618D02*
X127121485Y-104885713D01*
X127121485Y-104885713D02*
X127121485Y-104266666D01*
X127154819Y-100942857D02*
X126678628Y-101276190D01*
X127154819Y-101514285D02*
X126154819Y-101514285D01*
X126154819Y-101514285D02*
X126154819Y-101133333D01*
X126154819Y-101133333D02*
X126202438Y-101038095D01*
X126202438Y-101038095D02*
X126250057Y-100990476D01*
X126250057Y-100990476D02*
X126345295Y-100942857D01*
X126345295Y-100942857D02*
X126488152Y-100942857D01*
X126488152Y-100942857D02*
X126583390Y-100990476D01*
X126583390Y-100990476D02*
X126631009Y-101038095D01*
X126631009Y-101038095D02*
X126678628Y-101133333D01*
X126678628Y-101133333D02*
X126678628Y-101514285D01*
X126250057Y-100561904D02*
X126202438Y-100514285D01*
X126202438Y-100514285D02*
X126154819Y-100419047D01*
X126154819Y-100419047D02*
X126154819Y-100180952D01*
X126154819Y-100180952D02*
X126202438Y-100085714D01*
X126202438Y-100085714D02*
X126250057Y-100038095D01*
X126250057Y-100038095D02*
X126345295Y-99990476D01*
X126345295Y-99990476D02*
X126440533Y-99990476D01*
X126440533Y-99990476D02*
X126583390Y-100038095D01*
X126583390Y-100038095D02*
X127154819Y-100609523D01*
X127154819Y-100609523D02*
X127154819Y-99990476D01*
X126154819Y-99133333D02*
X126154819Y-99323809D01*
X126154819Y-99323809D02*
X126202438Y-99419047D01*
X126202438Y-99419047D02*
X126250057Y-99466666D01*
X126250057Y-99466666D02*
X126392914Y-99561904D01*
X126392914Y-99561904D02*
X126583390Y-99609523D01*
X126583390Y-99609523D02*
X126964342Y-99609523D01*
X126964342Y-99609523D02*
X127059580Y-99561904D01*
X127059580Y-99561904D02*
X127107200Y-99514285D01*
X127107200Y-99514285D02*
X127154819Y-99419047D01*
X127154819Y-99419047D02*
X127154819Y-99228571D01*
X127154819Y-99228571D02*
X127107200Y-99133333D01*
X127107200Y-99133333D02*
X127059580Y-99085714D01*
X127059580Y-99085714D02*
X126964342Y-99038095D01*
X126964342Y-99038095D02*
X126726247Y-99038095D01*
X126726247Y-99038095D02*
X126631009Y-99085714D01*
X126631009Y-99085714D02*
X126583390Y-99133333D01*
X126583390Y-99133333D02*
X126535771Y-99228571D01*
X126535771Y-99228571D02*
X126535771Y-99419047D01*
X126535771Y-99419047D02*
X126583390Y-99514285D01*
X126583390Y-99514285D02*
X126631009Y-99561904D01*
X126631009Y-99561904D02*
X126726247Y-99609523D01*
X168057142Y-84054819D02*
X167723809Y-83578628D01*
X167485714Y-84054819D02*
X167485714Y-83054819D01*
X167485714Y-83054819D02*
X167866666Y-83054819D01*
X167866666Y-83054819D02*
X167961904Y-83102438D01*
X167961904Y-83102438D02*
X168009523Y-83150057D01*
X168009523Y-83150057D02*
X168057142Y-83245295D01*
X168057142Y-83245295D02*
X168057142Y-83388152D01*
X168057142Y-83388152D02*
X168009523Y-83483390D01*
X168009523Y-83483390D02*
X167961904Y-83531009D01*
X167961904Y-83531009D02*
X167866666Y-83578628D01*
X167866666Y-83578628D02*
X167485714Y-83578628D01*
X169009523Y-84054819D02*
X168438095Y-84054819D01*
X168723809Y-84054819D02*
X168723809Y-83054819D01*
X168723809Y-83054819D02*
X168628571Y-83197676D01*
X168628571Y-83197676D02*
X168533333Y-83292914D01*
X168533333Y-83292914D02*
X168438095Y-83340533D01*
X169580952Y-83483390D02*
X169485714Y-83435771D01*
X169485714Y-83435771D02*
X169438095Y-83388152D01*
X169438095Y-83388152D02*
X169390476Y-83292914D01*
X169390476Y-83292914D02*
X169390476Y-83245295D01*
X169390476Y-83245295D02*
X169438095Y-83150057D01*
X169438095Y-83150057D02*
X169485714Y-83102438D01*
X169485714Y-83102438D02*
X169580952Y-83054819D01*
X169580952Y-83054819D02*
X169771428Y-83054819D01*
X169771428Y-83054819D02*
X169866666Y-83102438D01*
X169866666Y-83102438D02*
X169914285Y-83150057D01*
X169914285Y-83150057D02*
X169961904Y-83245295D01*
X169961904Y-83245295D02*
X169961904Y-83292914D01*
X169961904Y-83292914D02*
X169914285Y-83388152D01*
X169914285Y-83388152D02*
X169866666Y-83435771D01*
X169866666Y-83435771D02*
X169771428Y-83483390D01*
X169771428Y-83483390D02*
X169580952Y-83483390D01*
X169580952Y-83483390D02*
X169485714Y-83531009D01*
X169485714Y-83531009D02*
X169438095Y-83578628D01*
X169438095Y-83578628D02*
X169390476Y-83673866D01*
X169390476Y-83673866D02*
X169390476Y-83864342D01*
X169390476Y-83864342D02*
X169438095Y-83959580D01*
X169438095Y-83959580D02*
X169485714Y-84007200D01*
X169485714Y-84007200D02*
X169580952Y-84054819D01*
X169580952Y-84054819D02*
X169771428Y-84054819D01*
X169771428Y-84054819D02*
X169866666Y-84007200D01*
X169866666Y-84007200D02*
X169914285Y-83959580D01*
X169914285Y-83959580D02*
X169961904Y-83864342D01*
X169961904Y-83864342D02*
X169961904Y-83673866D01*
X169961904Y-83673866D02*
X169914285Y-83578628D01*
X169914285Y-83578628D02*
X169866666Y-83531009D01*
X169866666Y-83531009D02*
X169771428Y-83483390D01*
X127054819Y-121442857D02*
X126578628Y-121776190D01*
X127054819Y-122014285D02*
X126054819Y-122014285D01*
X126054819Y-122014285D02*
X126054819Y-121633333D01*
X126054819Y-121633333D02*
X126102438Y-121538095D01*
X126102438Y-121538095D02*
X126150057Y-121490476D01*
X126150057Y-121490476D02*
X126245295Y-121442857D01*
X126245295Y-121442857D02*
X126388152Y-121442857D01*
X126388152Y-121442857D02*
X126483390Y-121490476D01*
X126483390Y-121490476D02*
X126531009Y-121538095D01*
X126531009Y-121538095D02*
X126578628Y-121633333D01*
X126578628Y-121633333D02*
X126578628Y-122014285D01*
X126150057Y-121061904D02*
X126102438Y-121014285D01*
X126102438Y-121014285D02*
X126054819Y-120919047D01*
X126054819Y-120919047D02*
X126054819Y-120680952D01*
X126054819Y-120680952D02*
X126102438Y-120585714D01*
X126102438Y-120585714D02*
X126150057Y-120538095D01*
X126150057Y-120538095D02*
X126245295Y-120490476D01*
X126245295Y-120490476D02*
X126340533Y-120490476D01*
X126340533Y-120490476D02*
X126483390Y-120538095D01*
X126483390Y-120538095D02*
X127054819Y-121109523D01*
X127054819Y-121109523D02*
X127054819Y-120490476D01*
X126150057Y-120109523D02*
X126102438Y-120061904D01*
X126102438Y-120061904D02*
X126054819Y-119966666D01*
X126054819Y-119966666D02*
X126054819Y-119728571D01*
X126054819Y-119728571D02*
X126102438Y-119633333D01*
X126102438Y-119633333D02*
X126150057Y-119585714D01*
X126150057Y-119585714D02*
X126245295Y-119538095D01*
X126245295Y-119538095D02*
X126340533Y-119538095D01*
X126340533Y-119538095D02*
X126483390Y-119585714D01*
X126483390Y-119585714D02*
X127054819Y-120157142D01*
X127054819Y-120157142D02*
X127054819Y-119538095D01*
X131583333Y-82504819D02*
X131250000Y-82028628D01*
X131011905Y-82504819D02*
X131011905Y-81504819D01*
X131011905Y-81504819D02*
X131392857Y-81504819D01*
X131392857Y-81504819D02*
X131488095Y-81552438D01*
X131488095Y-81552438D02*
X131535714Y-81600057D01*
X131535714Y-81600057D02*
X131583333Y-81695295D01*
X131583333Y-81695295D02*
X131583333Y-81838152D01*
X131583333Y-81838152D02*
X131535714Y-81933390D01*
X131535714Y-81933390D02*
X131488095Y-81981009D01*
X131488095Y-81981009D02*
X131392857Y-82028628D01*
X131392857Y-82028628D02*
X131011905Y-82028628D01*
X132154762Y-81933390D02*
X132059524Y-81885771D01*
X132059524Y-81885771D02*
X132011905Y-81838152D01*
X132011905Y-81838152D02*
X131964286Y-81742914D01*
X131964286Y-81742914D02*
X131964286Y-81695295D01*
X131964286Y-81695295D02*
X132011905Y-81600057D01*
X132011905Y-81600057D02*
X132059524Y-81552438D01*
X132059524Y-81552438D02*
X132154762Y-81504819D01*
X132154762Y-81504819D02*
X132345238Y-81504819D01*
X132345238Y-81504819D02*
X132440476Y-81552438D01*
X132440476Y-81552438D02*
X132488095Y-81600057D01*
X132488095Y-81600057D02*
X132535714Y-81695295D01*
X132535714Y-81695295D02*
X132535714Y-81742914D01*
X132535714Y-81742914D02*
X132488095Y-81838152D01*
X132488095Y-81838152D02*
X132440476Y-81885771D01*
X132440476Y-81885771D02*
X132345238Y-81933390D01*
X132345238Y-81933390D02*
X132154762Y-81933390D01*
X132154762Y-81933390D02*
X132059524Y-81981009D01*
X132059524Y-81981009D02*
X132011905Y-82028628D01*
X132011905Y-82028628D02*
X131964286Y-82123866D01*
X131964286Y-82123866D02*
X131964286Y-82314342D01*
X131964286Y-82314342D02*
X132011905Y-82409580D01*
X132011905Y-82409580D02*
X132059524Y-82457200D01*
X132059524Y-82457200D02*
X132154762Y-82504819D01*
X132154762Y-82504819D02*
X132345238Y-82504819D01*
X132345238Y-82504819D02*
X132440476Y-82457200D01*
X132440476Y-82457200D02*
X132488095Y-82409580D01*
X132488095Y-82409580D02*
X132535714Y-82314342D01*
X132535714Y-82314342D02*
X132535714Y-82123866D01*
X132535714Y-82123866D02*
X132488095Y-82028628D01*
X132488095Y-82028628D02*
X132440476Y-81981009D01*
X132440476Y-81981009D02*
X132345238Y-81933390D01*
X133838095Y-105654819D02*
X133838095Y-106464342D01*
X133838095Y-106464342D02*
X133885714Y-106559580D01*
X133885714Y-106559580D02*
X133933333Y-106607200D01*
X133933333Y-106607200D02*
X134028571Y-106654819D01*
X134028571Y-106654819D02*
X134219047Y-106654819D01*
X134219047Y-106654819D02*
X134314285Y-106607200D01*
X134314285Y-106607200D02*
X134361904Y-106559580D01*
X134361904Y-106559580D02*
X134409523Y-106464342D01*
X134409523Y-106464342D02*
X134409523Y-105654819D01*
X135314285Y-105988152D02*
X135314285Y-106654819D01*
X135076190Y-105607200D02*
X134838095Y-106321485D01*
X134838095Y-106321485D02*
X135457142Y-106321485D01*
X123214819Y-77483333D02*
X123929104Y-77483333D01*
X123929104Y-77483333D02*
X124071961Y-77530952D01*
X124071961Y-77530952D02*
X124167200Y-77626190D01*
X124167200Y-77626190D02*
X124214819Y-77769047D01*
X124214819Y-77769047D02*
X124214819Y-77864285D01*
X123214819Y-77102380D02*
X123214819Y-76435714D01*
X123214819Y-76435714D02*
X124214819Y-76864285D01*
X132704819Y-77011904D02*
X133514342Y-77011904D01*
X133514342Y-77011904D02*
X133609580Y-76964285D01*
X133609580Y-76964285D02*
X133657200Y-76916666D01*
X133657200Y-76916666D02*
X133704819Y-76821428D01*
X133704819Y-76821428D02*
X133704819Y-76630952D01*
X133704819Y-76630952D02*
X133657200Y-76535714D01*
X133657200Y-76535714D02*
X133609580Y-76488095D01*
X133609580Y-76488095D02*
X133514342Y-76440476D01*
X133514342Y-76440476D02*
X132704819Y-76440476D01*
X132800057Y-76011904D02*
X132752438Y-75964285D01*
X132752438Y-75964285D02*
X132704819Y-75869047D01*
X132704819Y-75869047D02*
X132704819Y-75630952D01*
X132704819Y-75630952D02*
X132752438Y-75535714D01*
X132752438Y-75535714D02*
X132800057Y-75488095D01*
X132800057Y-75488095D02*
X132895295Y-75440476D01*
X132895295Y-75440476D02*
X132990533Y-75440476D01*
X132990533Y-75440476D02*
X133133390Y-75488095D01*
X133133390Y-75488095D02*
X133704819Y-76059523D01*
X133704819Y-76059523D02*
X133704819Y-75440476D01*
X164444642Y-90254819D02*
X164111309Y-89778628D01*
X163873214Y-90254819D02*
X163873214Y-89254819D01*
X163873214Y-89254819D02*
X164254166Y-89254819D01*
X164254166Y-89254819D02*
X164349404Y-89302438D01*
X164349404Y-89302438D02*
X164397023Y-89350057D01*
X164397023Y-89350057D02*
X164444642Y-89445295D01*
X164444642Y-89445295D02*
X164444642Y-89588152D01*
X164444642Y-89588152D02*
X164397023Y-89683390D01*
X164397023Y-89683390D02*
X164349404Y-89731009D01*
X164349404Y-89731009D02*
X164254166Y-89778628D01*
X164254166Y-89778628D02*
X163873214Y-89778628D01*
X165397023Y-90254819D02*
X164825595Y-90254819D01*
X165111309Y-90254819D02*
X165111309Y-89254819D01*
X165111309Y-89254819D02*
X165016071Y-89397676D01*
X165016071Y-89397676D02*
X164920833Y-89492914D01*
X164920833Y-89492914D02*
X164825595Y-89540533D01*
X166301785Y-89254819D02*
X165825595Y-89254819D01*
X165825595Y-89254819D02*
X165777976Y-89731009D01*
X165777976Y-89731009D02*
X165825595Y-89683390D01*
X165825595Y-89683390D02*
X165920833Y-89635771D01*
X165920833Y-89635771D02*
X166158928Y-89635771D01*
X166158928Y-89635771D02*
X166254166Y-89683390D01*
X166254166Y-89683390D02*
X166301785Y-89731009D01*
X166301785Y-89731009D02*
X166349404Y-89826247D01*
X166349404Y-89826247D02*
X166349404Y-90064342D01*
X166349404Y-90064342D02*
X166301785Y-90159580D01*
X166301785Y-90159580D02*
X166254166Y-90207200D01*
X166254166Y-90207200D02*
X166158928Y-90254819D01*
X166158928Y-90254819D02*
X165920833Y-90254819D01*
X165920833Y-90254819D02*
X165825595Y-90207200D01*
X165825595Y-90207200D02*
X165777976Y-90159580D01*
X168658333Y-99954819D02*
X168325000Y-99478628D01*
X168086905Y-99954819D02*
X168086905Y-98954819D01*
X168086905Y-98954819D02*
X168467857Y-98954819D01*
X168467857Y-98954819D02*
X168563095Y-99002438D01*
X168563095Y-99002438D02*
X168610714Y-99050057D01*
X168610714Y-99050057D02*
X168658333Y-99145295D01*
X168658333Y-99145295D02*
X168658333Y-99288152D01*
X168658333Y-99288152D02*
X168610714Y-99383390D01*
X168610714Y-99383390D02*
X168563095Y-99431009D01*
X168563095Y-99431009D02*
X168467857Y-99478628D01*
X168467857Y-99478628D02*
X168086905Y-99478628D01*
X169515476Y-98954819D02*
X169325000Y-98954819D01*
X169325000Y-98954819D02*
X169229762Y-99002438D01*
X169229762Y-99002438D02*
X169182143Y-99050057D01*
X169182143Y-99050057D02*
X169086905Y-99192914D01*
X169086905Y-99192914D02*
X169039286Y-99383390D01*
X169039286Y-99383390D02*
X169039286Y-99764342D01*
X169039286Y-99764342D02*
X169086905Y-99859580D01*
X169086905Y-99859580D02*
X169134524Y-99907200D01*
X169134524Y-99907200D02*
X169229762Y-99954819D01*
X169229762Y-99954819D02*
X169420238Y-99954819D01*
X169420238Y-99954819D02*
X169515476Y-99907200D01*
X169515476Y-99907200D02*
X169563095Y-99859580D01*
X169563095Y-99859580D02*
X169610714Y-99764342D01*
X169610714Y-99764342D02*
X169610714Y-99526247D01*
X169610714Y-99526247D02*
X169563095Y-99431009D01*
X169563095Y-99431009D02*
X169515476Y-99383390D01*
X169515476Y-99383390D02*
X169420238Y-99335771D01*
X169420238Y-99335771D02*
X169229762Y-99335771D01*
X169229762Y-99335771D02*
X169134524Y-99383390D01*
X169134524Y-99383390D02*
X169086905Y-99431009D01*
X169086905Y-99431009D02*
X169039286Y-99526247D01*
X174004819Y-81333333D02*
X174719104Y-81333333D01*
X174719104Y-81333333D02*
X174861961Y-81380952D01*
X174861961Y-81380952D02*
X174957200Y-81476190D01*
X174957200Y-81476190D02*
X175004819Y-81619047D01*
X175004819Y-81619047D02*
X175004819Y-81714285D01*
X174004819Y-80428571D02*
X174004819Y-80619047D01*
X174004819Y-80619047D02*
X174052438Y-80714285D01*
X174052438Y-80714285D02*
X174100057Y-80761904D01*
X174100057Y-80761904D02*
X174242914Y-80857142D01*
X174242914Y-80857142D02*
X174433390Y-80904761D01*
X174433390Y-80904761D02*
X174814342Y-80904761D01*
X174814342Y-80904761D02*
X174909580Y-80857142D01*
X174909580Y-80857142D02*
X174957200Y-80809523D01*
X174957200Y-80809523D02*
X175004819Y-80714285D01*
X175004819Y-80714285D02*
X175004819Y-80523809D01*
X175004819Y-80523809D02*
X174957200Y-80428571D01*
X174957200Y-80428571D02*
X174909580Y-80380952D01*
X174909580Y-80380952D02*
X174814342Y-80333333D01*
X174814342Y-80333333D02*
X174576247Y-80333333D01*
X174576247Y-80333333D02*
X174481009Y-80380952D01*
X174481009Y-80380952D02*
X174433390Y-80428571D01*
X174433390Y-80428571D02*
X174385771Y-80523809D01*
X174385771Y-80523809D02*
X174385771Y-80714285D01*
X174385771Y-80714285D02*
X174433390Y-80809523D01*
X174433390Y-80809523D02*
X174481009Y-80857142D01*
X174481009Y-80857142D02*
X174576247Y-80904761D01*
X141239580Y-95316666D02*
X141287200Y-95364285D01*
X141287200Y-95364285D02*
X141334819Y-95507142D01*
X141334819Y-95507142D02*
X141334819Y-95602380D01*
X141334819Y-95602380D02*
X141287200Y-95745237D01*
X141287200Y-95745237D02*
X141191961Y-95840475D01*
X141191961Y-95840475D02*
X141096723Y-95888094D01*
X141096723Y-95888094D02*
X140906247Y-95935713D01*
X140906247Y-95935713D02*
X140763390Y-95935713D01*
X140763390Y-95935713D02*
X140572914Y-95888094D01*
X140572914Y-95888094D02*
X140477676Y-95840475D01*
X140477676Y-95840475D02*
X140382438Y-95745237D01*
X140382438Y-95745237D02*
X140334819Y-95602380D01*
X140334819Y-95602380D02*
X140334819Y-95507142D01*
X140334819Y-95507142D02*
X140382438Y-95364285D01*
X140382438Y-95364285D02*
X140430057Y-95316666D01*
X141334819Y-94364285D02*
X141334819Y-94935713D01*
X141334819Y-94649999D02*
X140334819Y-94649999D01*
X140334819Y-94649999D02*
X140477676Y-94745237D01*
X140477676Y-94745237D02*
X140572914Y-94840475D01*
X140572914Y-94840475D02*
X140620533Y-94935713D01*
X164444642Y-84054819D02*
X164111309Y-83578628D01*
X163873214Y-84054819D02*
X163873214Y-83054819D01*
X163873214Y-83054819D02*
X164254166Y-83054819D01*
X164254166Y-83054819D02*
X164349404Y-83102438D01*
X164349404Y-83102438D02*
X164397023Y-83150057D01*
X164397023Y-83150057D02*
X164444642Y-83245295D01*
X164444642Y-83245295D02*
X164444642Y-83388152D01*
X164444642Y-83388152D02*
X164397023Y-83483390D01*
X164397023Y-83483390D02*
X164349404Y-83531009D01*
X164349404Y-83531009D02*
X164254166Y-83578628D01*
X164254166Y-83578628D02*
X163873214Y-83578628D01*
X165397023Y-84054819D02*
X164825595Y-84054819D01*
X165111309Y-84054819D02*
X165111309Y-83054819D01*
X165111309Y-83054819D02*
X165016071Y-83197676D01*
X165016071Y-83197676D02*
X164920833Y-83292914D01*
X164920833Y-83292914D02*
X164825595Y-83340533D01*
X165873214Y-84054819D02*
X166063690Y-84054819D01*
X166063690Y-84054819D02*
X166158928Y-84007200D01*
X166158928Y-84007200D02*
X166206547Y-83959580D01*
X166206547Y-83959580D02*
X166301785Y-83816723D01*
X166301785Y-83816723D02*
X166349404Y-83626247D01*
X166349404Y-83626247D02*
X166349404Y-83245295D01*
X166349404Y-83245295D02*
X166301785Y-83150057D01*
X166301785Y-83150057D02*
X166254166Y-83102438D01*
X166254166Y-83102438D02*
X166158928Y-83054819D01*
X166158928Y-83054819D02*
X165968452Y-83054819D01*
X165968452Y-83054819D02*
X165873214Y-83102438D01*
X165873214Y-83102438D02*
X165825595Y-83150057D01*
X165825595Y-83150057D02*
X165777976Y-83245295D01*
X165777976Y-83245295D02*
X165777976Y-83483390D01*
X165777976Y-83483390D02*
X165825595Y-83578628D01*
X165825595Y-83578628D02*
X165873214Y-83626247D01*
X165873214Y-83626247D02*
X165968452Y-83673866D01*
X165968452Y-83673866D02*
X166158928Y-83673866D01*
X166158928Y-83673866D02*
X166254166Y-83626247D01*
X166254166Y-83626247D02*
X166301785Y-83578628D01*
X166301785Y-83578628D02*
X166349404Y-83483390D01*
X122654819Y-91983333D02*
X123369104Y-91983333D01*
X123369104Y-91983333D02*
X123511961Y-92030952D01*
X123511961Y-92030952D02*
X123607200Y-92126190D01*
X123607200Y-92126190D02*
X123654819Y-92269047D01*
X123654819Y-92269047D02*
X123654819Y-92364285D01*
X123654819Y-91459523D02*
X123654819Y-91269047D01*
X123654819Y-91269047D02*
X123607200Y-91173809D01*
X123607200Y-91173809D02*
X123559580Y-91126190D01*
X123559580Y-91126190D02*
X123416723Y-91030952D01*
X123416723Y-91030952D02*
X123226247Y-90983333D01*
X123226247Y-90983333D02*
X122845295Y-90983333D01*
X122845295Y-90983333D02*
X122750057Y-91030952D01*
X122750057Y-91030952D02*
X122702438Y-91078571D01*
X122702438Y-91078571D02*
X122654819Y-91173809D01*
X122654819Y-91173809D02*
X122654819Y-91364285D01*
X122654819Y-91364285D02*
X122702438Y-91459523D01*
X122702438Y-91459523D02*
X122750057Y-91507142D01*
X122750057Y-91507142D02*
X122845295Y-91554761D01*
X122845295Y-91554761D02*
X123083390Y-91554761D01*
X123083390Y-91554761D02*
X123178628Y-91507142D01*
X123178628Y-91507142D02*
X123226247Y-91459523D01*
X123226247Y-91459523D02*
X123273866Y-91364285D01*
X123273866Y-91364285D02*
X123273866Y-91173809D01*
X123273866Y-91173809D02*
X123226247Y-91078571D01*
X123226247Y-91078571D02*
X123178628Y-91030952D01*
X123178628Y-91030952D02*
X123083390Y-90983333D01*
X168295833Y-78104819D02*
X167962500Y-77628628D01*
X167724405Y-78104819D02*
X167724405Y-77104819D01*
X167724405Y-77104819D02*
X168105357Y-77104819D01*
X168105357Y-77104819D02*
X168200595Y-77152438D01*
X168200595Y-77152438D02*
X168248214Y-77200057D01*
X168248214Y-77200057D02*
X168295833Y-77295295D01*
X168295833Y-77295295D02*
X168295833Y-77438152D01*
X168295833Y-77438152D02*
X168248214Y-77533390D01*
X168248214Y-77533390D02*
X168200595Y-77581009D01*
X168200595Y-77581009D02*
X168105357Y-77628628D01*
X168105357Y-77628628D02*
X167724405Y-77628628D01*
X169248214Y-78104819D02*
X168676786Y-78104819D01*
X168962500Y-78104819D02*
X168962500Y-77104819D01*
X168962500Y-77104819D02*
X168867262Y-77247676D01*
X168867262Y-77247676D02*
X168772024Y-77342914D01*
X168772024Y-77342914D02*
X168676786Y-77390533D01*
X122604819Y-106833333D02*
X123319104Y-106833333D01*
X123319104Y-106833333D02*
X123461961Y-106880952D01*
X123461961Y-106880952D02*
X123557200Y-106976190D01*
X123557200Y-106976190D02*
X123604819Y-107119047D01*
X123604819Y-107119047D02*
X123604819Y-107214285D01*
X122604819Y-106452380D02*
X122604819Y-105833333D01*
X122604819Y-105833333D02*
X122985771Y-106166666D01*
X122985771Y-106166666D02*
X122985771Y-106023809D01*
X122985771Y-106023809D02*
X123033390Y-105928571D01*
X123033390Y-105928571D02*
X123081009Y-105880952D01*
X123081009Y-105880952D02*
X123176247Y-105833333D01*
X123176247Y-105833333D02*
X123414342Y-105833333D01*
X123414342Y-105833333D02*
X123509580Y-105880952D01*
X123509580Y-105880952D02*
X123557200Y-105928571D01*
X123557200Y-105928571D02*
X123604819Y-106023809D01*
X123604819Y-106023809D02*
X123604819Y-106309523D01*
X123604819Y-106309523D02*
X123557200Y-106404761D01*
X123557200Y-106404761D02*
X123509580Y-106452380D01*
X131583333Y-85904819D02*
X131250000Y-85428628D01*
X131011905Y-85904819D02*
X131011905Y-84904819D01*
X131011905Y-84904819D02*
X131392857Y-84904819D01*
X131392857Y-84904819D02*
X131488095Y-84952438D01*
X131488095Y-84952438D02*
X131535714Y-85000057D01*
X131535714Y-85000057D02*
X131583333Y-85095295D01*
X131583333Y-85095295D02*
X131583333Y-85238152D01*
X131583333Y-85238152D02*
X131535714Y-85333390D01*
X131535714Y-85333390D02*
X131488095Y-85381009D01*
X131488095Y-85381009D02*
X131392857Y-85428628D01*
X131392857Y-85428628D02*
X131011905Y-85428628D01*
X132059524Y-85904819D02*
X132250000Y-85904819D01*
X132250000Y-85904819D02*
X132345238Y-85857200D01*
X132345238Y-85857200D02*
X132392857Y-85809580D01*
X132392857Y-85809580D02*
X132488095Y-85666723D01*
X132488095Y-85666723D02*
X132535714Y-85476247D01*
X132535714Y-85476247D02*
X132535714Y-85095295D01*
X132535714Y-85095295D02*
X132488095Y-85000057D01*
X132488095Y-85000057D02*
X132440476Y-84952438D01*
X132440476Y-84952438D02*
X132345238Y-84904819D01*
X132345238Y-84904819D02*
X132154762Y-84904819D01*
X132154762Y-84904819D02*
X132059524Y-84952438D01*
X132059524Y-84952438D02*
X132011905Y-85000057D01*
X132011905Y-85000057D02*
X131964286Y-85095295D01*
X131964286Y-85095295D02*
X131964286Y-85333390D01*
X131964286Y-85333390D02*
X132011905Y-85428628D01*
X132011905Y-85428628D02*
X132059524Y-85476247D01*
X132059524Y-85476247D02*
X132154762Y-85523866D01*
X132154762Y-85523866D02*
X132345238Y-85523866D01*
X132345238Y-85523866D02*
X132440476Y-85476247D01*
X132440476Y-85476247D02*
X132488095Y-85428628D01*
X132488095Y-85428628D02*
X132535714Y-85333390D01*
X132704761Y-111550057D02*
X132609523Y-111502438D01*
X132609523Y-111502438D02*
X132514285Y-111407200D01*
X132514285Y-111407200D02*
X132371428Y-111264342D01*
X132371428Y-111264342D02*
X132276190Y-111216723D01*
X132276190Y-111216723D02*
X132180952Y-111216723D01*
X132228571Y-111454819D02*
X132133333Y-111407200D01*
X132133333Y-111407200D02*
X132038095Y-111311961D01*
X132038095Y-111311961D02*
X131990476Y-111121485D01*
X131990476Y-111121485D02*
X131990476Y-110788152D01*
X131990476Y-110788152D02*
X132038095Y-110597676D01*
X132038095Y-110597676D02*
X132133333Y-110502438D01*
X132133333Y-110502438D02*
X132228571Y-110454819D01*
X132228571Y-110454819D02*
X132419047Y-110454819D01*
X132419047Y-110454819D02*
X132514285Y-110502438D01*
X132514285Y-110502438D02*
X132609523Y-110597676D01*
X132609523Y-110597676D02*
X132657142Y-110788152D01*
X132657142Y-110788152D02*
X132657142Y-111121485D01*
X132657142Y-111121485D02*
X132609523Y-111311961D01*
X132609523Y-111311961D02*
X132514285Y-111407200D01*
X132514285Y-111407200D02*
X132419047Y-111454819D01*
X132419047Y-111454819D02*
X132228571Y-111454819D01*
X133609523Y-111454819D02*
X133038095Y-111454819D01*
X133323809Y-111454819D02*
X133323809Y-110454819D01*
X133323809Y-110454819D02*
X133228571Y-110597676D01*
X133228571Y-110597676D02*
X133133333Y-110692914D01*
X133133333Y-110692914D02*
X133038095Y-110740533D01*
X135383333Y-85779580D02*
X135335714Y-85827200D01*
X135335714Y-85827200D02*
X135192857Y-85874819D01*
X135192857Y-85874819D02*
X135097619Y-85874819D01*
X135097619Y-85874819D02*
X134954762Y-85827200D01*
X134954762Y-85827200D02*
X134859524Y-85731961D01*
X134859524Y-85731961D02*
X134811905Y-85636723D01*
X134811905Y-85636723D02*
X134764286Y-85446247D01*
X134764286Y-85446247D02*
X134764286Y-85303390D01*
X134764286Y-85303390D02*
X134811905Y-85112914D01*
X134811905Y-85112914D02*
X134859524Y-85017676D01*
X134859524Y-85017676D02*
X134954762Y-84922438D01*
X134954762Y-84922438D02*
X135097619Y-84874819D01*
X135097619Y-84874819D02*
X135192857Y-84874819D01*
X135192857Y-84874819D02*
X135335714Y-84922438D01*
X135335714Y-84922438D02*
X135383333Y-84970057D01*
X136240476Y-85208152D02*
X136240476Y-85874819D01*
X136002381Y-84827200D02*
X135764286Y-85541485D01*
X135764286Y-85541485D02*
X136383333Y-85541485D01*
X164920833Y-78104819D02*
X164587500Y-77628628D01*
X164349405Y-78104819D02*
X164349405Y-77104819D01*
X164349405Y-77104819D02*
X164730357Y-77104819D01*
X164730357Y-77104819D02*
X164825595Y-77152438D01*
X164825595Y-77152438D02*
X164873214Y-77200057D01*
X164873214Y-77200057D02*
X164920833Y-77295295D01*
X164920833Y-77295295D02*
X164920833Y-77438152D01*
X164920833Y-77438152D02*
X164873214Y-77533390D01*
X164873214Y-77533390D02*
X164825595Y-77581009D01*
X164825595Y-77581009D02*
X164730357Y-77628628D01*
X164730357Y-77628628D02*
X164349405Y-77628628D01*
X165301786Y-77200057D02*
X165349405Y-77152438D01*
X165349405Y-77152438D02*
X165444643Y-77104819D01*
X165444643Y-77104819D02*
X165682738Y-77104819D01*
X165682738Y-77104819D02*
X165777976Y-77152438D01*
X165777976Y-77152438D02*
X165825595Y-77200057D01*
X165825595Y-77200057D02*
X165873214Y-77295295D01*
X165873214Y-77295295D02*
X165873214Y-77390533D01*
X165873214Y-77390533D02*
X165825595Y-77533390D01*
X165825595Y-77533390D02*
X165254167Y-78104819D01*
X165254167Y-78104819D02*
X165873214Y-78104819D01*
X141139580Y-103316666D02*
X141187200Y-103364285D01*
X141187200Y-103364285D02*
X141234819Y-103507142D01*
X141234819Y-103507142D02*
X141234819Y-103602380D01*
X141234819Y-103602380D02*
X141187200Y-103745237D01*
X141187200Y-103745237D02*
X141091961Y-103840475D01*
X141091961Y-103840475D02*
X140996723Y-103888094D01*
X140996723Y-103888094D02*
X140806247Y-103935713D01*
X140806247Y-103935713D02*
X140663390Y-103935713D01*
X140663390Y-103935713D02*
X140472914Y-103888094D01*
X140472914Y-103888094D02*
X140377676Y-103840475D01*
X140377676Y-103840475D02*
X140282438Y-103745237D01*
X140282438Y-103745237D02*
X140234819Y-103602380D01*
X140234819Y-103602380D02*
X140234819Y-103507142D01*
X140234819Y-103507142D02*
X140282438Y-103364285D01*
X140282438Y-103364285D02*
X140330057Y-103316666D01*
X140330057Y-102935713D02*
X140282438Y-102888094D01*
X140282438Y-102888094D02*
X140234819Y-102792856D01*
X140234819Y-102792856D02*
X140234819Y-102554761D01*
X140234819Y-102554761D02*
X140282438Y-102459523D01*
X140282438Y-102459523D02*
X140330057Y-102411904D01*
X140330057Y-102411904D02*
X140425295Y-102364285D01*
X140425295Y-102364285D02*
X140520533Y-102364285D01*
X140520533Y-102364285D02*
X140663390Y-102411904D01*
X140663390Y-102411904D02*
X141234819Y-102983332D01*
X141234819Y-102983332D02*
X141234819Y-102364285D01*
X132666666Y-120354819D02*
X132666666Y-121069104D01*
X132666666Y-121069104D02*
X132619047Y-121211961D01*
X132619047Y-121211961D02*
X132523809Y-121307200D01*
X132523809Y-121307200D02*
X132380952Y-121354819D01*
X132380952Y-121354819D02*
X132285714Y-121354819D01*
X133095238Y-120450057D02*
X133142857Y-120402438D01*
X133142857Y-120402438D02*
X133238095Y-120354819D01*
X133238095Y-120354819D02*
X133476190Y-120354819D01*
X133476190Y-120354819D02*
X133571428Y-120402438D01*
X133571428Y-120402438D02*
X133619047Y-120450057D01*
X133619047Y-120450057D02*
X133666666Y-120545295D01*
X133666666Y-120545295D02*
X133666666Y-120640533D01*
X133666666Y-120640533D02*
X133619047Y-120783390D01*
X133619047Y-120783390D02*
X133047619Y-121354819D01*
X133047619Y-121354819D02*
X133666666Y-121354819D01*
D12*
%TO.C,R28*%
X137727064Y-90065000D02*
X137272936Y-90065000D01*
X137727064Y-91535000D02*
X137272936Y-91535000D01*
%TO.C,R23*%
X169077064Y-100115000D02*
X168622936Y-100115000D01*
X169077064Y-101585000D02*
X168622936Y-101585000D01*
%TO.C,R17*%
X165327064Y-84265000D02*
X164872936Y-84265000D01*
X165327064Y-85735000D02*
X164872936Y-85735000D01*
%TO.C,J8*%
X175800000Y-117950000D02*
X175800000Y-120800000D01*
X175800000Y-120800000D02*
X178650000Y-120800000D01*
X176040000Y-110740000D02*
X185860000Y-110740000D01*
X176040000Y-115650000D02*
X176040000Y-110740000D01*
X176040000Y-115650000D02*
X176040000Y-120560000D01*
X176040000Y-120560000D02*
X185860000Y-120560000D01*
X181680000Y-108850000D02*
X181680000Y-110740000D01*
X181680000Y-122450000D02*
X181680000Y-120560000D01*
X185200000Y-108850000D02*
X185200000Y-110740000D01*
X185200000Y-122450000D02*
X185200000Y-120560000D01*
X185860000Y-110740000D02*
X185860000Y-113840000D01*
X185860000Y-113840000D02*
X187260000Y-113840000D01*
X185860000Y-117460000D02*
X187260000Y-117460000D01*
X185860000Y-120560000D02*
X185860000Y-117460000D01*
X187260000Y-113840000D02*
X187260000Y-115650000D01*
X187260000Y-117460000D02*
X187260000Y-115650000D01*
X181680000Y-108850000D02*
G75*
G02*
X185200000Y-108850000I1760000J0D01*
G01*
X185200000Y-122450000D02*
G75*
G02*
X181680000Y-122450000I-1760000J0D01*
G01*
%TO.C,R20*%
X168889564Y-78265000D02*
X168435436Y-78265000D01*
X168889564Y-79735000D02*
X168435436Y-79735000D01*
%TO.C,R12*%
X169039564Y-90465000D02*
X168585436Y-90465000D01*
X169039564Y-91935000D02*
X168585436Y-91935000D01*
%TO.C,R10*%
X169027064Y-93615000D02*
X168572936Y-93615000D01*
X169027064Y-95085000D02*
X168572936Y-95085000D01*
%TO.C,U3*%
X133925000Y-92245000D02*
X131975000Y-92245000D01*
X133925000Y-92245000D02*
X135875000Y-92245000D01*
X133925000Y-97365000D02*
X131975000Y-97365000D01*
X133925000Y-97365000D02*
X135875000Y-97365000D01*
X136865000Y-97600000D02*
X136385000Y-97600000D01*
X136625000Y-97270000D01*
X136865000Y-97600000D01*
G36*
X136865000Y-97600000D02*
G01*
X136385000Y-97600000D01*
X136625000Y-97270000D01*
X136865000Y-97600000D01*
G37*
%TO.C,R5*%
X132072936Y-117765000D02*
X132527064Y-117765000D01*
X132072936Y-119235000D02*
X132527064Y-119235000D01*
%TO.C,R30*%
X131572936Y-106165000D02*
X132027064Y-106165000D01*
X131572936Y-107635000D02*
X132027064Y-107635000D01*
%TO.C,J10*%
X124750000Y-65800000D02*
X126640000Y-65800000D01*
X124750000Y-69320000D02*
X126640000Y-69320000D01*
X126640000Y-65140000D02*
X127640000Y-65140000D01*
X126640000Y-74960000D02*
X126640000Y-65140000D01*
X127640000Y-63740000D02*
X129450000Y-63740000D01*
X127640000Y-65140000D02*
X127640000Y-63740000D01*
X129450000Y-74960000D02*
X126640000Y-74960000D01*
X129450000Y-74960000D02*
X132260000Y-74960000D01*
X129650000Y-75200000D02*
X132500000Y-75200000D01*
X131260000Y-63740000D02*
X129450000Y-63740000D01*
X131260000Y-65140000D02*
X131260000Y-63740000D01*
X132260000Y-65140000D02*
X131260000Y-65140000D01*
X132260000Y-74960000D02*
X132260000Y-65140000D01*
X132500000Y-75200000D02*
X132500000Y-72350000D01*
X134150000Y-65800000D02*
X132260000Y-65800000D01*
X134150000Y-69320000D02*
X132260000Y-69320000D01*
X124750000Y-69320000D02*
G75*
G02*
X124750000Y-65800000I0J1760000D01*
G01*
X134150000Y-65800000D02*
G75*
G02*
X134150000Y-69320000I0J-1760000D01*
G01*
%TO.C,C8*%
X138261252Y-68015000D02*
X137738748Y-68015000D01*
X138261252Y-69485000D02*
X137738748Y-69485000D01*
%TO.C,R27*%
X137965000Y-99072936D02*
X137965000Y-99527064D01*
X139435000Y-99072936D02*
X139435000Y-99527064D01*
%TO.C,R16*%
X168939564Y-84265000D02*
X168485436Y-84265000D01*
X168939564Y-85735000D02*
X168485436Y-85735000D01*
%TO.C,R24*%
X165339564Y-100115000D02*
X164885436Y-100115000D01*
X165339564Y-101585000D02*
X164885436Y-101585000D01*
%TO.C,R29*%
X131672936Y-90265000D02*
X132127064Y-90265000D01*
X131672936Y-91735000D02*
X132127064Y-91735000D01*
%TO.C,R7*%
X165339564Y-97115000D02*
X164885436Y-97115000D01*
X165339564Y-98585000D02*
X164885436Y-98585000D01*
%TO.C,R3*%
X127965000Y-96939564D02*
X127965000Y-96485436D01*
X129435000Y-96939564D02*
X129435000Y-96485436D01*
%TO.C,C7*%
X135238748Y-79765000D02*
X135761252Y-79765000D01*
X135238748Y-81235000D02*
X135761252Y-81235000D01*
%TO.C,C9*%
X138261252Y-71265000D02*
X137738748Y-71265000D01*
X138261252Y-72735000D02*
X137738748Y-72735000D01*
%TO.C,R14*%
X168927064Y-87415000D02*
X168472936Y-87415000D01*
X168927064Y-88885000D02*
X168472936Y-88885000D01*
%TO.C,R32*%
X139965000Y-99072936D02*
X139965000Y-99527064D01*
X141435000Y-99072936D02*
X141435000Y-99527064D01*
%TO.C,R11*%
X165327064Y-93615000D02*
X164872936Y-93615000D01*
X165327064Y-95085000D02*
X164872936Y-95085000D01*
%TO.C,C6*%
X126061252Y-102165000D02*
X125538748Y-102165000D01*
X126061252Y-103635000D02*
X125538748Y-103635000D01*
%TO.C,R25*%
X127965000Y-93027064D02*
X127965000Y-92572936D01*
X129435000Y-93027064D02*
X129435000Y-92572936D01*
D13*
%TO.C,U1*%
X142103000Y-65006500D02*
X142103000Y-126093500D01*
X142103000Y-126093500D02*
X160137000Y-126093500D01*
X160137000Y-65006500D02*
X142103000Y-65006500D01*
X160137000Y-126093500D02*
X160137000Y-65006500D01*
D12*
%TO.C,C5*%
X125961252Y-94165000D02*
X125438748Y-94165000D01*
X125961252Y-95635000D02*
X125438748Y-95635000D01*
%TO.C,J4*%
X175450000Y-99300000D02*
X175450000Y-102150000D01*
X175450000Y-102150000D02*
X178300000Y-102150000D01*
X175690000Y-92090000D02*
X185510000Y-92090000D01*
X175690000Y-97000000D02*
X175690000Y-92090000D01*
X175690000Y-97000000D02*
X175690000Y-101910000D01*
X175690000Y-101910000D02*
X185510000Y-101910000D01*
X181330000Y-90200000D02*
X181330000Y-92090000D01*
X181330000Y-103800000D02*
X181330000Y-101910000D01*
X184850000Y-90200000D02*
X184850000Y-92090000D01*
X184850000Y-103800000D02*
X184850000Y-101910000D01*
X185510000Y-92090000D02*
X185510000Y-95190000D01*
X185510000Y-95190000D02*
X186910000Y-95190000D01*
X185510000Y-98810000D02*
X186910000Y-98810000D01*
X185510000Y-101910000D02*
X185510000Y-98810000D01*
X186910000Y-95190000D02*
X186910000Y-97000000D01*
X186910000Y-98810000D02*
X186910000Y-97000000D01*
X181330000Y-90200000D02*
G75*
G02*
X184850000Y-90200000I1760000J0D01*
G01*
X184850000Y-103800000D02*
G75*
G02*
X181330000Y-103800000I-1760000J0D01*
G01*
%TO.C,U5*%
X167030000Y-65562500D02*
X167030000Y-65832500D01*
X167030000Y-72462500D02*
X167030000Y-72192500D01*
X173450000Y-65562500D02*
X167030000Y-65562500D01*
X173450000Y-72462500D02*
X167030000Y-72462500D01*
X165615000Y-65852500D02*
X165375000Y-65522500D01*
X165855000Y-65522500D01*
X165615000Y-65852500D01*
G36*
X165615000Y-65852500D02*
G01*
X165375000Y-65522500D01*
X165855000Y-65522500D01*
X165615000Y-65852500D01*
G37*
%TO.C,J5*%
X165050000Y-127780000D02*
X166940000Y-127780000D01*
X165050000Y-131300000D02*
X166940000Y-131300000D01*
X166700000Y-121900000D02*
X166700000Y-124750000D01*
X166940000Y-122140000D02*
X166940000Y-131960000D01*
X166940000Y-131960000D02*
X167940000Y-131960000D01*
X167940000Y-131960000D02*
X167940000Y-133360000D01*
X167940000Y-133360000D02*
X169750000Y-133360000D01*
X169550000Y-121900000D02*
X166700000Y-121900000D01*
X169750000Y-122140000D02*
X166940000Y-122140000D01*
X169750000Y-122140000D02*
X172560000Y-122140000D01*
X171560000Y-131960000D02*
X171560000Y-133360000D01*
X171560000Y-133360000D02*
X169750000Y-133360000D01*
X172560000Y-122140000D02*
X172560000Y-131960000D01*
X172560000Y-131960000D02*
X171560000Y-131960000D01*
X174450000Y-127780000D02*
X172560000Y-127780000D01*
X174450000Y-131300000D02*
X172560000Y-131300000D01*
X165050000Y-131300000D02*
G75*
G02*
X165050000Y-127780000I0J1760000D01*
G01*
X174450000Y-127780000D02*
G75*
G02*
X174450000Y-131300000I0J-1760000D01*
G01*
%TO.C,R21*%
X165314564Y-78265000D02*
X164860436Y-78265000D01*
X165314564Y-79735000D02*
X164860436Y-79735000D01*
%TO.C,J1*%
X110380000Y-119690000D02*
X110380000Y-121500000D01*
X110380000Y-123310000D02*
X110380000Y-121500000D01*
X111780000Y-118690000D02*
X111780000Y-119690000D01*
X111780000Y-119690000D02*
X110380000Y-119690000D01*
X111780000Y-123310000D02*
X110380000Y-123310000D01*
X111780000Y-124310000D02*
X111780000Y-123310000D01*
X112440000Y-116800000D02*
X112440000Y-118690000D01*
X112440000Y-126200000D02*
X112440000Y-124310000D01*
X115960000Y-116800000D02*
X115960000Y-118690000D01*
X115960000Y-126200000D02*
X115960000Y-124310000D01*
X121600000Y-118690000D02*
X111780000Y-118690000D01*
X121600000Y-121500000D02*
X121600000Y-118690000D01*
X121600000Y-121500000D02*
X121600000Y-124310000D01*
X121600000Y-124310000D02*
X111780000Y-124310000D01*
X121840000Y-118450000D02*
X118990000Y-118450000D01*
X121840000Y-121300000D02*
X121840000Y-118450000D01*
X112440000Y-116800000D02*
G75*
G02*
X115960000Y-116800000I1760000J0D01*
G01*
X115960000Y-126200000D02*
G75*
G02*
X112440000Y-126200000I-1760000J0D01*
G01*
%TO.C,R31*%
X140027064Y-105465000D02*
X139572936Y-105465000D01*
X140027064Y-106935000D02*
X139572936Y-106935000D01*
%TO.C,R13*%
X165327064Y-90465000D02*
X164872936Y-90465000D01*
X165327064Y-91935000D02*
X164872936Y-91935000D01*
%TO.C,C3*%
X135288748Y-82965000D02*
X135811252Y-82965000D01*
X135288748Y-84435000D02*
X135811252Y-84435000D01*
%TO.C,R4*%
X127965000Y-105002064D02*
X127965000Y-104547936D01*
X129435000Y-105002064D02*
X129435000Y-104547936D01*
%TO.C,R26*%
X127965000Y-101214564D02*
X127965000Y-100760436D01*
X129435000Y-101214564D02*
X129435000Y-100760436D01*
%TO.C,R18*%
X168927064Y-81215000D02*
X168472936Y-81215000D01*
X168927064Y-82685000D02*
X168472936Y-82685000D01*
%TO.C,R22*%
X124165000Y-120422936D02*
X124165000Y-120877064D01*
X125635000Y-120422936D02*
X125635000Y-120877064D01*
%TO.C,R8*%
X131522936Y-82965000D02*
X131977064Y-82965000D01*
X131522936Y-84435000D02*
X131977064Y-84435000D01*
%TO.C,U4*%
X133875000Y-100245000D02*
X131925000Y-100245000D01*
X133875000Y-100245000D02*
X135825000Y-100245000D01*
X133875000Y-105365000D02*
X131925000Y-105365000D01*
X133875000Y-105365000D02*
X135825000Y-105365000D01*
X136815000Y-105600000D02*
X136335000Y-105600000D01*
X136575000Y-105270000D01*
X136815000Y-105600000D01*
G36*
X136815000Y-105600000D02*
G01*
X136335000Y-105600000D01*
X136575000Y-105270000D01*
X136815000Y-105600000D01*
G37*
%TO.C,J7*%
X110940000Y-75640000D02*
X110940000Y-77450000D01*
X110940000Y-79260000D02*
X110940000Y-77450000D01*
X112340000Y-74640000D02*
X112340000Y-75640000D01*
X112340000Y-75640000D02*
X110940000Y-75640000D01*
X112340000Y-79260000D02*
X110940000Y-79260000D01*
X112340000Y-80260000D02*
X112340000Y-79260000D01*
X113000000Y-72750000D02*
X113000000Y-74640000D01*
X113000000Y-82150000D02*
X113000000Y-80260000D01*
X116520000Y-72750000D02*
X116520000Y-74640000D01*
X116520000Y-82150000D02*
X116520000Y-80260000D01*
X122160000Y-74640000D02*
X112340000Y-74640000D01*
X122160000Y-77450000D02*
X122160000Y-74640000D01*
X122160000Y-77450000D02*
X122160000Y-80260000D01*
X122160000Y-80260000D02*
X112340000Y-80260000D01*
X122400000Y-74400000D02*
X119550000Y-74400000D01*
X122400000Y-77250000D02*
X122400000Y-74400000D01*
X113000000Y-72750000D02*
G75*
G02*
X116520000Y-72750000I1760000J0D01*
G01*
X116520000Y-82150000D02*
G75*
G02*
X113000000Y-82150000I-1760000J0D01*
G01*
%TO.C,U2*%
X134065000Y-77300000D02*
X134065000Y-74300000D01*
X134115000Y-74240000D02*
X134265000Y-74240000D01*
X137285000Y-77300000D02*
X137285000Y-74300000D01*
X134335000Y-78340000D02*
X133855000Y-77860000D01*
X134335000Y-77860000D01*
X134335000Y-78340000D01*
G36*
X134335000Y-78340000D02*
G01*
X133855000Y-77860000D01*
X134335000Y-77860000D01*
X134335000Y-78340000D01*
G37*
%TO.C,R15*%
X165314564Y-87415000D02*
X164860436Y-87415000D01*
X165314564Y-88885000D02*
X164860436Y-88885000D01*
%TO.C,R6*%
X169052064Y-97115000D02*
X168597936Y-97115000D01*
X169052064Y-98585000D02*
X168597936Y-98585000D01*
%TO.C,J6*%
X175400000Y-81200000D02*
X175400000Y-84050000D01*
X175400000Y-84050000D02*
X178250000Y-84050000D01*
X175640000Y-78190000D02*
X185460000Y-78190000D01*
X175640000Y-81000000D02*
X175640000Y-78190000D01*
X175640000Y-81000000D02*
X175640000Y-83810000D01*
X175640000Y-83810000D02*
X185460000Y-83810000D01*
X181280000Y-76300000D02*
X181280000Y-78190000D01*
X181280000Y-85700000D02*
X181280000Y-83810000D01*
X184800000Y-76300000D02*
X184800000Y-78190000D01*
X184800000Y-85700000D02*
X184800000Y-83810000D01*
X185460000Y-78190000D02*
X185460000Y-79190000D01*
X185460000Y-79190000D02*
X186860000Y-79190000D01*
X185460000Y-82810000D02*
X186860000Y-82810000D01*
X185460000Y-83810000D02*
X185460000Y-82810000D01*
X186860000Y-79190000D02*
X186860000Y-81000000D01*
X186860000Y-82810000D02*
X186860000Y-81000000D01*
X181280000Y-76300000D02*
G75*
G02*
X184800000Y-76300000I1760000J0D01*
G01*
X184800000Y-85700000D02*
G75*
G02*
X181280000Y-85700000I-1760000J0D01*
G01*
%TO.C,C1*%
X138465000Y-94888748D02*
X138465000Y-95411252D01*
X139935000Y-94888748D02*
X139935000Y-95411252D01*
%TO.C,R19*%
X165314564Y-81215000D02*
X164860436Y-81215000D01*
X165314564Y-82685000D02*
X164860436Y-82685000D01*
%TO.C,J9*%
X110890000Y-89840000D02*
X110890000Y-91650000D01*
X110890000Y-93460000D02*
X110890000Y-91650000D01*
X112290000Y-88840000D02*
X112290000Y-89840000D01*
X112290000Y-89840000D02*
X110890000Y-89840000D01*
X112290000Y-93460000D02*
X110890000Y-93460000D01*
X112290000Y-94460000D02*
X112290000Y-93460000D01*
X112950000Y-86950000D02*
X112950000Y-88840000D01*
X112950000Y-96350000D02*
X112950000Y-94460000D01*
X116470000Y-86950000D02*
X116470000Y-88840000D01*
X116470000Y-96350000D02*
X116470000Y-94460000D01*
X122110000Y-88840000D02*
X112290000Y-88840000D01*
X122110000Y-91650000D02*
X122110000Y-88840000D01*
X122110000Y-91650000D02*
X122110000Y-94460000D01*
X122110000Y-94460000D02*
X112290000Y-94460000D01*
X122350000Y-88600000D02*
X119500000Y-88600000D01*
X122350000Y-91450000D02*
X122350000Y-88600000D01*
X112950000Y-86950000D02*
G75*
G02*
X116470000Y-86950000I1760000J0D01*
G01*
X116470000Y-96350000D02*
G75*
G02*
X112950000Y-96350000I-1760000J0D01*
G01*
%TO.C,R1*%
X168914564Y-75265000D02*
X168460436Y-75265000D01*
X168914564Y-76735000D02*
X168460436Y-76735000D01*
%TO.C,J3*%
X110840000Y-104690000D02*
X110840000Y-106500000D01*
X110840000Y-108310000D02*
X110840000Y-106500000D01*
X112240000Y-103690000D02*
X112240000Y-104690000D01*
X112240000Y-104690000D02*
X110840000Y-104690000D01*
X112240000Y-108310000D02*
X110840000Y-108310000D01*
X112240000Y-109310000D02*
X112240000Y-108310000D01*
X112900000Y-101800000D02*
X112900000Y-103690000D01*
X112900000Y-111200000D02*
X112900000Y-109310000D01*
X116420000Y-101800000D02*
X116420000Y-103690000D01*
X116420000Y-111200000D02*
X116420000Y-109310000D01*
X122060000Y-103690000D02*
X112240000Y-103690000D01*
X122060000Y-106500000D02*
X122060000Y-103690000D01*
X122060000Y-106500000D02*
X122060000Y-109310000D01*
X122060000Y-109310000D02*
X112240000Y-109310000D01*
X122300000Y-103450000D02*
X119450000Y-103450000D01*
X122300000Y-106300000D02*
X122300000Y-103450000D01*
X112900000Y-101800000D02*
G75*
G02*
X116420000Y-101800000I1760000J0D01*
G01*
X116420000Y-111200000D02*
G75*
G02*
X112900000Y-111200000I-1760000J0D01*
G01*
%TO.C,R9*%
X131522936Y-86365000D02*
X131977064Y-86365000D01*
X131522936Y-87835000D02*
X131977064Y-87835000D01*
%TO.C,Q1*%
X127380000Y-116525000D02*
X127380000Y-111884000D01*
X130649000Y-116525000D02*
X130649000Y-115015000D01*
X134350000Y-116525000D02*
X134350000Y-115015000D01*
X137620000Y-111884000D02*
X127380000Y-111884000D01*
X137620000Y-115015000D02*
X127380000Y-115015000D01*
X137620000Y-116525000D02*
X127380000Y-116525000D01*
X137620000Y-116525000D02*
X137620000Y-111884000D01*
%TO.C,C4*%
X135288748Y-86365000D02*
X135811252Y-86365000D01*
X135288748Y-87835000D02*
X135811252Y-87835000D01*
%TO.C,R2*%
X165314564Y-75265000D02*
X164860436Y-75265000D01*
X165314564Y-76735000D02*
X164860436Y-76735000D01*
%TO.C,C2*%
X138365000Y-102888748D02*
X138365000Y-103411252D01*
X139835000Y-102888748D02*
X139835000Y-103411252D01*
%TO.C,J2*%
X128250000Y-127730000D02*
X130140000Y-127730000D01*
X128250000Y-131250000D02*
X130140000Y-131250000D01*
X129900000Y-121850000D02*
X129900000Y-124700000D01*
X130140000Y-122090000D02*
X130140000Y-131910000D01*
X130140000Y-131910000D02*
X131140000Y-131910000D01*
X131140000Y-131910000D02*
X131140000Y-133310000D01*
X131140000Y-133310000D02*
X132950000Y-133310000D01*
X132750000Y-121850000D02*
X129900000Y-121850000D01*
X132950000Y-122090000D02*
X130140000Y-122090000D01*
X132950000Y-122090000D02*
X135760000Y-122090000D01*
X134760000Y-131910000D02*
X134760000Y-133310000D01*
X134760000Y-133310000D02*
X132950000Y-133310000D01*
X135760000Y-122090000D02*
X135760000Y-131910000D01*
X135760000Y-131910000D02*
X134760000Y-131910000D01*
X137650000Y-127730000D02*
X135760000Y-127730000D01*
X137650000Y-131250000D02*
X135760000Y-131250000D01*
X128250000Y-131250000D02*
G75*
G02*
X128250000Y-127730000I0J1760000D01*
G01*
X137650000Y-127730000D02*
G75*
G02*
X137650000Y-131250000I0J-1760000D01*
G01*
%TD*%
M02*
