M48
; DRILL file {KiCad 8.0.5} date 2025-02-16T14:40:52-0800
; FORMAT={-:-/ absolute / inch / decimal}
; #@! TF.CreationDate,2025-02-16T14:40:52-08:00
; #@! TF.GenerationSoftware,Kicad,Pcbnew,8.0.5
; #@! TF.FileFunction,NonPlated,1,2,NPTH
FMAT,2
INCH
; #@! TA.AperFunction,NonPlated,NPTH,ComponentDrill
T1C0.1181
; #@! TA.AperFunction,NonPlated,NPTH,ComponentDrill
T2C0.1260
%
G90
G05
T1
X4.4961Y-4.5984
X4.4961Y-4.9685
X4.5142Y-4.0079
X4.5142Y-4.378
X4.5161Y-3.4232
X4.5161Y-3.7933
X4.5181Y-2.8642
X4.5181Y-3.2343
X4.9114Y-2.6598
X5.0492Y-5.098
X5.2815Y-2.6598
X5.4193Y-5.098
X6.498Y-5.1
X6.8681Y-5.1
X7.2063Y-3.0039
X7.2063Y-3.374
X7.2083Y-3.5512
X7.2083Y-4.0866
X7.222Y-4.2854
X7.222Y-4.8209
T2
X4.4843Y-2.6299
X4.4882Y-5.1929
X7.2441Y-2.6378
X7.2441Y-5.1969
M30
