%TF.GenerationSoftware,KiCad,Pcbnew,8.0.5*%
%TF.CreationDate,2025-02-16T14:39:50-08:00*%
%TF.ProjectId,ccm,63636d2e-6b69-4636-9164-5f7063625858,rev?*%
%TF.SameCoordinates,Original*%
%TF.FileFunction,Soldermask,Bot*%
%TF.FilePolarity,Negative*%
%FSLAX46Y46*%
G04 Gerber Fmt 4.6, Leading zero omitted, Abs format (unit mm)*
G04 Created by KiCad (PCBNEW 8.0.5) date 2025-02-16 14:39:50*
%MOMM*%
%LPD*%
G01*
G04 APERTURE LIST*
G04 Aperture macros list*
%AMRoundRect*
0 Rectangle with rounded corners*
0 $1 Rounding radius*
0 $2 $3 $4 $5 $6 $7 $8 $9 X,Y pos of 4 corners*
0 Add a 4 corners polygon primitive as box body*
4,1,4,$2,$3,$4,$5,$6,$7,$8,$9,$2,$3,0*
0 Add four circle primitives for the rounded corners*
1,1,$1+$1,$2,$3*
1,1,$1+$1,$4,$5*
1,1,$1+$1,$6,$7*
1,1,$1+$1,$8,$9*
0 Add four rect primitives between the rounded corners*
20,1,$1+$1,$2,$3,$4,$5,0*
20,1,$1+$1,$4,$5,$6,$7,0*
20,1,$1+$1,$6,$7,$8,$9,0*
20,1,$1+$1,$8,$9,$2,$3,0*%
G04 Aperture macros list end*
%ADD10C,3.000000*%
%ADD11RoundRect,0.250001X1.399999X-1.099999X1.399999X1.099999X-1.399999X1.099999X-1.399999X-1.099999X0*%
%ADD12O,3.300000X2.700000*%
%ADD13RoundRect,0.250001X1.099999X1.399999X-1.099999X1.399999X-1.099999X-1.399999X1.099999X-1.399999X0*%
%ADD14O,2.700000X3.300000*%
%ADD15R,1.498600X1.498600*%
%ADD16C,1.498600*%
%ADD17C,3.200000*%
%ADD18RoundRect,0.250001X-1.099999X-1.399999X1.099999X-1.399999X1.099999X1.399999X-1.099999X1.399999X0*%
%ADD19RoundRect,0.250001X-1.399999X1.099999X-1.399999X-1.099999X1.399999X-1.099999X1.399999X1.099999X0*%
%ADD20R,1.905000X2.000000*%
%ADD21O,1.905000X2.000000*%
G04 APERTURE END LIST*
D10*
%TO.C,J8*%
X183440000Y-122450000D03*
X183440000Y-108850000D03*
D11*
X178400000Y-117750000D03*
D12*
X178400000Y-113550000D03*
X183900000Y-117750000D03*
X183900000Y-113550000D03*
%TD*%
D10*
%TO.C,J10*%
X134150000Y-67560000D03*
X124750000Y-67560000D03*
D13*
X129450000Y-72600000D03*
D14*
X129450000Y-67100000D03*
%TD*%
D15*
%TO.C,U1*%
X143500000Y-66340000D03*
D16*
X143500000Y-68880000D03*
X143500000Y-71420000D03*
X143500000Y-73960000D03*
X143500000Y-76500000D03*
X143500000Y-79040000D03*
X143500000Y-81580000D03*
X143500000Y-84120000D03*
X143500000Y-86660000D03*
X143500000Y-89200000D03*
X143500000Y-91740000D03*
X143500000Y-94280000D03*
X143500000Y-96820000D03*
X143500000Y-99360000D03*
X143500000Y-101900000D03*
X143500000Y-104440000D03*
X143500000Y-106980000D03*
X143500000Y-109520000D03*
X143500000Y-112060000D03*
X143500000Y-114600000D03*
X143500000Y-117140000D03*
X143500000Y-119680000D03*
X143500000Y-122220000D03*
X143500000Y-124760000D03*
X158740000Y-124760000D03*
X158740000Y-122220000D03*
X158740000Y-119680000D03*
X158740000Y-117140000D03*
X158740000Y-114600000D03*
X158740000Y-112060000D03*
X158740000Y-109520000D03*
X158740000Y-106980000D03*
X158740000Y-104440000D03*
X158740000Y-101900000D03*
X158740000Y-99360000D03*
X158740000Y-96820000D03*
X158740000Y-94280000D03*
X158740000Y-91740000D03*
X158740000Y-89200000D03*
X158740000Y-86660000D03*
X158740000Y-84120000D03*
X158740000Y-81580000D03*
X158740000Y-79040000D03*
X158740000Y-76500000D03*
X158740000Y-73960000D03*
X158740000Y-71420000D03*
X158740000Y-68880000D03*
X158740000Y-66340000D03*
%TD*%
D17*
%TO.C,REF\u002A\u002A*%
X184000000Y-132000000D03*
%TD*%
%TO.C,REF\u002A\u002A*%
X113900000Y-66800000D03*
%TD*%
D10*
%TO.C,J4*%
X183090000Y-103800000D03*
X183090000Y-90200000D03*
D11*
X178050000Y-99100000D03*
D12*
X178050000Y-94900000D03*
X183550000Y-99100000D03*
X183550000Y-94900000D03*
%TD*%
D10*
%TO.C,J5*%
X165050000Y-129540000D03*
X174450000Y-129540000D03*
D18*
X169750000Y-124500000D03*
D14*
X169750000Y-130000000D03*
%TD*%
D10*
%TO.C,J1*%
X114200000Y-116800000D03*
X114200000Y-126200000D03*
D19*
X119240000Y-121500000D03*
D12*
X113740000Y-121500000D03*
%TD*%
D17*
%TO.C,REF\u002A\u002A*%
X184000000Y-67000000D03*
%TD*%
%TO.C,REF\u002A\u002A*%
X114000000Y-131900000D03*
%TD*%
D10*
%TO.C,J7*%
X114760000Y-72750000D03*
X114760000Y-82150000D03*
D19*
X119800000Y-77450000D03*
D12*
X114300000Y-77450000D03*
%TD*%
D10*
%TO.C,J6*%
X183040000Y-85700000D03*
X183040000Y-76300000D03*
D11*
X178000000Y-81000000D03*
D12*
X183500000Y-81000000D03*
%TD*%
D10*
%TO.C,J9*%
X114710000Y-86950000D03*
X114710000Y-96350000D03*
D19*
X119750000Y-91650000D03*
D12*
X114250000Y-91650000D03*
%TD*%
D10*
%TO.C,J3*%
X114660000Y-101800000D03*
X114660000Y-111200000D03*
D19*
X119700000Y-106500000D03*
D12*
X114200000Y-106500000D03*
%TD*%
D20*
%TO.C,Q1*%
X135040000Y-113255000D03*
D21*
X132500000Y-113255000D03*
X129960000Y-113255000D03*
%TD*%
D10*
%TO.C,J2*%
X128250000Y-129490000D03*
X137650000Y-129490000D03*
D18*
X132950000Y-124450000D03*
D14*
X132950000Y-129950000D03*
%TD*%
M02*
